<svg xmlns="http://www.w3.org/2000/svg" viewBox="-112 800.5 374.5 522.5" width="374.5px" height="522.5px">
  <g>
    <g>
      <path fill="#000000" fill-rule="evenodd" d="M155.5 934 L154.25 933.75 L154.25 932.25 L156.5 932 L157 932.5 L155.5 934 "></path>
    </g>
    <g>
      <path fill="#000000" fill-rule="evenodd" d="M72 946.5 L70.25 946.75 L70 945.5 L71.5 944 L74 943.375 L89 936.625 L91.5 936 L92.5 935 L93 935.5 L93 936.5 L91.5 938 L90 938.375 L78 943.5 L72 946.5 "></path>
    </g>
    <g>
      <path fill="#000000" fill-rule="evenodd" d="M109 942.625 L105.25 941.75 L105 940.5 L107.5 938 L109 938 L108.5 937 L106 937.625 L104.25 937.75 L104.25 936.25 L109 934.625 L120.5 933 L121.5 932 L122.5 933 L123.75 933.25 L124 935.5 L121.5 938 L117.5 940 L116.5 941 L116 940.5 L116 939.5 L115.5 939 L113.5 941 L112 941.375 L109 942.625 M122 935 L122 934 L121 934 L121 935 L122 935 M118 936 L118 935 L117 935 L117 936 L118 936 M121 936 L121 935 L120 935 L120 936 L121 936 M110 937 L110 936 L109 936 L109 937 L110 937 M116 937 L116 936 L115 936 L115 937 L116 937 M120 937 L120 936 L119 936 L119 937 L120 937 M114.5 938 L115 937 L113.5 937 L113 938 L114.5 938 M111.5 940 L113 938.5 L112.5 938 L109.5 939 L109 940 L111.5 940 M109 941 L109 940 L108 940 L108 941 L109 941 "></path>
    </g>
    <g>
      <path fill="#000000" fill-rule="evenodd" d="M-47.5 946 L-49 944.5 L-46.75 936.25 L-44.25 936.25 L-44.25 937.75 L-45.75 938.25 L-47 945.5 L-47.5 946 "></path>
    </g>
    <g>
      <path fill="#000000" fill-rule="evenodd" d="M-37.25 935.75 L-38.875 935.75 L-38 927.5 L-37.5 927 L-36 928.5 L-36 929.5 L-34 931.5 L-34 934.5 L-34.5 935 L-35.5 934 L-36.75 934.25 L-37.25 935.75 "></path>
    </g>
    <g>
      <path fill="#000000" fill-rule="evenodd" d="M201.75 838.75 L200.5 839 L200 838.5 L201.5 837 L202 837.5 L201.75 838.75 "></path>
    </g>
    <g>
      <path fill="#000000" fill-rule="evenodd" d="M190.5 876 L187 873.5 L144.5 835 L140.5 832 L138.25 830.75 L138.25 829.25 L140 829.5 L142.5 831 L152 838.5 L187.5 871 L191 874.5 L191 875.5 L190.5 876 "></path>
    </g>
    <g>
      <path fill="#000000" fill-rule="evenodd" d="M191 1266.38 L173.5 1268 L172 1266.5 L173.5 1265 L176 1265.38 L182 1265.5 L191 1264.38 L195 1263.38 L197 1262.63 L199.5 1262 L200.5 1261 L202 1262.5 L201.5 1263 L200 1263.5 L195 1265.5 L191 1266.38 "></path>
    </g>
    <g>
      <path fill="#000000" fill-rule="evenodd" d="M190 1254.38 L185 1255.63 L177 1257.75 L175 1258.5 L173 1259.5 L171.25 1259.75 L171 1258.5 L172.5 1257 L174 1256.63 L177 1255.5 L189 1252.5 L192.75 1252.25 L192.75 1253.75 L190 1254.38 "></path>
    </g>
    <g>
      <path fill="#000000" fill-rule="evenodd" d="M168.5 1253 L166.25 1253.75 L166.25 1252.25 L171 1249.63 L174 1248.38 L175.75 1248.25 L175.75 1249.75 L171 1251.63 L168.5 1253 "></path>
    </g>
    <g>
      <path fill="#000000" fill-rule="evenodd" d="M-74.5 1304 L-76.5 1302 L-79.5 1302 L-81 1300.5 L-81.25 1299.25 L-82.5 1299 L-85 1296.5 L-86 1292.5 L-85.5 1292 L-84.5 1293 L-83.5 1293 L-82 1294.5 L-82 1295.5 L-80.5 1297 L-76.5 1297 L-75 1298.5 L-73 1302.5 L-74.5 1304 "></path>
    </g>
    <g>
      <path fill="#000000" fill-rule="evenodd" d="M148.5 1289 L147 1287.5 L146.5 1285 L124.5 1228 L124.25 1225.25 L125.75 1225.25 L148.5 1285 L149 1288.5 L148.5 1289 "></path>
    </g>
    <g>
      <path fill="#000000" fill-rule="evenodd" d="M129.5 1191 L127.5 1188.5 L126 1185.5 L124 1182.5 L122.75 1180.25 L119.25 1178.75 L119.25 1177.25 L121.5 1177 L127 1182.5 L129.5 1187 L130 1188.5 L131 1189.5 L129.5 1191 "></path>
    </g>
    <g>
      <path fill="#000000" fill-rule="evenodd" d="M64.75 1180.75 L63.25 1180.75 L63.5 1179 L64.5 1177 L65.25 1175.25 L66.75 1175.25 L67 1177.5 L65 1179.5 L64.75 1180.75 "></path>
    </g>
    <g>
      <path fill="#000000" fill-rule="evenodd" d="M-5.5 1244 L-11 1241.5 L-12.5 1241 L-15.5 1238 L-17.5 1238 L-19.5 1236 L-21 1235.63 L-27 1233.5 L-29.75 1233.25 L-30 1234.5 L-30.5 1235 L-32 1233.5 L-31.75 1232.25 L-30 1231.63 L-27 1231.5 L-20.5 1233 L-18.5 1235 L-17 1235.5 L-15 1236.5 L-13.5 1237 L-10.5 1240 L-6.5 1241 L-5 1242.5 L-5 1243.5 L-5.5 1244 "></path>
    </g>
    <g>
      <path fill="#000000" fill-rule="evenodd" d="M1.75 1234.75 L0 1234.5 L-10 1229.5 L-11.5 1229 L-13.5 1227 L-16 1226.38 L-18 1225.63 L-21.75 1224.75 L-21.75 1222.25 L-20 1222.5 L-3 1230.5 L1.75 1233.25 L1.75 1234.75 "></path>
    </g>
    <g>
      <path fill="#000000" fill-rule="evenodd" d="M5.5 1219 L2.5 1216.63 L-3 1214.75 L-8.5 1214 L-10 1212.5 L-9.5 1212 L-3 1212.63 L2.5 1214 L4.5 1216 L5.5 1216 L7 1217.5 L5.5 1219 "></path>
    </g>
    <g>
      <path fill="#000000" fill-rule="evenodd" d="M5 1162 L4 1162 L4 1161 L5 1161 L5 1162 "></path>
    </g>
    <g>
      <path fill="#000000" fill-rule="evenodd" d="M238.5 1090 L233 1086.5 L231 1085.5 L229 1085.5 L227.25 1085.75 L227.25 1083.25 L231 1083.5 L233.5 1084 L235.5 1086 L238.75 1087.25 L239 1089.5 L238.5 1090 "></path>
    </g>
    <g>
      <path fill="#000000" fill-rule="evenodd" d="M138 1110.5 L134.5 1111 L133 1109.5 L133 1107.5 L135.5 1105 L138 1103.5 L140.75 1102.25 L141 1103.5 L139.5 1105 L138.5 1105 L135 1108.5 L135.5 1109 L142 1107.5 L147 1105.5 L153 1102.63 L156.5 1102 L158 1103.5 L157 1104.5 L157 1106.5 L155.5 1108 L154.25 1107.75 L154.5 1106 L155 1104.5 L154.5 1104 L153.5 1105 L152 1105.5 L142 1109.5 L138 1110.5 "></path>
    </g>
    <g>
      <path fill="#000000" fill-rule="evenodd" d="M1.75 1002.75 L0.25 1002.75 L-2.625 995 L-15.375 962 L-21.5 937 L-22.625 934 L-22.75 932.25 L-21.5 932 L-20 933.5 L-19.5 937 L-12.5 964 L-4.375 986 L1.625 1001 L1.75 1002.75 "></path>
    </g>
    <g>
      <path fill="#000000" fill-rule="evenodd" d="M-63 1078 L-62.5 1079 L-59.5 1080 L-57 1082.5 L-57.5 1083 L-61.5 1082 L-63.5 1080 L-65 1081.5 L-65.25 1105 L-64.5 1111 L-63.375 1115 L-62.5 1117 L-62 1118.5 L-58.5 1122 L-56 1122.5 L-53 1122.5 L-50 1121.38 L-48.5 1121 L-46 1118.5 L-47.25 1114 L-47 1103.5 L-44.5 1101 L-40.5 1100 L-39.5 1099 L-38 1100.5 L-38.625 1107 L-40 1113.5 L-42 1115.5 L-43 1119.5 L-40.5 1122 L-39.5 1122 L-37.5 1124 L-33.5 1124 L-31 1121.5 L-32 1120.5 L-33 1117.5 L-34 1116.5 L-32.5 1115 L-31.5 1115 L-29 1117.5 L-28 1123.5 L-23.5 1128 L-22.5 1128 L-21.5 1129 L-20.5 1128 L-17.5 1127 L-16 1125.5 L-13.5 1121 L-13 1119.5 L-15 1117.5 L-16 1112.5 L-14.5 1111 L-12.5 1111 L-12 1110.5 L-13 1109.5 L-13 1108.5 L-16.5 1105 L-17.5 1105 L-22 1100.5 L-22 1098.5 L-21.5 1098 L-18.5 1101 L-10 1107.25 L-4 1107.38 L-1.5 1107 L3 1102.5 L4.25 1099 L4.875 1093.13 L0.25 1093.13 L-0.25 1094.75 L-1.5 1095 L-3 1093.5 L-1.5 1092 L2.5 1091 L3 1090.5 L-3.5 1084 L-4.5 1084 L-5.5 1083 L-6 1083.5 L-5 1093.5 L-4 1094.5 L-5.5 1096 L-6 1095.5 L-6.25 1094 L-7.5 1089 L-8 1082.5 L-12.5 1078 L-13.75 1077.75 L-14 1075.5 L-17 1072.5 L-16.75 1071.25 L-15.5 1071 L-13 1073.5 L-12.75 1074.75 L-11.5 1075 L-10 1073.5 L-10.5 1062 L-12 1051.5 L-13 1050.5 L-12 1049.5 L-12.25 1048.25 L-13.75 1047.75 L-13 1041.5 L-14.5 1040 L-15.75 1039.75 L-15.75 1036.25 L-14.25 1035.75 L-14.375 1032 L-15.625 1025 L-16.625 1021 L-16.75 1019.25 L-14.25 1019.25 L-14 1020.5 L-13.5 1021 L-11.5 1019 L-11 1019.5 L-8 1031.5 L-7.5 1032 L-6.5 1031 L-4.5 1031 L-4 1030.5 L-5 1029.5 L-5.5 1027 L-15.5 990 L-16.875 978.25 L-15.125 978.25 L-14.5 984 L-13.25 990 L-11.625 995 L-7.5 1013 L-5.375 1020 L-2.5 1026 L-2 1027.5 L-0.5 1029 L2.75 1027.75 L2 1025.5 L-3.375 1015 L-7.5 1002 L-8.875 991.25 L-7.125 991.25 L-5.5 1002 L-3.5 1009 L-1.5 1014 L1.375 1020 L2 1022.5 L5 1025.5 L5 1026.5 L5.5 1027 L6.5 1026 L9 1025.5 L11.75 1025.25 L12 1026.5 L10 1028.5 L10.5 1029 L17 1027.5 L26 1024.38 L28 1023.5 L29.5 1023 L31 1024.5 L30.5 1025 L29 1025.38 L21 1028.63 L19.5 1029 L17.5 1031 L12.5 1032 L12 1032 L12.5 1033 L14 1033.5 L16 1033.75 L25 1031.5 L37 1029.38 L54 1023.63 L57.75 1023.25 L58 1024.5 L56.5 1026 L55 1026.5 L33 1036.63 L31.25 1037.25 L31.25 1038.75 L34 1038.5 L72 1023.5 L78 1020.5 L79.75 1020.25 L80 1021.5 L78.5 1023 L77 1023.5 L67 1028.5 L65.5 1029 L64 1030.5 L64.5 1031 L69.5 1030 L71.5 1028 L74 1027.38 L87 1021.5 L90 1020.5 L93.5 1020 L95 1021.5 L94 1024.5 L92.5 1026 L85.5 1031 L85 1031 L85.5 1032 L89 1031.5 L97 1028.5 L101 1027.38 L107 1027.5 L111 1026.5 L115.5 1026 L116.5 1025 L118 1026.5 L118.25 1027.75 L122.75 1027.25 L122.75 1028.75 L115 1031.5 L112.5 1032 L110.5 1034 L108.5 1035 L102.5 1039 L100.5 1040 L99 1041.5 L99.5 1042 L103.5 1041 L105.5 1039 L107 1038.5 L109 1037.5 L110.5 1037 L112 1038.5 L111.5 1039 L110.5 1039 L109 1040.5 L108.75 1041.75 L106 1042.63 L104 1043.5 L89 1051.38 L84 1053.5 L62 1063.63 L60.5 1064 L59 1065.5 L59.5 1066 L71 1062.5 L106 1048.5 L122 1040.5 L123.5 1040 L125 1038.5 L123.5 1037 L122.5 1038 L121.5 1038 L120.5 1039 L119 1037.5 L120.5 1036 L123 1035.63 L142 1031.5 L147.5 1031 L149 1032.5 L146.5 1035 L144.5 1036 L139 1039.5 L137.25 1039.75 L137 1038.5 L138.5 1037 L140 1037 L139.5 1036 L137 1036.63 L135 1037.38 L132.5 1038 L132 1037.5 L133 1036.5 L132.5 1036 L127.5 1037 L127 1037.5 L129 1039.5 L127.5 1041 L99 1057.5 L81 1064.63 L79.5 1065 L79 1065 L79.5 1066 L83 1065.5 L119 1052.38 L131 1046.63 L133.5 1046 L135.5 1044 L139.5 1043 L142.5 1040 L155 1036.38 L156.75 1036.25 L157 1037.5 L157.5 1038 L158.5 1037 L162 1036.5 L168.5 1034 L170 1035.5 L169.5 1036 L168 1036.38 L163 1038.5 L157 1041.5 L155.5 1042 L155 1042 L155.5 1043 L158 1042.38 L160 1041.63 L176 1036.5 L178.75 1036.25 L179 1039.5 L177 1041.5 L177.5 1042 L183 1040.38 L184.75 1040.25 L185 1042.5 L183.5 1044 L182 1044.5 L169 1049.63 L167.5 1050 L167 1050 L167.5 1051 L171 1050.5 L175 1049.5 L178.75 1049.25 L178.75 1050.75 L175.25 1051.25 L174.625 1053 L173.75 1056.75 L172 1057.5 L165.5 1061 L162 1064.5 L162.5 1065 L168 1063.75 L178.75 1063 L179 1064.5 L177.5 1066 L176 1066 L176.5 1067 L178.5 1067 L180 1068.5 L179.75 1069.75 L176.5 1071 L174.5 1073 L172 1073.63 L159.25 1078.25 L158.75 1080.75 L148 1084.63 L146 1085.5 L144.5 1086 L144 1086 L144.5 1087 L175.5 1090 L176.5 1091 L178 1089.5 L178.5 1088 L181.5 1082 L186 1075.5 L187.5 1074 L189.5 1075 L191.875 1075.75 L194 1061.5 L194 1061 L193 1061.5 L192.5 1064 L190 1071.5 L188.5 1073 L187.25 1072.75 L187.5 1070 L193 1050.5 L193 1050 L192 1050.5 L192 1051.5 L190.5 1053 L189.25 1052.75 L189.5 1051 L192 1046.5 L194 1044.5 L196.75 1031 L196.75 1029 L195.875 1024.25 L184 1022.63 L168 1022.75 L162 1024.38 L157.5 1025 L155.5 1027 L154.25 1026.75 L153.75 1025.13 L147 1024.25 L137 1020.75 L91 1015.38 L78 1013.5 L72 1013.5 L41 1017.5 L37 1018.5 L32 1019.25 L12.5 1020 L11.5 1019 L10.5 1020 L9 1018.5 L10.5 1017 L32 1017.25 L37 1016.5 L41 1015.5 L72 1011.5 L78 1011.5 L137 1018.63 L147 1022.25 L154 1023.75 L156 1023.5 L158 1022.63 L161 1021.63 L171 1019.25 L178 1016.5 L179.75 1016.25 L180 1017.5 L178.5 1019 L176 1019 L176.5 1020 L194.875 1021.75 L193.5 980 L192.375 973 L189.5 965 L189 961.5 L189 961 L188 961.5 L186.875 969.75 L185.125 969.75 L186 957.5 L187 956.5 L186 955.5 L185.375 953 L183.5 949 L183.25 947.25 L185.75 947.25 L186.625 950 L188.25 953.75 L190.75 953.75 L191.25 951.25 L192.75 951.25 L194.5 956 L194.375 962 L195.25 964.75 L197 965.25 L197 975.75 L201 975.25 L201.75 992 L203.5 1003 L205.5 1011 L206.125 1015.75 L211.875 1019.25 L210 1043 L211 1042.5 L214 1022.5 L215.5 1021 L217 1022.5 L208.75 1059.75 L207.25 1059.75 L207.5 1053 L207 1049.5 L207 1049 L206 1049.5 L205.5 1055 L204.75 1058.75 L203.25 1058.75 L204.5 1049 L204 1037 L203 1037.5 L202.625 1039 L198.5 1050 L196.5 1061 L196.5 1070 L196 1073.5 L197.5 1075 L203 1075.75 L205 1075.75 L239 1071.38 L244.875 1071.13 L245 1078 L246 1077.5 L246.5 1074 L249.5 1059 L250 1053 L249 1053.5 L249 1055.5 L248.5 1056 L247 1054.5 L249.625 1030 L249.25 1025 L249.5 1023 L250.25 1021 L251.5 1015 L252 1009.5 L255 1006.5 L255.125 1001.25 L256.875 1001.25 L257 1025 L258 1024.5 L260.5 993 L260 985 L259 985.5 L258.875 991.75 L257.125 991.75 L257.5 985 L258.5 980 L258.625 976 L255.375 955 L254.5 952 L254 948.5 L252.5 947 L251.25 946.75 L250.5 944 L244 925.5 L244.5 925 L246 926.5 L247 929.5 L247 930 L248 929.5 L247.5 927 L245.375 920 L242.5 913 L236 902.5 L234.5 901 L234 901.5 L234 902.5 L233 903.5 L236 906.5 L235.75 907.75 L234.5 908 L231 904.5 L227 898.5 L223.5 895 L221 894.375 L216.5 892 L209 884.5 L204.75 878.25 L202.25 877.75 L202 874.5 L200 872.5 L199.5 871 L195 863.5 L183 849.5 L179 845.5 L179.25 843.25 L182 843 L182 843.5 L182.5 844 L183 844 L190 851.5 L190.5 853 L193 857.5 L206.5 871 L207.5 871 L217 880.5 L217 881.5 L224.5 889 L229.5 892 L232 894.5 L241 906.5 L242.5 909 L243 910.5 L245 912.5 L245.625 915 L247.5 920 L257.5 955 L262.5 993 L261.375 1016 L259.625 1028 L260 1038.5 L261 1039.5 L260.5 1040 L259 1039.5 L257.25 1039.25 L256.75 1042.75 L255.25 1042.75 L255.5 1039 L257 1031.5 L255.5 1030 L255 1030.5 L249.5 1070 L244.75 1086.75 L242.5 1087 L241.5 1088 L240 1086.5 L242.5 1078 L243 1074.5 L244 1073.5 L243.5 1073 L203 1077.75 L197 1076.25 L195.5 1076 L193 1078.5 L192.75 1079.75 L191.25 1079.75 L190.75 1078.25 L188.5 1078 L186 1080.5 L185.5 1082 L184.5 1084 L183.75 1086 L182.5 1091 L182 1096 L183 1095.5 L183 1094.5 L185.5 1092 L186 1092.5 L185.375 1095 L180.5 1108 L179 1113.5 L180.5 1115 L181 1114.5 L181.625 1111 L182 1109.5 L182.5 1109 L184 1110.5 L183 1111.5 L183 1115.5 L181.5 1117 L178.5 1116 L177 1114.5 L177.5 1111 L179.5 1104 L180.625 1101 L181 1099.5 L182 1098.5 L181.5 1098 L180.125 1097.75 L179.875 1093.25 L178.5 1093 L177 1094.5 L176.625 1096 L175.5 1099 L172 1114.5 L175.5 1118 L178.5 1119 L179.5 1120 L180.5 1119 L184 1118.38 L185.5 1118 L188 1115.5 L193.375 1105 L194 1102.5 L195.5 1101 L196.75 1101.25 L197 1122.5 L198.5 1124 L200.5 1122 L202 1121.63 L204.75 1121.25 L204.5 1124 L203 1129.5 L204.5 1131 L207.5 1131 L208.5 1130 L209 1130.5 L209 1131.5 L207.5 1133 L204.5 1133 L204 1133.5 L206.5 1136 L212 1137.5 L215.75 1137.75 L215.75 1136.25 L214.5 1136 L211 1132.5 L211 1130.5 L212.5 1129 L213.5 1129 L214.5 1128 L217 1130.5 L217 1131.5 L220.5 1135 L228.5 1134 L231 1131.5 L230.25 1125 L229.75 1123.25 L228 1122.5 L222.5 1119 L222 1118.5 L223 1117.5 L222 1116.5 L223.5 1115 L226.75 1116.25 L227.25 1117.75 L232 1120.25 L238 1120.25 L240 1119.5 L242 1118.5 L243.5 1118 L245 1116.5 L244.125 1106 L241.75 1101.25 L240.5 1101 L238 1098.5 L238 1097.5 L233.5 1093 L227 1089.5 L225.5 1089 L224 1087.5 L224.5 1087 L228 1087.63 L230 1088.5 L234.5 1091 L240 1096.5 L240 1097.5 L241.5 1099 L242.5 1099 L244 1100.5 L246.375 1105 L247.375 1108 L247.375 1115 L247 1117.5 L244.5 1120 L243 1120.5 L237 1123.38 L233.5 1124 L233 1124.5 L234 1125.5 L233 1132.5 L229.5 1136 L228 1136.38 L224.5 1137 L223.5 1138 L222.5 1137 L220.25 1137.25 L219.75 1138.75 L218 1139.25 L210 1139.25 L205.5 1138 L199 1131.5 L198.5 1130 L196.625 1126 L195.75 1123 L194 1110.5 L194 1110 L193 1110.5 L192 1112.5 L189.5 1116 L188 1118.5 L186.5 1120 L180.5 1121 L179.5 1122 L178.5 1121 L176.5 1121 L173.5 1124 L171 1125.5 L167.5 1128 L165.5 1129 L165 1129 L165.5 1130 L168 1129.38 L174 1126.63 L176.75 1126.25 L177 1127.5 L169.5 1135 L165 1137.5 L159 1141.38 L156 1142.38 L150.5 1143 L149 1141.5 L150.5 1140 L155.5 1137 L158 1134.5 L157.5 1134 L156 1134.5 L152 1136.38 L149.5 1137 L148.5 1138 L148 1137.5 L147.625 1136 L147.25 1133.25 L150 1132.38 L165.75 1124.75 L165.75 1123.25 L163 1123.5 L159 1124.5 L154 1126.5 L130 1137.5 L128.25 1137.75 L128.25 1135.25 L137.5 1132 L139.5 1130 L142 1129.38 L159 1122.5 L163 1121.5 L166.75 1121.25 L167 1123.5 L167.5 1124 L168.5 1123 L170 1122.5 L172 1121.5 L173.5 1121 L175 1119.5 L174.5 1119 L173.5 1119 L171 1116.5 L170.5 1115 L170.25 1113 L173.5 1099 L174.625 1096 L174.75 1094.25 L173 1094.5 L171 1095.13 L159 1096.88 L157.25 1096.75 L157 1095.5 L158.5 1094 L172.5 1093 L173 1092.5 L171.5 1091 L76 1090.5 L54.5 1093 L53 1091.5 L52.75 1090 L37 1091.5 L24 1094.38 L16.5 1095 L15.5 1096 L15 1095.5 L15 1094.5 L16 1093.5 L15.5 1093 L8.25 1094.13 L7.5 1097 L6.375 1100 L4 1104.5 L1.5 1107 L-3 1109.25 L-9.75 1110.13 L-10 1112.5 L-8 1114.5 L-7 1117.5 L-5 1119.5 L-4.375 1122 L-0.625 1130 L0 1132.5 L7.5 1140 L10 1140.63 L12 1141.38 L15 1142.25 L28.5 1144 L29 1144.5 L27.5 1146 L18.5 1145 L18 1145.5 L19 1146.5 L20 1152.5 L20.5 1153 L21.5 1152 L30.5 1151 L31 1151.5 L30 1152.5 L30.5 1153 L31.75 1152.75 L32 1151.5 L33.5 1150 L34.5 1150 L36.5 1148 L48 1145.88 L138 1145.5 L152 1147.5 L158.5 1149 L165.5 1142 L179 1130.5 L182.5 1128 L185.5 1125 L187.75 1125.25 L188 1126.5 L183.5 1131 L181 1132.5 L167.5 1143 L161 1149.5 L161.5 1150 L166.5 1151 L171.5 1146 L189.5 1131 L193.75 1128.25 L194 1129.5 L188.5 1135 L185.5 1137 L166.5 1153 L162 1155.5 L160.5 1156 L160 1156.5 L161 1157.5 L161.25 1158.75 L164.5 1160 L167.5 1163 L171.75 1164.25 L175.25 1169.75 L176.5 1170 L178 1171.5 L178.5 1173 L188 1185.5 L197.5 1200 L203.5 1211 L207 1216.5 L211 1220.5 L209.5 1222 L206 1218.5 L197.5 1204 L197 1202.5 L195.5 1201 L195 1201.5 L195.5 1203 L202.5 1218 L206.625 1230 L206.75 1231.75 L205.5 1232 L205 1232 L205.5 1233 L207.75 1233.25 L209.375 1237 L212.375 1253 L213 1266.75 L211 1266.75 L210 1246 L209 1246.5 L209 1247.5 L208.5 1248 L207 1246.5 L206.5 1243 L205.5 1239 L202.625 1232 L202 1229.5 L200 1227.5 L199.5 1224 L191.375 1204 L188.5 1199 L180.5 1189 L170.5 1171 L170 1169.5 L167.5 1167 L166.5 1167 L166 1167.5 L167 1168.5 L167.5 1170 L172.5 1178 L181.5 1198 L192.625 1228 L208.375 1265 L209.25 1268.75 L213 1269.5 L218 1269.38 L233 1265.5 L240 1264.63 L255.5 1264 L257.5 1266 L259.5 1266 L262 1268.5 L262 1269.5 L259.5 1272 L257 1273.5 L249 1279.5 L246.5 1281 L233 1294.5 L233 1295.5 L225 1303.5 L225.5 1304 L231.5 1303 L232 1303.5 L230.5 1305 L227 1305.5 L221 1307.63 L215 1311.38 L211 1312.63 L196 1319.38 L193 1320.25 L181 1320.25 L177 1319.5 L172.25 1319.75 L172 1318.5 L174 1316.5 L175 1306.5 L173.5 1305 L172.5 1306 L171.5 1306 L167.5 1310 L167 1309.5 L167 1307.5 L169.5 1305 L170.5 1305 L173 1302.5 L172.5 1301 L170.5 1297 L168.5 1294 L161.5 1285 L159.5 1282 L149.5 1261 L141.5 1249 L140.5 1247 L139.75 1245.25 L137.25 1244.75 L136.5 1242 L134.5 1237 L124 1219.5 L122 1217.5 L122 1215.5 L120.5 1214 L110 1212.5 L101.5 1212 L100.5 1211 L99.5 1212 L84.5 1212 L83.5 1211 L82.5 1212 L81 1212 L81.5 1213 L90 1213.5 L107.75 1216.25 L107.75 1217.75 L105 1217.63 L90 1215.63 L76.5 1215 L75 1216.5 L75 1217.5 L74 1218.5 L74.5 1219 L76.5 1219 L78 1220.5 L77.5 1221 L70.5 1221 L69.5 1220 L68.5 1221 L67 1221.5 L61.5 1225 L61 1225 L61.5 1226 L72.75 1226 L72.75 1228 L62.5 1228 L60.5 1230 L55.5 1233 L50 1238.5 L49.5 1240 L44.5 1249 L44 1250.5 L42.5 1252 L41 1250.5 L42 1249.5 L44.5 1245 L45 1243.5 L44.5 1243 L34.5 1253 L33.5 1253 L27 1259.5 L19 1269.5 L16.625 1273 L11.75 1287.75 L10.25 1287.75 L11 1282.5 L9.5 1281 L7.5 1283 L7 1282.5 L9.75 1273 L10.5 1271 L10.75 1269.25 L9.5 1269 L3 1275.5 L-1.5 1284 L-2 1285.5 L-0.5 1287 L3 1287.63 L4.75 1288.25 L7.5 1293 L7.75 1294.75 L6.5 1295 L5 1293.5 L3.75 1290.25 L-1 1288.38 L-2.75 1288.25 L-3 1289.5 L-2 1290.5 L-3.5 1292 L-4.5 1291 L-8 1290.5 L-30 1285.25 L-50.5 1278 L-53.5 1275 L-55 1274.5 L-57 1273.5 L-59 1272.75 L-64.5 1272 L-66 1270.5 L-65.75 1269.13 L-61 1269 L-61.5 1268 L-63 1267.75 L-74.5 1268 L-75.5 1269 L-76.5 1268 L-78 1268.25 L-84 1269.75 L-88.5 1272 L-95 1278.5 L-95.5 1280 L-97.375 1284 L-98.375 1287 L-98.375 1293 L-98 1295.5 L-93.5 1300 L-89 1302.38 L-86 1303.38 L-77.5 1305 L-76.5 1304 L-75.5 1305 L-19.5 1305 L-18.5 1304 L-17.5 1305 L-13.5 1305 L-12.5 1304 L-11.5 1305 L-6.5 1306 L-4.5 1308 L2 1311.38 L5 1312.63 L6.5 1313 L7.5 1312 L9 1313.5 L8.5 1314 L7 1314.5 L5 1314.63 L1 1313.38 L-4 1310.63 L-7 1309.63 L-21 1307.38 L-25 1307.5 L-32 1309.5 L-37 1311.38 L-46.5 1314 L-47 1314 L-46.5 1315 L-41 1316.5 L-36 1317.25 L2 1318.5 L10.5 1320 L13 1322.5 L12.5 1323 L2 1320.5 L-37 1319.13 L-41 1318.5 L-46 1317.25 L-48 1316.5 L-50 1315.5 L-52 1315.25 L-57 1316.25 L-72 1316.25 L-75 1315.38 L-77 1314.5 L-78.5 1314 L-80.5 1312 L-83 1311.38 L-90 1307.5 L-95.75 1303.75 L-96.5 1302 L-99.25 1297.25 L-100.5 1297 L-102 1295.5 L-105.25 1290 L-105.25 1282 L-104.5 1280 L-103.5 1278 L-100 1272.5 L-97 1269.5 L-97.5 1269 L-101 1269.5 L-107.5 1272 L-110 1274.5 L-108 1276.5 L-107 1278.5 L-106.25 1280.75 L-107.5 1281 L-109 1279.5 L-109 1278.5 L-112 1275.5 L-112 1273.5 L-108.5 1270 L-107 1269.63 L-81 1262.88 L-65.5 1261 L-64 1259.5 L-63.5 1257 L-61.375 1251 L-59.5 1247 L-59.25 1245.25 L-61 1244.75 L-60.25 1234 L-59.375 1231 L-58.625 1229 L-58 1226.5 L-56 1224.5 L-55.625 1223 L-53.5 1218 L-45 1202.5 L-37.5 1191 L-29 1179.5 L-28 1177.5 L-26.5 1176 L-24 1175.38 L-22.25 1175.25 L-22.5 1177 L-23 1178.5 L-22.5 1179 L-17.5 1174 L-16.5 1174 L-15.5 1175 L-14.5 1174 L-13.5 1174 L-12.5 1173 L-12 1173.5 L-14 1176.5 L-23 1187.5 L-22.5 1188 L-21.5 1187 L-20 1186.5 L-17.5 1185 L-14 1182.5 L-11.5 1181 L-10 1179.5 L-10.5 1179 L-11.75 1178.75 L-12 1177.5 L-9.5 1175 L-7.5 1174 L-2 1170.5 L-0.5 1170 L0 1169.5 L-1 1168.5 L-1.5 1165 L-6.5 1143 L-9 1134.5 L-7.5 1133 L-7 1133.5 L-5.375 1140 L4.25 1166.75 L5.5 1167 L7 1165.5 L6.75 1164 L3.5 1151 L-0.5 1141 L-2.5 1137 L-2.75 1135.25 L-1.5 1135 L-1 1134.5 L-2 1133.5 L-2.625 1131 L-5.5 1124 L-8.5 1118 L-9 1116.5 L-9 1116 L-10 1116.5 L-10.375 1118 L-12.5 1123 L-15.25 1127.75 L-20 1130.5 L-22 1130.63 L-24.5 1130 L-29 1125.5 L-29.25 1124.25 L-30.5 1124 L-32.5 1126 L-38 1125.25 L-41.5 1124 L-44 1121.5 L-44.25 1120.25 L-45.5 1120 L-49.5 1124 L-53 1124.5 L-57 1124.38 L-59 1123.5 L-60.5 1123 L-64 1119.5 L-64.375 1118 L-65.5 1115 L-66.5 1111 L-67.25 1106 L-67 1080.5 L-64.5 1078 L-63 1078 M185 849 L185 848 L184 848 L184 849 L185 849 M201 869 L201 868 L200 868 L200 869 L201 869 M204.5 873 L205 872.5 L201.5 869 L201 869.5 L201 870.5 L203.5 873 L204.5 873 M219.75 890.75 L218 887.5 L213.5 882 L211 878.5 L206.5 874 L205 875.5 L206 876.5 L209 881.5 L218.5 891 L219.75 890.75 M224 891 L224 890 L223 890 L223 891 L224 891 M221 892 L221 891 L220 891 L220 892 L221 892 M225 892 L225 891 L224 891 L224 892 L225 892 M227.5 894 L228 893 L226.5 893 L225.5 892 L225 892.5 L225.25 893.75 L227.5 894 M229.5 899 L230 898.5 L230 897.5 L231 896.5 L230.5 896 L228.25 896.75 L229.5 899 M231.5 901 L233 899.5 L233 898.5 L232.5 898 L231.5 899 L230.5 899 L230 899.5 L231.5 901 M234 901 L234 900 L233 900 L233 901 L234 901 M249 933 L249 931.5 L248 931 L248 932 L249 933 M250 935 L250 933.5 L249 933 L249 934 L250 935 M251 938 L251 936.5 L250 936 L250 937 L251 938 M252 941 L252 940 L251 940 L251 941 L252 941 M190 958 L190 957 L189 957 L189 958 L190 958 M191 960 L191 959 L190 959 L190 960 L191 960 M-12 1022 L-12 1021 L-13 1021 L-13 1022 L-12 1022 M-10.125 1033.75 L-10.625 1029 L-12 1024.5 L-13.5 1023 L-14 1023.5 L-11.75 1033.75 L-10.125 1033.75 M-6.5 1036 L-5.5 1035 L-4.5 1035 L-3 1033.5 L-3.5 1033 L-5.5 1033 L-7 1035 L-6.5 1036 M-8.5 1037 L-8 1036.5 L-9.5 1035 L-10.5 1036 L-11.5 1036 L-12 1037 L-8.5 1037 M-2 1038.5 L-2 1036.5 L-2.5 1036 L-3.5 1037 L-4.5 1037 L-5 1037.5 L-4 1038.5 L-4 1039.5 L-3.5 1040 L-2 1038.5 M-9 1042.5 L-7.25 1041.75 L-7.25 1039.25 L-9.5 1039 L-11 1040.5 L-10.75 1042.75 L-9 1042.5 M9 1030 L9 1029 L8 1029 L8 1030 L9 1030 M2 1031 L2 1030 L1 1030 L1 1031 L2 1031 M0.5 1032 L1 1031 L-0.5 1031 L-1 1032 L0.5 1032 M-1 1033 L-1 1032 L-2 1032 L-2 1033 L-1 1033 M56 1033 L56 1032 L55 1032 L55 1033 L56 1033 M2.5 1036 L4.5 1035 L6 1033.5 L5.5 1033 L4 1033.5 L2 1034.5 L0.25 1035.25 L0.25 1036.75 L2.5 1036 M11.5 1034 L12 1033 L10.5 1033 L10 1034 L11.5 1034 M54 1034 L54 1033 L53 1033 L53 1034 L54 1034 M10 1035 L10 1034 L9 1034 L9 1035 L10 1035 M61.5 1035 L62 1034 L60.5 1034 L60 1035 L61.5 1035 M8 1036 L8 1035 L7 1035 L7 1036 L8 1036 M6 1041.5 L13 1037.63 L15.5 1037 L16 1036.5 L14.5 1035 L13 1035.5 L7 1039.5 L5.5 1040 L4 1041.5 L4.5 1042 L6 1041.5 M53.5 1039 L54.5 1038 L56 1037.5 L58 1036.5 L59.5 1036 L60 1035 L59.5 1035 L55 1035.75 L53.25 1036.25 L53 1038.5 L53.5 1039 M63 1038.5 L73 1035.5 L76.5 1035 L78.5 1033 L80 1032.5 L82.5 1031 L86.5 1028 L89.5 1026 L93 1022.5 L92.5 1022 L90 1022.5 L82 1025.63 L80.5 1026 L80 1027 L84.5 1027 L85 1027.5 L83.5 1029 L64 1036.38 L61.5 1037 L60 1038.5 L60.5 1039 L63 1038.5 M43.5 1039 L44 1038 L42.5 1038 L42 1039 L43.5 1039 M40.5 1040 L41 1039 L38.5 1039 L38 1040 L40.5 1040 M59 1040 L59 1039 L58 1039 L58 1040 L59 1040 M36.5 1041 L37 1040 L34.5 1040 L34 1041 L36.5 1041 M46 1041 L46 1040 L45 1040 L45 1041 L46 1041 M55 1041 L55 1040 L54 1040 L54 1041 L55 1041 M79 1028 L79 1027 L78 1027 L78 1028 L79 1028 M96 1034.63 L109 1031.38 L111 1030.5 L112.5 1030 L114 1028.5 L113.5 1028 L97 1032.5 L94.5 1033 L93 1034.5 L93.5 1035 L96 1034.63 M63 1032 L63 1031 L62 1031 L62 1032 L63 1032 M85 1033 L85 1032 L84 1032 L84 1033 L85 1033 M106 1035 L106 1034 L105 1034 L105 1035 L106 1035 M92 1036 L92 1035 L91 1035 L91 1036 L92 1036 M102.5 1037 L104 1035.5 L103.5 1035 L101.5 1035 L101 1035.5 L102.5 1037 M86 1037 L86 1036 L85 1036 L85 1037 L86 1037 M86.5 1047 L87.5 1046 L90.5 1045 L92 1043.5 L92 1042.5 L95.5 1039 L99.5 1037 L100 1036 L99.5 1036 L92 1037.5 L87.5 1038 L84.5 1041 L80.5 1043 L79 1044.5 L79.5 1045 L85.75 1045.63 L86.5 1047 M82.5 1040 L83 1039 L81.5 1039 L81 1040 L82.5 1040 M64.5 1041 L65 1040 L63.5 1040 L63 1041 L64.5 1041 M63 1052.5 L77.5 1043 L79.5 1042 L81 1040.5 L80.5 1040 L76 1040.63 L69.25 1043.25 L68.75 1044.75 L67 1045.5 L65 1046.5 L61 1046.38 L58.5 1047 L53.5 1052 L52 1052.5 L33 1062.5 L31.5 1063 L31 1064 L31.5 1064 L34 1063.5 L61 1053.38 L63 1052.5 M144.5 1034 L145 1033 L143.5 1033 L143 1034 L144.5 1034 M143 1035 L143 1034 L142 1034 L142 1035 L143 1035 M134.5 1036 L135 1035 L133.5 1035 L133 1036 L134.5 1036 M141.5 1036 L142 1035 L140.5 1035 L140 1036 L141.5 1036 M155 1041 L155 1040 L154 1040 L154 1041 L155 1041 M167 1044.5 L170.5 1044 L172.5 1042 L173.5 1042 L175 1040.5 L174.5 1040 L168 1041.5 L164.5 1042 L163 1043.5 L164.5 1045 L167 1044.5 M199 1021 L199 1020.5 L200 1012.5 L201 1011.5 L200 1010.5 L199.375 999 L198.375 992 L197 986.5 L196 986 L198 1020.5 L199 1021 M204 1024 L204 1018.5 L203 1018 L203 1023.5 L204 1024 M201 1022 L201 1021 L200 1021 L200 1022 L201 1022 M208 1027 L208 1021.5 L207 1021 L207 1026.5 L208 1027 M202 1030 L202 1025.5 L201 1025 L201 1029.5 L202 1030 M198 1039 L198 1037.5 L197 1037 L197 1038 L198 1039 M255 1024 L255 1022.5 L254 1022 L254 1023 L255 1024 M256 1029 L256 1025.5 L255 1025 L255 1028.5 L256 1029 M-3 1044 L-3 1043 L-4 1043 L-4 1044 L-3 1044 M-6 1046 L-6 1045 L-7 1045 L-7 1046 L-6 1046 M-8.25 1048.75 L-8.25 1046.25 L-9.75 1046.25 L-9.75 1048.75 L-8.25 1048.75 M-1 1065.5 L1 1064.5 L2.5 1064 L3 1063.5 L1.5 1062 L-1.75 1061.75 L-3 1057.5 L-1 1055.5 L-3.5 1053 L-4.5 1054 L-5.5 1053 L-7.5 1053 L-9 1054.5 L-8 1069.5 L-7.5 1070 L-5.5 1068 L-1 1065.5 M20 1089.25 L29 1087.25 L30.5 1087 L31 1086 L24 1085.5 L18 1084.25 L16 1084.13 L5.5 1085 L4 1083.5 L4.25 1082 L15 1081.38 L27 1079.63 L41.5 1079 L42 1078 L39.5 1078 L38 1076.5 L37.75 1073.25 L36.25 1072.75 L36.25 1071.25 L38 1070.5 L40 1069.5 L41.5 1069 L43 1067.5 L42.5 1067 L41 1067.5 L22 1076.5 L20.25 1076.75 L20 1075.5 L23.5 1072 L25 1071.63 L44 1063.5 L45.5 1063 L46 1062 L45.5 1062 L43 1062.5 L6 1076.63 L4.25 1076.75 L4.25 1074.25 L9 1071.5 L35 1059.5 L36.5 1059 L37 1058 L36.5 1058 L34 1058.63 L4 1070.5 L-1 1073.5 L-3.5 1073 L-5.5 1072 L-7 1073.5 L-7 1079.5 L-4.5 1082 L-1.5 1083 L5.5 1090 L20 1089.25 M-9.5 1078 L-9 1077.5 L-9.25 1076.25 L-10.5 1076 L-11 1076.5 L-9.5 1078 M-44.5 1116 L-43 1114.5 L-42.625 1113 L-41.5 1110 L-40.625 1107 L-40.125 1102.25 L-42.5 1102 L-45 1104.5 L-45.25 1106 L-45.25 1114.5 L-44.5 1116 M33 1042 L33 1041 L32 1041 L32 1042 L33 1042 M62.5 1042 L63 1041 L62.5 1041 L58 1042.25 L50 1043.63 L46 1043.38 L44.5 1043 L43.5 1044 L41.5 1042 L39.5 1044 L35 1046.5 L33.5 1047 L31 1049.5 L31 1050.5 L30 1051.5 L30.5 1052 L33.5 1051 L34.5 1050 L35 1050.5 L35 1052.5 L33.5 1054 L32.5 1054 L32 1055 L32.5 1055 L35 1054.5 L56 1046.38 L62.5 1042 M-1 1043 L-1 1042 L-2 1042 L-2 1043 L-1 1043 M3.5 1043 L4 1042 L2.5 1042 L2 1043 L3.5 1043 M6.5 1061 L9.5 1059 L25 1050.5 L30.5 1047 L32.5 1046 L34 1044.5 L31.5 1042 L29 1042.5 L18 1046.5 L10 1051.5 L8.5 1052 L8 1053 L9.5 1053 L10 1053.5 L8.5 1055 L7.25 1055.25 L7 1056.5 L4.5 1059 L3.5 1059 L3 1059.5 L4 1060.5 L4.25 1061.75 L6.5 1061 M38 1043 L38 1042 L37 1042 L37 1043 L38 1043 M18.5 1044 L19 1043 L16.5 1043 L16 1044 L18.5 1044 M35.5 1044 L36 1043 L34.5 1043 L34 1044 L35.5 1044 M0 1045 L0 1044 L-1 1044 L-1 1045 L0 1045 M15.5 1045 L16 1044 L14.5 1044 L14 1045 L15.5 1045 M11 1049 L11 1048 L10 1048 L10 1049 L11 1049 M9.5 1050 L10 1049 L8.5 1049 L8 1050 L9.5 1050 M5.5 1052 L6.5 1051 L7.5 1051 L8 1050 L7.5 1050 L5.25 1050.75 L5.5 1052 M0.5 1055 L1.5 1054 L2.75 1053.75 L2.75 1052.25 L0.25 1052.25 L0 1054.5 L0.5 1055 M30 1053 L30 1052 L29 1052 L29 1053 L30 1053 M7 1054 L7 1053 L6 1053 L6 1054 L7 1054 M23 1055 L23 1054 L22 1054 L22 1055 L23 1055 M21 1056 L21 1055 L20 1055 L20 1056 L21 1056 M32 1056 L32 1055 L31 1055 L31 1056 L32 1056 M43 1056 L43 1055 L42 1055 L42 1056 L43 1056 M19 1057 L19 1056 L18 1056 L18 1057 L19 1057 M40.5 1057 L41 1056 L39.5 1056 L39 1057 L40.5 1057 M38.5 1058 L39 1057 L37.5 1057 L37 1058 L38.5 1058 M22 1059 L22 1058 L21 1058 L21 1059 L22 1059 M54.5 1059 L55 1058 L53.5 1058 L53 1059 L54.5 1059 M19 1060 L19 1059 L18 1059 L18 1060 L19 1060 M27 1060 L27 1059 L26 1059 L26 1060 L27 1060 M52.5 1060 L53 1059 L51.5 1059 L51 1060 L52.5 1060 M23.5 1061 L24 1060 L22.5 1060 L22 1061 L23.5 1061 M49 1061.38 L50.5 1061 L51 1060 L50.5 1060 L46.5 1061 L46 1062 L49 1061.38 M60 1061 L60 1060 L59 1060 L59 1061 L60 1061 M21.5 1062 L22 1061 L20.5 1061 L20 1062 L21.5 1062 M58 1062 L58 1061 L57 1061 L57 1062 L58 1062 M19 1063 L19 1062 L18 1062 L18 1063 L19 1063 M55.5 1063 L56 1062 L54.5 1062 L54 1063 L55.5 1063 M11.5 1064 L12 1063 L10.5 1063 L10 1064 L11.5 1064 M53.5 1064 L54 1063 L52.5 1063 L52 1064 L53.5 1064 M10 1065 L10 1064 L9 1064 L9 1065 L10 1065 M30.5 1065 L31 1064 L29.5 1064 L29 1065 L30.5 1065 M51.5 1065 L52 1064 L50.5 1064 L50 1065 L51.5 1065 M8 1066 L8 1065 L7 1065 L7 1066 L8 1066 M28 1066 L28 1065 L27 1065 L27 1066 L28 1066 M56 1066 L56 1065 L55 1065 L55 1066 L56 1066 M6 1067 L6 1066 L5 1066 L5 1067 L6 1067 M26 1067 L26 1066 L25 1066 L25 1067 L26 1067 M64 1070.38 L65.5 1070 L67.5 1068 L70 1067.38 L74 1065.5 L102 1053.5 L103.5 1053 L104 1052 L103.5 1052 L101 1052.63 L97 1054.5 L66 1066.38 L57 1068.75 L55.25 1068.75 L54.75 1066.25 L52 1066.63 L45 1069.5 L43.5 1070 L41 1072.5 L40.5 1074 L40.25 1075.75 L42 1076.5 L44 1076.75 L50 1075.38 L61 1071.5 L64 1070.38 M4 1068 L4 1067 L3 1067 L3 1068 L4 1068 M2 1069 L2 1068 L1 1068 L1 1069 L2 1069 M79.75 1078 L80 1076.5 L81.5 1075 L87 1071.5 L108 1061.5 L109.5 1061 L110 1060 L109.5 1060 L53 1076.5 L50.5 1077 L50 1078 L79.75 1078 M41 1083.25 L56.5 1081 L57 1080 L20.5 1082 L20 1083 L41 1083.25 M59 1083 L59 1082 L58 1082 L58 1083 L59 1083 M54.5 1084 L55 1083 L53.5 1083 L53 1084 L54.5 1084 M94 1083.63 L113.5 1082 L114 1081 L68.25 1080 L67.75 1081.75 L65 1082.5 L61.5 1083 L61 1084 L76 1083.38 L83 1082.38 L86.75 1082.25 L87.25 1083.88 L94 1083.63 M48 1088 L48 1087 L47 1087 L47 1088 L48 1088 M34.5 1089 L35 1088 L33.5 1088 L33 1089 L34.5 1089 M18.5 1093 L19 1092 L16.5 1092 L16 1093 L18.5 1093 M96 1045 L96 1044 L95 1044 L95 1045 L96 1045 M78.5 1046 L79 1045 L77.5 1045 L77 1046 L78.5 1046 M77.5 1049 L78 1048 L76.5 1048 L76 1049 L77.5 1049 M68 1054.63 L75.75 1051.75 L75.75 1049.13 L71.5 1049 L70 1050.5 L69.75 1051.75 L68.5 1052 L66 1054.5 L66.5 1055 L68 1054.63 M110 1050 L110 1049 L109 1049 L109 1050 L110 1050 M108 1051 L108 1050 L107 1050 L107 1051 L108 1051 M105.5 1052 L106 1051 L104.5 1051 L104 1052 L105.5 1052 M65.5 1056 L66 1055 L64.5 1055 L64 1056 L65.5 1056 M63.5 1057 L64 1056 L62.5 1056 L62 1057 L63.5 1057 M69 1057 L69 1056 L68 1056 L68 1057 L69 1057 M123 1057 L123 1056 L122 1056 L122 1057 L123 1057 M67 1058 L67 1057 L66 1057 L66 1058 L67 1058 M121.5 1058 L122 1057 L120.5 1057 L120 1058 L121.5 1058 M127 1058.38 L151 1048.5 L152.5 1048 L153 1047.5 L151.5 1046 L148.5 1045 L148 1044.5 L149.5 1043 L150.5 1043 L151 1042 L150.5 1042 L143.5 1043 L142 1044.5 L141.75 1045.75 L140.5 1046 L139 1047.5 L139 1049.5 L137.5 1051 L136 1051.5 L127 1056.5 L125.5 1057 L124 1058.5 L124.5 1059 L127 1058.38 M91 1073.38 L116.75 1062.75 L117 1061.5 L120 1058.5 L119.5 1058 L118 1058.5 L90 1072.5 L88.5 1073 L88 1074 L91 1073.38 M111.5 1060 L112 1059 L110.5 1059 L110 1060 L111.5 1060 M123.5 1060 L124 1059 L122.5 1059 L122 1060 L123.5 1060 M122 1061 L122 1060 L121 1060 L121 1061 L122 1061 M127 1063.5 L148 1053.5 L149.5 1053 L151 1051.5 L150.5 1051 L125 1061.5 L120 1063.63 L118.5 1064 L117 1065.5 L117.25 1066.75 L121 1066.38 L125 1064.5 L127 1063.5 M78.5 1067 L79 1066 L77.5 1066 L77 1067 L78.5 1067 M127 1074.63 L149 1064.5 L150.5 1064 L151 1063 L150.5 1063 L148 1063.5 L121 1072.5 L118 1073.38 L113.25 1073.88 L113 1071.5 L115 1069.5 L114.75 1066.25 L113 1066.38 L96 1073.5 L91 1075.5 L87 1076.5 L83.5 1077 L83 1078 L115 1078.5 L120 1077.38 L123 1076.38 L125 1075.5 L127 1074.63 M118 1071.63 L121 1070.5 L123.5 1070 L124 1069 L123.5 1069 L117.5 1070 L116 1071.5 L116.5 1072 L118 1071.63 M87 1075 L87 1074 L86 1074 L86 1075 L87 1075 M118.5 1081 L119 1080 L115.5 1080 L115 1081 L118.5 1081 M140.5 1087 L142.5 1085 L143.5 1085 L145.5 1083 L148 1082.5 L151 1081.38 L152.5 1081 L153 1080 L147 1080.63 L141 1082.5 L134.5 1084 L133 1082.5 L134 1081.5 L133.5 1081 L106 1085.5 L101.5 1086 L101 1087 L140.5 1087 M85.5 1085 L86 1084 L84.5 1084 L84 1085 L85.5 1085 M79.5 1086 L80 1085 L77.5 1085 L77 1086 L79.5 1086 M74.5 1087 L75 1086 L71.5 1086 L71 1087 L74.5 1087 M87.5 1087 L88 1086 L86.5 1086 L86 1087 L87.5 1087 M68.5 1088 L69 1087 L64.5 1087 L64 1088 L68.5 1088 M152.5 1042 L153 1041 L151.5 1041 L151 1042 L152.5 1042 M154 1044 L154 1043 L153 1043 L153 1044 L154 1044 M162 1044 L162 1043 L161 1043 L161 1044 L162 1044 M176.5 1045 L177 1044 L175.5 1044 L175 1045 L176.5 1045 M157 1046 L157 1045 L156 1045 L156 1046 L157 1046 M164 1046 L164 1045 L163 1045 L163 1046 L164 1046 M174.5 1046 L175 1045 L172.5 1045 L172 1046 L174.5 1046 M154.5 1047 L155 1046 L153.5 1046 L153 1047 L154.5 1047 M171.5 1047 L172 1046 L170.5 1046 L170 1047 L171.5 1047 M135 1048 L135 1047 L134 1047 L134 1048 L135 1048 M165.5 1048 L166 1047 L164.5 1047 L164 1048 L165.5 1048 M133 1049 L133 1048 L132 1048 L132 1049 L133 1049 M131 1065.63 L143 1062.5 L164 1054.38 L165.5 1054 L166 1053 L160.5 1053 L159 1051.5 L159.5 1051 L163.5 1049 L164 1048 L163.5 1048 L160 1048.63 L157.5 1050 L154.5 1052 L130 1064.5 L128.5 1065 L128 1066 L131 1065.63 M131 1050 L131 1049 L130 1049 L130 1050 L131 1050 M154.5 1050 L155 1049 L153.5 1049 L153 1050 L154.5 1050 M152.5 1051 L153 1050 L151.5 1050 L151 1051 L152.5 1051 M165 1060 L165 1059 L164 1059 L164 1060 L165 1060 M157 1061 L157 1060 L156 1060 L156 1061 L157 1061 M137 1073.5 L152 1068.75 L156.75 1067.88 L157.25 1065.25 L158.5 1065 L163 1060.5 L162.5 1060 L161 1060.5 L146 1068.5 L136 1072.5 L134.5 1073 L134 1074 L137 1073.5 M154.5 1062 L155 1061 L153.5 1061 L153 1062 L154.5 1062 M152.5 1063 L153 1062 L151.5 1062 L151 1063 L152.5 1063 M152 1076.63 L156 1075.5 L159.5 1075 L161 1073.5 L161 1072.5 L162.5 1071 L165 1070.38 L173.5 1066 L174 1065 L168.25 1065.13 L167.75 1066.75 L166 1067.5 L153 1074.5 L151.5 1075 L150 1076.5 L150.5 1077 L152 1076.63 M176 1070 L176 1069 L175 1069 L175 1070 L176 1070 M143 1077.5 L154 1071.5 L155.5 1071 L156 1070 L155.5 1070 L153 1070.5 L137 1075.5 L133.5 1076 L133 1077 L143 1077.5 M133 1075 L133 1074 L132 1074 L132 1075 L133 1075 M130.5 1078 L131 1077 L128.5 1077 L128 1078 L130.5 1078 M155.5 1080 L156 1079 L153.5 1079 L153 1080 L155.5 1080 M181 1091 L181 1088.5 L180 1088 L180 1090.5 L181 1091 M176 1094 L176 1093 L175 1093 L175 1094 L176 1094 M200 1042 L200 1041 L199 1041 L199 1042 L200 1042 M210 1048 L210 1043.5 L209 1043 L209 1047.5 L210 1048 M251 1052 L251 1047.5 L250 1047 L250 1051.5 L251 1052 M195 1061 L195 1054.5 L194 1054 L194 1054.5 L193.375 1057 L193.5 1059.5 L195 1061 M245 1081 L245 1078.5 L244 1078 L244 1080.5 L245 1081 M-10 1110 L-10 1109 L-11 1109 L-11 1110 L-10 1110 M-12 1118 L-12.125 1113.25 L-13.75 1113.25 L-13.625 1115 L-13 1117.5 L-12 1118 M3 1139 L3 1138 L2 1138 L2 1139 L3 1139 M5 1146 L5.25 1142.25 L6.5 1142 L7 1141 L5.5 1141 L3.5 1139 L3 1139.5 L4 1145.5 L5 1146 M15 1161 L15 1160.5 L14.25 1156 L14.25 1154.25 L16 1153.75 L16 1145.5 L14.5 1144 L11 1143.38 L9 1142.5 L7.25 1142.25 L7.5 1145 L11.375 1155 L12 1157.5 L14 1160 L15 1161 M127 1169.5 L141 1166.38 L149 1163.38 L154 1160.5 L155.5 1160 L157 1158.5 L156.625 1157 L155.375 1154 L155.25 1152.25 L156.5 1152 L157 1151.5 L155.5 1150 L146 1148.5 L48 1147.88 L44 1148.5 L39 1149.75 L37.5 1150 L37 1151 L37.5 1151 L39 1151.38 L44 1153.5 L45.5 1154 L47.5 1156 L48.5 1155 L100.75 1153 L100.75 1155 L63.5 1155 L63 1156 L121.5 1157 L123 1158.5 L122.5 1159 L60.5 1159 L59 1160.5 L59.25 1161.75 L61 1162.5 L63 1163.5 L70 1166.38 L72.5 1167 L74.5 1169 L78 1170.25 L86 1170.38 L95.5 1169 L96 1168.5 L94.5 1167 L90.5 1165 L89 1163.5 L89.5 1163 L90.5 1163 L91 1162.5 L90 1161.5 L90.5 1161 L141.5 1159 L142.5 1158 L143 1158.5 L143 1159.5 L141.5 1161 L129 1162.38 L92.5 1162 L92 1162.5 L95.5 1166 L99 1166.63 L100.75 1167.25 L100.75 1168.75 L96 1170.38 L91 1171.5 L86.5 1172 L86 1173 L86.5 1173 L95 1174.5 L101 1174.5 L121 1171.25 L123 1170.63 L127 1169.5 M6 1150 L6 1148.5 L5 1148 L5 1149 L6 1150 M40.5 1155 L41 1154 L40.5 1154 L39 1153.5 L37 1152.63 L34.5 1152 L34 1152.5 L35.5 1154 L40.5 1155 M24.5 1161 L27 1158.5 L27 1157.5 L28.5 1156 L29.5 1157 L30.5 1157 L31 1156.5 L29 1154.5 L30 1153.5 L29.5 1153 L22.5 1154 L21 1155.5 L22 1156.5 L23.25 1160.75 L24.5 1161 M17.5 1163 L18.5 1162 L20.75 1161.75 L20.5 1159 L20 1156.5 L18.5 1155 L17.125 1155.25 L17 1162.5 L17.5 1163 M10.5 1165 L11.5 1164 L13.5 1164 L14 1163.5 L12 1161.5 L11.5 1160 L10.5 1158 L10 1156.5 L9 1156 L9 1156.5 L10 1164.5 L10.5 1165 M33 1158 L33 1157 L32 1157 L32 1158 L33 1158 M0 1160 L0 1159 L-1 1159 L-1 1160 L0 1160 M37 1164.75 L47 1161.5 L49.5 1161 L50 1160 L49.5 1160 L46 1159.5 L43 1159.38 L34.5 1161 L33 1162.5 L33.25 1163.75 L37 1164.75 M1.5 1169 L3 1167.5 L2 1166.5 L1 1161.5 L0 1161 L0 1161.5 L1 1168.5 L1.5 1169 M176.5 1301 L178.5 1299 L180 1298.5 L192 1292.63 L194.5 1292 L196.5 1290 L198 1289.5 L208 1283.63 L210.75 1282.75 L210.5 1280 L210 1277.5 L209.5 1277 L208.5 1278 L207.25 1277.75 L207 1276.5 L209 1274.5 L208.5 1272 L195.375 1239 L195 1237.5 L194 1237 L195 1248.5 L192.5 1251 L192 1250.5 L192 1249.5 L191 1248.5 L193 1246.5 L191.375 1235 L188.625 1224 L171.5 1188 L166.5 1180 L163.625 1174 L163.25 1171.25 L164.75 1171.25 L165 1173.5 L167 1175.5 L167.5 1177 L177.5 1196 L178 1197.5 L179 1198 L179 1197.5 L178.375 1195 L172.5 1182 L169 1176.5 L166.5 1172 L166 1170.5 L163.5 1168 L162.5 1169 L161 1169.5 L148.5 1176 L146.5 1178 L144 1178.63 L142 1178.5 L140.25 1177.75 L140.25 1176.25 L142 1176.5 L144 1176.5 L146 1175.5 L147.5 1175 L150.5 1172 L153 1171.38 L161.5 1167 L162 1166.5 L160 1164.5 L158.75 1161.25 L156.5 1161 L154.5 1163 L153.5 1163 L151.5 1165 L149 1165.63 L145 1167.38 L142 1168.38 L121 1173.38 L101 1176.5 L54.5 1173 L52 1170.5 L52 1168.5 L54.5 1166 L55.75 1166.25 L56 1167.5 L54 1169.5 L55.5 1171 L75.5 1172 L76 1171 L75.5 1171 L74 1170.5 L59 1163.63 L56 1162.63 L50.25 1162.13 L50 1163.5 L48.5 1165 L43 1165.5 L37 1166.75 L35 1166.75 L30.5 1166 L29 1167.5 L29.5 1168 L30.75 1168.25 L30.75 1169.75 L28 1169.38 L26 1169.5 L17.5 1175 L11 1178.5 L9.25 1179.25 L9.5 1181 L10.375 1183 L11 1185.5 L10.5 1186 L8 1183.5 L8 1182.5 L6.5 1181 L5 1181.5 L-14 1191.5 L-21 1194.5 L-22.5 1195 L-26 1198.5 L-27.5 1201 L-37 1213.5 L-44.5 1228 L-50 1236.5 L-57.5 1251 L-57.75 1252.88 L-53 1253.75 L-51.25 1254.25 L-50.375 1258 L-49.75 1260 L-41 1260.75 L-38 1261.63 L-36 1262.38 L-32.5 1263 L-29.5 1266 L-22.5 1271 L-20 1273.5 L-20.25 1274.75 L-23.5 1273 L-28 1269.5 L-30.5 1268 L-33.5 1265 L-36.5 1265 L-38.5 1263 L-49.875 1262.13 L-49.875 1266.75 L-48.25 1267.25 L-48 1269.5 L-46.5 1271 L-44 1271.5 L-18 1281.5 L-14 1282.5 L-6 1285.5 L-4.25 1285.75 L-3.5 1284 L2 1273.5 L7.5 1268 L10.5 1267 L11.5 1268 L13 1266.5 L13.5 1265 L16.375 1260 L18 1253.5 L20 1251.5 L20 1250.5 L21.5 1249 L22.75 1249.25 L23 1250.5 L24 1251 L24 1250.5 L24.5 1249 L26.5 1246 L29.5 1242 L31 1239.5 L30.5 1239 L29.5 1240 L28 1240.5 L20 1244.38 L17.5 1245 L16 1243.5 L17 1242.5 L18.5 1240 L45.5 1204 L47.25 1201.25 L49.5 1201 L50 1201.5 L48 1203.5 L46.5 1206 L22.5 1238 L21 1240.5 L20 1241.5 L20.5 1242 L21.5 1242 L24 1239.5 L24.25 1238.25 L26 1238.5 L29.5 1237 L32.5 1235 L41 1226.5 L41.5 1225 L53.5 1207 L55 1204.5 L59.5 1200 L61.75 1200.25 L62 1201.5 L62.5 1202 L64 1200.5 L70.25 1192.25 L71.5 1192 L72.5 1191 L73 1191.5 L72 1193.5 L68 1198.5 L65.25 1202.75 L69.5 1200 L73.5 1197 L78.5 1192 L80.75 1192.25 L81 1193.5 L79 1195.5 L78.75 1198.75 L76.5 1199 L67.5 1208 L52.5 1220 L50.5 1221 L45 1226.5 L44.75 1227.75 L43.5 1228 L41 1230.5 L41 1231.5 L40 1232.5 L40.5 1233 L44.5 1233 L47 1230.5 L50 1225.5 L55.5 1220 L57 1219.5 L63 1216.63 L65.5 1216 L69.5 1212 L70.5 1212 L73 1209.5 L73 1208.5 L74.5 1207 L75.75 1207.25 L74.5 1210 L72.75 1212.75 L71.5 1213 L71 1214 L71.5 1214 L75 1213.38 L76.5 1213 L78.5 1211 L81 1210.38 L83 1209.5 L84.5 1209 L85.5 1210 L86.5 1209 L98 1209.88 L102 1209.25 L121.5 1212 L123 1213.5 L125 1217.5 L126 1218 L126 1213.5 L124.5 1212 L123.5 1212 L122 1210.5 L122.25 1209.25 L123.5 1209 L129 1214.5 L129 1215.5 L132 1218.5 L132.625 1221 L134.5 1225 L136.625 1230 L140.5 1237 L142.625 1242 L146 1248.5 L151 1255.5 L152 1257.5 L153 1258 L153 1257.5 L152.375 1255 L152.25 1253.25 L153.75 1253.25 L155.375 1257 L158.5 1266 L159 1268.5 L159.5 1269 L161.5 1267 L162 1267.5 L162.625 1270 L164.5 1274 L168.5 1284 L172.5 1291 L175.375 1298 L176 1300.5 L176.5 1301 M22 1164 L22 1163 L21 1163 L21 1164 L22 1164 M19.5 1165 L20 1164 L18.5 1164 L18 1165 L19.5 1165 M13 1167.5 L15 1166.63 L17.5 1166 L18 1165 L17.5 1165 L14 1165.5 L11.25 1166.25 L11.25 1167.75 L13 1167.5 M165 1131 L165 1130 L164 1130 L164 1131 L165 1131 M169 1132 L169 1131 L168 1131 L168 1132 L169 1132 M161 1133 L161 1132 L160 1132 L160 1133 L161 1133 M164.5 1135 L166.5 1133 L167.5 1133 L168 1132 L167.5 1132 L163.5 1133 L162 1134.5 L162.5 1135 L164.5 1135 M159 1134 L159 1133 L158 1133 L158 1134 L159 1134 M159.5 1138 L162 1135.5 L161.5 1135 L157.5 1137 L157 1138 L159.5 1138 M156.75 1139.75 L157 1138.5 L156.5 1138 L155 1139.5 L155.5 1140 L156.75 1139.75 M155 1141 L155 1140 L154 1140 L154 1141 L155 1141 M159.5 1155 L160.5 1154 L161.5 1154 L163 1152.5 L162.5 1152 L160.5 1152 L159.5 1151 L159 1151.5 L159 1152.5 L158 1153.5 L159.5 1155 M170 1166 L170 1165 L169 1165 L169 1166 L170 1166 M171 1167 L171 1166 L170 1166 L170 1167 L171 1167 M172 1169 L172 1168 L171 1168 L171 1169 L172 1169 M-0.5 1175 L0.5 1175 L1 1174.5 L-0.5 1173 L-9 1181.5 L-9 1182.5 L-10.5 1184 L-11.5 1184 L-15 1187.5 L-14.5 1188 L-13 1187.63 L-6 1184.5 L-4.5 1184 L-4 1183.5 L-6 1181.5 L-5 1180 L-0.5 1175 M-16 1177 L-16 1176 L-17 1176 L-17 1177 L-16 1177 M-7 1177 L-7 1176 L-8 1176 L-8 1177 L-7 1177 M-17 1178 L-17 1177 L-18 1177 L-18 1178 L-17 1178 M-8 1178 L-8 1177 L-9 1177 L-9 1178 L-8 1178 M-18 1179 L-18 1178 L-19 1178 L-19 1179 L-18 1179 M-9 1179 L-9 1178 L-10 1178 L-10 1179 L-9 1179 M-23 1180 L-23 1179 L-24 1179 L-24 1180 L-23 1180 M-2.5 1183 L-1 1181.5 L-1.5 1181 L-2.5 1181 L-4 1182.5 L-3.5 1183 L-2.5 1183 M-30.5 1187 L-27 1183.5 L-27 1182.5 L-27.5 1182 L-31 1186 L-30.5 1187 M-31 1192.5 L-29.5 1192 L-28 1190.5 L-24 1184.5 L-24.5 1184 L-33 1192.5 L-32.5 1193 L-31 1192.5 M-31 1188 L-31 1187 L-32 1187 L-32 1188 L-31 1188 M-32 1189 L-32 1188 L-33 1188 L-33 1189 L-32 1189 M-19 1189 L-19 1188 L-20 1188 L-20 1189 L-19 1189 M-15 1189 L-15 1188 L-16 1188 L-16 1189 L-15 1189 M-33 1190 L-33 1189 L-34 1189 L-34 1190 L-33 1190 M-20 1190 L-20 1189 L-21 1189 L-21 1190 L-20 1190 M-29 1197.5 L-26.25 1195.75 L-26 1194.5 L-23.5 1192 L-22.5 1192 L-21 1190.5 L-21.5 1190 L-23 1190.5 L-25 1191.5 L-26.5 1192 L-30 1195.5 L-30 1196.5 L-32 1198.5 L-31.5 1199 L-29 1197.5 M-58 1245 L-58 1244.5 L-57.5 1243 L-49 1227.5 L-35.5 1208 L-34 1205.5 L-33 1204.5 L-33.5 1204 L-34.5 1204 L-36 1202.5 L-36 1200.5 L-34 1198.5 L-34 1197.5 L-33 1196.5 L-34 1195.5 L-34 1194.5 L-35.5 1193 L-36.75 1193.25 L-39.5 1198 L-41.375 1202 L-42.5 1206 L-43 1209.5 L-43.5 1210 L-45 1208.5 L-45 1207.5 L-46 1207 L-46 1207.5 L-46.5 1209 L-50.5 1216 L-57.375 1231 L-58.25 1234 L-59 1244.5 L-58 1245 M-32 1200 L-32 1199 L-33 1199 L-33 1200 L-32 1200 M-30 1202 L-30 1201 L-31 1201 L-31 1202 L-30 1202 M-31 1203 L-31 1202 L-32 1202 L-32 1203 L-31 1203 M-32 1204 L-32 1203 L-33 1203 L-33 1204 L-32 1204 M-48 1231 L-48 1230 L-49 1230 L-49 1231 L-48 1231 M2.5 1173 L4 1171.5 L3.5 1171 L2.25 1171.75 L2.5 1173 M18 1173 L18 1172 L17 1172 L17 1173 L18 1173 M11 1174 L11 1173 L10 1173 L10 1174 L11 1174 M16 1174 L16 1173 L15 1173 L15 1174 L16 1174 M9.5 1175 L10 1174 L8.5 1174 L8 1175 L9.5 1175 M14 1175 L14 1174 L13 1174 L13 1175 L14 1175 M1.5 1180 L3.5 1179 L6 1176.5 L5.5 1176 L2.5 1177 L-1 1180.5 L-0.5 1181 L1.5 1180 M60 1204 L60 1203 L59 1203 L59 1204 L60 1204 M59 1205 L59 1204 L58 1204 L58 1205 L59 1205 M58 1206 L58 1205 L57 1205 L57 1206 L58 1206 M65 1203.5 L64.5 1203 L63.5 1203 L60 1206.5 L60 1207.5 L60.5 1208 L65 1203.5 M57 1207 L57 1206 L56 1206 L56 1207 L57 1207 M60 1209 L60 1208 L59 1208 L59 1209 L60 1209 M55 1210 L55 1209 L54 1209 L54 1210 L55 1210 M59 1210 L59 1209 L58 1209 L58 1210 L59 1210 M54 1211 L54 1210 L53 1210 L53 1211 L54 1211 M58 1211 L58 1210 L57 1210 L57 1211 L58 1211 M60 1221 L60 1220 L59 1220 L59 1221 L60 1221 M58.5 1222 L59 1221 L57.5 1221 L57 1222 L58.5 1222 M57 1223 L57 1222 L56 1222 L56 1223 L57 1223 M56 1224 L56 1223 L55 1223 L55 1224 L56 1224 M55 1225 L55 1224 L54 1224 L54 1225 L55 1225 M54 1226 L54 1225 L53 1225 L53 1226 L54 1226 M53 1227 L53 1226 L52 1226 L52 1227 L53 1227 M61 1227 L61 1226 L60 1226 L60 1227 L61 1227 M60 1228 L60 1227 L59 1227 L59 1228 L60 1228 M59 1229 L59 1228 L58 1228 L58 1229 L59 1229 M54 1231 L54 1230 L53 1230 L53 1231 L54 1231 M53 1232 L53 1231 L52 1231 L52 1232 L53 1232 M41.5 1243 L46.5 1239 L51 1234.5 L51 1233.5 L52 1232.5 L51.5 1232 L48.5 1233 L47 1234.5 L45.75 1237.75 L43.5 1238 L39.5 1242 L38.5 1242 L35 1245.5 L36.5 1247 L41.5 1243 M66 1207 L66 1206 L65 1206 L65 1207 L66 1207 M65 1208 L65 1207 L64 1207 L64 1208 L65 1208 M71 1215 L71 1214 L70 1214 L70 1215 L71 1215 M71.5 1219 L72 1218.5 L72 1217.5 L73 1216.5 L72.5 1216 L71 1216.38 L67.5 1217 L67 1218 L67.5 1218 L71.5 1219 M194.5 1201 L195 1200.5 L194.5 1199 L187 1187.5 L177.5 1175 L176 1172.5 L172.5 1169 L172 1169.5 L172.5 1171 L175 1175.5 L190.5 1196.5 L194.5 1201 M180 1200 L180 1198.5 L179 1198 L179 1199 L180 1200 M181 1202 L181 1201 L180 1201 L180 1202 L181 1202 M132.5 1230 L133 1229.5 L132.5 1228 L128.5 1220 L128 1218.5 L127 1218 L127 1221.5 L129 1223.5 L130.5 1227.5 L132.5 1230 M134 1231 L134 1230 L133 1230 L133 1231 L134 1231 M196 1209 L196 1208 L195 1208 L195 1209 L196 1209 M197 1211 L197 1210 L196 1210 L196 1211 L197 1211 M200 1218 L200 1217.5 L199 1213.5 L197.5 1212 L197 1212.5 L198.5 1216.5 L200 1218 M201 1221 L201 1218.5 L200 1218 L200 1220.5 L201 1221 M202 1224 L202 1221.5 L201 1221 L201 1223.5 L202 1224 M203 1227 L203 1224.5 L202 1224 L202 1226.5 L203 1227 M204 1229 L204 1227.5 L203 1227 L203 1228 L204 1229 M205 1231 L205 1230 L204 1230 L204 1231 L205 1231 M-66.5 1265 L-65 1263.5 L-65.5 1263 L-69.5 1263 L-70 1264 L-69.5 1264 L-66.5 1265 M-101 1290 L-101 1289.5 L-100.5 1287 L-97.5 1280 L-97 1278.5 L-87.5 1269 L-84 1267.75 L-78.5 1267 L-78 1266 L-86 1266.75 L-88 1267.38 L-91.5 1268 L-93.5 1270 L-96.75 1271.25 L-98 1273.5 L-100 1276.5 L-102.5 1281 L-103.25 1283 L-104 1288.5 L-103.5 1289 L-102.5 1288 L-101 1290 M-96 1269 L-96 1268 L-97 1268 L-97 1269 L-96 1269 M-100 1294 L-100 1293 L-101 1293 L-101 1294 L-100 1294 M-52.25 1261 L-52.375 1259 L-53.25 1255.13 L-59 1254.25 L-60.75 1254.25 L-62 1259.5 L-63 1260.5 L-62.5 1261 L-52.25 1261 M-52.25 1265.75 L-52.25 1263 L-60.75 1263 L-60.75 1264.75 L-59.5 1265 L-58.5 1264 L-57.5 1265 L-52.25 1265.75 M-56 1268 L-56 1267 L-57 1267 L-57 1268 L-56 1268 M-51.5 1269 L-51 1268 L-54.5 1268 L-55 1269 L-51.5 1269 M-59 1270 L-59 1269 L-60 1269 L-60 1270 L-59 1270 M-57 1270 L-57 1269 L-58 1269 L-58 1270 L-57 1270 M-5.5 1289 L-5 1288.5 L-6.5 1287 L-9 1286.38 L-11 1285.63 L-15 1284.5 L-44 1273.63 L-52 1271.5 L-55 1270.38 L-56.5 1270 L-57 1270.5 L-55.5 1272 L-53.5 1273 L-50.5 1275 L-48 1276.38 L-41 1279.38 L-29 1283.5 L-5.5 1289 M34 1243.5 L37.5 1241 L43 1235.5 L42.5 1235 L37.25 1234.25 L33 1240.5 L31.5 1243 L31 1244.5 L30 1245.5 L30.5 1246 L34 1243.5 M32 1239 L32 1238 L31 1238 L31 1239 L32 1239 M20 1243 L20 1242 L19 1242 L19 1243 L20 1243 M46 1243 L46 1242 L45 1242 L45 1243 L46 1243 M22.5 1262 L26 1258.5 L26 1257.5 L30.5 1253 L31.5 1253 L35 1249.5 L35 1248.5 L34.5 1248 L33.5 1249 L31.5 1249 L24 1256.5 L22 1260.5 L21 1261.5 L21.5 1262 L22.5 1262 M23 1252 L23 1251 L22 1251 L22 1252 L23 1252 M22 1254 L22 1252.5 L21 1252 L21 1253 L22 1254 M21 1255 L21 1254 L20 1254 L20 1255 L21 1255 M19 1262 L19 1261 L18 1261 L18 1262 L19 1262 M18 1263 L18 1262 L17 1262 L17 1263 L18 1263 M22 1264 L22 1263 L21 1263 L21 1264 L22 1264 M17 1265 L17 1264 L16 1264 L16 1265 L17 1265 M21 1265 L21 1264 L20 1264 L20 1265 L21 1265 M20 1266 L20 1265 L19 1265 L19 1266 L20 1266 M16 1267 L16 1266 L15 1266 L15 1267 L16 1267 M19 1267 L19 1266 L18 1266 L18 1267 L19 1267 M15 1269 L15 1267.5 L14 1267 L14 1268 L15 1269 M14 1270 L14 1269 L13 1269 L13 1270 L14 1270 M13 1272 L13 1271 L12 1271 L12 1272 L13 1272 M11.5 1280 L13 1278.5 L12.5 1278 L11.25 1278.75 L11.5 1280 M138 1238 L138 1237 L137 1237 L137 1238 L138 1238 M139 1241 L139 1239.5 L138 1239 L138 1240 L139 1241 M140 1242 L140 1241 L139 1241 L139 1242 L140 1242 M154 1260 L154 1258.5 L153 1258 L153 1259 L154 1260 M155 1262 L155 1260.5 L154 1260 L154 1261 L155 1262 M156 1264 L156 1263 L155 1263 L155 1264 L156 1264 M157 1267 L157 1266 L156 1266 L156 1267 L157 1267 M158 1273 L158 1272 L157 1272 L157 1273 L158 1273 M159 1275 L159 1273.5 L158 1273 L158 1274 L159 1275 M162 1274 L162 1273 L161 1273 L161 1274 L162 1274 M166.5 1288 L167 1287.5 L166.375 1285 L161.5 1278 L161 1276.5 L159.5 1275 L159 1275.5 L159.5 1277 L163 1284 L166.5 1288 M164 1277 L164 1276 L163 1276 L163 1277 L164 1277 M168 1290 L168 1289 L167 1289 L167 1290 L168 1290 M172 1294 L172 1293 L171 1293 L171 1294 L172 1294 M192 1318.25 L195 1317.5 L205 1313.38 L206.5 1313 L207 1312 L205.5 1312 L204 1310.5 L204.5 1310 L212.5 1309 L224.5 1297 L225 1297.5 L225 1299.5 L225.5 1300 L228 1297.5 L229 1295.5 L232.5 1290 L233.25 1288 L233.25 1280 L233 1278.5 L230.5 1276 L229.5 1276 L227.5 1274 L222 1272.63 L217.5 1272 L217 1272.5 L219.5 1275 L223.5 1277 L226 1279.5 L225.5 1280 L223.5 1280 L221.5 1278 L215 1274.5 L213.5 1274 L212 1275.5 L213 1284.5 L212.5 1285 L211.5 1284 L197 1292.5 L189 1296.38 L186.5 1297 L184.5 1299 L183 1299.5 L176.5 1303 L176 1303.5 L177 1304.5 L177.625 1307 L177.75 1309 L176.25 1314 L176 1315.5 L178.5 1318 L192 1318.25 M208 1239 L208 1237.5 L207 1237 L207 1238 L208 1239 M209 1243 L209 1241.5 L208 1241 L208 1242 L209 1243 M258.75 1269.75 L258.75 1268.25 L256.25 1267.75 L255.75 1266 L240 1266.63 L224 1269.75 L222.5 1270 L222 1271 L222.5 1271 L225 1271.5 L228 1272.63 L232.5 1275 L234 1276.5 L235.25 1280 L236 1287.5 L236.5 1288 L243.5 1281 L251 1276 L258.75 1269.75 M211.5 1272 L212 1271 L210.5 1271 L210 1272 L211.5 1272 M236 1289 L236 1288 L235 1288 L235 1289 L236 1289 M-93 1303 L-93 1302 L-94 1302 L-94 1303 L-93 1303 M-91.5 1304 L-91 1303 L-92.5 1303 L-93 1304 L-91.5 1304 M-57 1314.25 L-53.5 1314 L-53 1313 L-53.5 1313 L-57 1312.38 L-60.75 1310.75 L-61 1309.5 L-59.5 1308 L-58.5 1309 L-57 1309.5 L-51 1312.5 L-49 1312.63 L-35 1308.5 L-32.5 1308 L-32 1307 L-75.5 1307 L-76.5 1306 L-77.5 1307 L-81 1306.5 L-90.5 1304 L-91 1304.5 L-89.5 1306 L-85.5 1307 L-83.5 1309 L-82 1309.5 L-75 1313.38 L-72 1314.25 L-57 1314.25 M225 1301 L225 1300 L224 1300 L224 1301 L225 1301 M224 1302 L224 1301 L223 1301 L223 1302 L224 1302 M223 1303 L223 1302 L222 1302 L222 1303 L223 1303 M222 1304 L222 1303 L221 1303 L221 1304 L222 1304 "></path>
    </g>
    <g>
      <path fill="#000000" fill-rule="evenodd" d="M126.5 980 L124 981.5 L118 985.5 L114 987.375 L100.5 991 L99.5 992 L98.5 991 L97.5 992 L95.5 992 L94.5 991 L93.5 992 L85 990.375 L75 987.5 L71.5 987 L69.5 985 L65.5 983 L62.5 980 L60.5 980 L57 976.5 L47 964.5 L45.5 963 L41.5 963 L40 961.5 L40 960.5 L38.5 959 L36.25 958.75 L36.25 956.25 L37.5 956 L39 954.5 L39 952.5 L40 951.5 L39 950.5 L38.625 949 L37.375 946 L37 944.5 L35.5 943 L35 943.5 L34.75 944.75 L33.25 944.75 L33.5 943 L34.375 941 L34.75 938.25 L33.5 938 L32.5 939 L31 937.5 L32.5 936 L33.75 935.75 L34 934.5 L32.5 933 L30.5 933 L29.5 934 L29 933.5 L29 932.5 L30.5 931 L31.875 930.75 L31.375 924 L30.625 920 L31 909 L30 909.5 L30 910.5 L28.5 912 L28 911.5 L28.625 908 L29.375 906 L29.75 902.25 L28.5 902 L26.5 900 L22.25 898.75 L22.25 897.25 L25 897.625 L27 898.5 L28.5 899 L29.5 900 L30 899.5 L30 897.5 L28 895.5 L28 894.5 L25 891.5 L25 889.5 L25.5 889 L26.5 890 L27.5 890 L31.5 894 L32 893.5 L31.5 891 L31.5 888 L32.625 885 L32.75 883.25 L31.25 882.75 L31.25 880.25 L35.5 878 L37 876.5 L38 874.5 L47.5 863 L51.25 857.25 L58 852.5 L63 849.625 L74 845.5 L77 844.625 L82 843.75 L97 843.625 L104 844.625 L116 848.625 L120 850.5 L125.5 854 L127.5 855 L129.5 857 L136.75 856.25 L137 858.5 L136 859.5 L137.5 861 L141.5 863 L145 866.5 L145.5 868 L149 873.5 L150.25 875.75 L151.75 876.25 L152.5 878 L156.5 885 L157.375 887 L161.375 901 L162.25 906 L162.25 925 L161.375 931 L160.5 934 L155.625 947 L155 949.5 L152 952.5 L152 953.5 L149 956.5 L149.5 957 L154.5 957 L155 957.5 L153.5 959 L147.25 959.125 L146 961.5 L139 970.5 L138 972.5 L135.5 975 L134 975.5 L126.5 980 M79 851.75 L83.5 851 L88.5 846 L89.5 846 L90 845 L82.5 845 L82 846 L85.5 846 L86 846.5 L84.5 848 L80.5 848 L77 851.5 L77.5 852 L79 851.75 M126.5 858 L127 857 L126.5 857 L121 853.5 L113 849.625 L104 846.625 L91.5 845 L91 845.5 L92 846.5 L88 850.5 L89 851.5 L88.75 852.75 L87.5 853 L87 854 L90.5 854 L92.5 852 L95.75 852.25 L96 853.5 L96.5 854 L101.5 849 L104.5 848 L106 849.5 L104 853.5 L103 854.5 L103.5 855 L108.5 855 L110 856.5 L109.75 857.75 L108.5 858 L99 867.5 L99.5 868 L101.5 868 L104 865.5 L104 864.5 L107.5 861 L112.5 858 L113.5 857 L115 858.5 L112 861.5 L112 862.5 L110 864.5 L110.5 865 L111.5 865 L113.5 863 L115 864.5 L111 868.5 L112.5 870 L113.75 869.75 L117 864.5 L123.5 858 L126.5 858 M61.5 855 L63 853.5 L62.5 853 L61.5 853 L60 854.5 L60.5 855 L61.5 855 M59.5 856 L60 855 L58.5 855 L58 856 L59.5 856 M58 857 L58 856 L57 856 L57 857 L58 857 M52 866 L52 865 L51 865 L51 866 L52 866 M52.5 872 L59 865.5 L58.5 865 L57.5 865 L52 871 L52.5 872 M51 867 L51 866 L50 866 L50 867 L51 867 M50 868 L50 867 L49 867 L49 868 L50 868 M62 869.5 L61.5 869 L59 871.5 L59 872.5 L54 877.5 L54.5 878 L55.5 878 L56.5 879 L57 878.5 L58 876.5 L62 869.5 M52 873 L52 872 L51 872 L51 873 L52 873 M42 874 L42 873 L41 873 L41 874 L42 874 M51 874 L51 873 L50 873 L50 874 L51 874 M54 879 L54 878 L53 878 L53 879 L54 879 M62 879 L62 878 L61 878 L61 879 L62 879 M61 880 L61 879 L60 879 L60 880 L61 880 M41 881 L41 880 L40 880 L40 881 L41 881 M37 883 L37 881.5 L36 881 L36 882 L37 883 M55 882 L55 881 L54 881 L54 882 L55 882 M51 883 L51 882 L50 882 L50 883 L51 883 M36 885 L36 883.5 L35 883 L35 884 L36 885 M47.5 888 L50 885.5 L50 884.5 L49.5 884 L46 887.5 L46.5 888 L47.5 888 M62 885 L62 884 L61 884 L61 885 L62 885 M35 887 L35 885.5 L34 885 L34 886 L35 887 M37 890 L37 889.5 L38 886.5 L37.5 886 L36 887.5 L36 889.5 L37 890 M36 892 L36 890.5 L35 890 L35 891 L36 892 M42.5 900 L43 899.5 L42 898.5 L43 897.5 L46 892.5 L47 891.5 L46.5 891 L43.25 891.25 L43 892.5 L41.5 894 L40.25 894.25 L40.5 896 L41 897.5 L40 898.5 L41.5 900 L42.5 900 M52 892 L52 891 L51 891 L51 892 L52 892 M57.5 892 L58 891 L56.5 891 L56 892 L57.5 892 M35 894 L35 892.5 L34 892 L34 893 L35 894 M56 893 L56 892 L55 892 L55 893 L56 893 M34 895 L34 894 L33 894 L33 895 L34 895 M52.5 896 L53 895 L51.5 895 L51 896 L52.5 896 M49 902.5 L51 901.625 L53.5 901 L56 898.5 L55.5 898 L53.5 898 L52.5 899 L51.5 898 L50.5 898 L49.5 897 L48.5 898 L47.5 898 L46 899.5 L47.25 902.75 L49 902.5 M60.5 898 L61 897 L58.5 897 L58 898 L60.5 898 M36 900 L36 899 L35 899 L35 900 L36 900 M32 901 L32 900 L31 900 L31 901 L32 901 M64 901.5 L66.75 900.75 L67.5 899 L67.75 897.25 L65 898.5 L62.5 900 L61 901.5 L61.5 902 L64 901.5 M57.5 903 L58 902 L54.5 902 L54 903 L57.5 903 M62 906.5 L70.75 903.75 L71 902.5 L70.5 902 L69.5 903 L54.25 905.25 L54 906.5 L53.5 907 L52.5 906 L50 905.5 L45 903.75 L39.5 903 L39 903.5 L40.5 905 L42.75 905.25 L43.25 906.75 L48 909.5 L49.5 910 L50.5 911 L51.5 910 L54 909.5 L59 907.625 L62 906.5 M32 907 L32 906 L31 906 L31 907 L32 907 M34 915 L34 909.5 L33 909 L33 914.5 L34 915 M61.5 910 L62 909 L60.5 909 L60 910 L61.5 910 M40 911 L40 910 L39 910 L39 911 L40 911 M38.5 916 L39 915.5 L37.75 911.25 L36.25 911.25 L36.25 914.75 L38.5 916 M51.5 915 L52 914 L48.5 914 L47 912.5 L46.75 911.125 L42.5 911 L42 911.5 L43.5 913 L47 914.25 L51.5 915 M42.5 915 L43 914.5 L40.5 912 L40 912.5 L40 913.5 L41.5 915 L42.5 915 M63 912.5 L64.5 912 L65 911 L64.5 911 L58 912.5 L54.5 913 L54 914 L54.5 914 L57 914.625 L59 914.5 L61 913.5 L63 912.5 M67 851 L67 850 L66 850 L66 851 L67 851 M67.5 855 L70.5 852 L71.5 852 L73 850.5 L72.5 850 L71 850.5 L69 851.5 L67.5 852 L66 853.5 L67.5 855 M76 851 L76 850 L75 850 L75 851 L76 851 M64.5 853 L66 851.5 L65.5 851 L64.5 851 L63 852.5 L63.5 853 L64.5 853 M75 852 L75 851 L74 851 L74 852 L75 852 M103 852 L103 851 L102 851 L102 852 L103 852 M102 853 L102 852 L101 852 L101 853 L102 853 M99.5 855 L101 853.5 L100.5 853 L99.5 853 L98 854.5 L98.5 855 L99.5 855 M86.5 856 L87 855 L85.5 855 L85 856 L86.5 856 M93.5 862 L94.5 861 L95.5 861 L98 858.5 L97.75 857.25 L96.5 857 L93 861 L93.5 862 M102 858 L102 857 L101 857 L101 858 L102 858 M80.5 864 L86 858.5 L85.5 858 L83.5 858 L81 860.5 L80.5 862.5 L80.5 864 M90 859 L90 858 L89 858 L89 859 L90 859 M66 860 L66 859 L65 859 L65 860 L66 860 M80 860 L80 859 L79 859 L79 860 L80 860 M86.5 864 L88 862.5 L89 859.5 L88.5 859 L87.5 860 L86.5 860 L84 862.5 L84.25 863.75 L86.5 864 M79 861 L79 860 L78 860 L78 861 L79 861 M125 861 L125 860 L124 860 L124 861 L125 861 M78 863 L78 861.5 L77 861 L77 862 L78 863 M124 862 L124 861 L123 861 L123 862 L124 862 M115.5 874 L116 873.5 L117 871.5 L121.5 865 L123 862.5 L122.5 862 L118 866.5 L115 871.5 L114 872.5 L115.5 874 M72 864 L72 863 L71 863 L71 864 L72 864 M77 864 L77 863 L76 863 L76 864 L77 864 M126 864 L126 863 L125 863 L125 864 L126 864 M71 865 L71 864 L70 864 L70 865 L71 865 M76 865 L76 864 L75 864 L75 865 L76 865 M80 865 L80 864 L79 864 L79 865 L80 865 M84 865 L84 864 L83 864 L83 865 L84 865 M90.75 868.75 L92 866.5 L92.75 864.25 L91.5 864 L87 868.5 L87.5 869 L90.75 868.75 M125 866 L125 864.5 L124 864 L124 865 L125 866 M75 867 L75 865.5 L74 865 L74 866 L75 867 M79 866 L79 865 L78 865 L78 866 L79 866 M110 866 L110 865 L109 865 L109 866 L110 866 M78 867 L78 866 L77 866 L77 867 L78 867 M85 867 L85 866 L84 866 L84 867 L85 867 M109 867 L109 866 L108 866 L108 867 L109 867 M124 867 L124 866 L123 866 L123 867 L124 867 M64 868 L64 867 L63 867 L63 868 L64 868 M69 868 L69 867 L68 867 L68 868 L69 868 M74 868 L74 867 L73 867 L73 868 L74 868 M78.5 871 L79.5 870 L82.75 869.75 L83 868.5 L84 867.5 L83.5 867 L79.5 868 L78 870 L78.5 871 M108 868 L108 867 L107 867 L107 868 L108 868 M123 868 L123 867 L122 867 L122 868 L123 868 M63 869 L63 868 L62 868 L62 869 L63 869 M73 869 L73 868 L72 868 L72 869 L73 869 M122 870 L122 868.5 L121 868 L121 869 L122 870 M126 868.5 L125.5 868 L123 870.5 L118 877.5 L112 883.5 L112.5 884 L114.5 884 L119 879.5 L120 877.5 L122.5 873.5 L126 868.5 M68 870 L68 869 L67 869 L67 870 L68 870 M67 871 L67 870 L66 870 L66 871 L67 871 M75 871 L75 870 L74 870 L74 871 L75 871 M94.5 876 L99 871.5 L98.75 870.25 L97.5 870 L96 871.5 L95 874 L94.5 876 M121 871 L121 870 L120 870 L120 871 L121 871 M67 892.625 L73 890.375 L74.5 890 L77 887.5 L78 885.5 L80 882.5 L83 878.5 L85 875.5 L89 871.5 L88.5 871 L84.25 872.25 L77 881.5 L68.5 890 L67 888.5 L69 886.5 L78 875.5 L81 872.5 L80.5 872 L79 872.375 L75.5 873 L71 877.5 L64.5 886 L63 888.5 L62 889.5 L62.5 890 L64.5 890 L66 891.5 L65 892.5 L65.5 893 L67 892.625 M105 872 L105 871 L104 871 L104 872 L105 872 M106.5 877 L111 872.5 L110.75 871.25 L109.5 871 L108 872.5 L107 875 L106.5 877 M120 872 L120 871 L119 871 L119 872 L120 872 M101 873 L101 872 L100 872 L100 873 L101 873 M104 873 L104 872 L103 872 L103 873 L104 873 M103 874 L103 873 L102 873 L102 874 L103 874 M125.5 875 L128.5 872 L129.5 872 L135.5 866 L137.75 866.25 L137 868.5 L136 870.5 L136.5 871 L141 866.5 L141 865.5 L139.5 864 L138.5 864 L136.5 862 L134.5 862 L129 867.5 L126 873 L125.5 875 M113 875 L113 874 L112 874 L112 875 L113 875 M64 876 L64 875 L63 875 L63 876 L64 876 M125 876 L125 875 L124 875 L124 876 L125 876 M63 877 L63 876 L62 876 L62 877 L63 877 M94 877 L94 876 L93 876 L93 877 L94 877 M98 877 L98 876 L97 876 L97 877 L98 877 M124 877 L124 876 L123 876 L123 877 L124 877 M93 878 L93 877 L92 877 L92 878 L93 878 M97 878 L97 877 L96 877 L96 878 L97 878 M106 878 L106 877 L105 877 L105 878 L106 878 M108.75 884.875 L111 880.5 L114 877.5 L113.5 877 L112 877.5 L108 879.5 L106.5 880 L104 882.5 L104 883.5 L103 884.5 L103.5 885 L108.75 884.875 M123 878 L123 877 L122 877 L122 878 L123 878 M67 879 L67 878 L66 878 L66 879 L67 879 M96 879 L96 878 L95 878 L95 879 L96 879 M102 879 L102 878 L101 878 L101 879 L102 879 M105 879 L105 878 L104 878 L104 879 L105 879 M127 879.5 L130 874.5 L129.5 874 L121 882.5 L121.5 883 L123.5 883 L127 879.5 M66 880 L66 879 L65 879 L65 880 L66 880 M89 880 L89 879 L88 879 L88 880 L89 880 M89.5 887 L92 884.5 L95 879.5 L94.5 879 L91 882.5 L90 885 L89.5 887 M101 880 L101 879 L100 879 L100 880 L101 880 M104 880 L104 879 L103 879 L103 880 L104 880 M63 884 L63 882.5 L65 880.5 L64.5 880 L63.5 880 L62 881.5 L62 883.5 L63 884 M90 882 L90 881 L89 881 L89 882 L90 882 M121 884 L121 883 L120 883 L120 884 L121 884 M95 885 L95 884 L94 884 L94 885 L95 885 M87 886 L87 885 L86 885 L86 886 L87 886 M94 886 L94 885 L93 885 L93 886 L94 886 M103 886 L103 885 L102 885 L102 886 L103 886 M86 887 L86 886 L85 886 L85 887 L86 887 M109 889.5 L110.5 889 L113 886.5 L112.5 886 L109.5 887 L107 889.5 L107.5 890 L109 889.5 M125.5 891 L130 886.5 L137.5 875 L138 873.5 L137.5 873 L127 883.5 L124 888.5 L122 890.5 L122.5 891 L125.5 891 M89 888 L89 887 L88 887 L88 888 L89 888 M102 891.5 L103.5 891 L105 889.5 L105 888.5 L106 887.5 L105.5 887 L104 887.375 L100.5 888 L99 889.5 L99 890.5 L100.5 892 L102 891.5 M85 889 L85 888 L84 888 L84 889 L85 889 M88 889 L88 888 L87 888 L87 889 L88 889 M119 889 L119 888 L118 888 L118 889 L119 889 M116.5 892 L118 890.5 L117.75 889.25 L116.5 889 L114 891.5 L114.5 892 L116.5 892 M110 892 L110 891 L109 891 L109 892 L110 892 M89 893 L89 892 L88 892 L88 893 L89 893 M98 893 L98 892 L97 892 L97 893 L98 893 M108.5 893 L109 892 L106.5 892 L106 893 L108.5 893 M75 899.5 L81.5 898 L86 893.5 L85.5 893 L83 893.625 L81 894.5 L79.5 895 L78.5 894 L76.5 896 L72.25 897.25 L72 898.5 L71 899.5 L71.5 900 L75 899.5 M121 894.625 L123.5 894 L124 893 L120.5 893 L119 894.5 L119.5 895 L121 894.625 M88 895 L88 894 L87 894 L87 895 L88 895 M113.5 895 L114 894 L111.5 894 L111 895 L113.5 895 M63 897 L63 896 L62 896 L62 897 L63 897 M71 912.5 L87 909.5 L106 904.5 L109.5 904 L112.5 901 L114 900.5 L118 898.5 L119.5 898 L120 897 L115.5 897 L113.5 899 L111.5 897 L105.5 898 L104.5 899 L103.5 898 L100 901.5 L100 902.5 L98.5 904 L96 904.375 L69 911.625 L67.5 912 L67 913 L71 912.5 M93.5 903 L95 901.5 L95 899.5 L96 898.5 L95.5 898 L92.5 899 L91 900.5 L90.75 901.75 L89.5 902 L89 903 L93.5 903 M135.5 962 L136.5 961 L143 958.5 L146.75 957.75 L147.5 956 L152 949.5 L153.5 947 L155.5 942 L156.625 938 L158.375 934 L159.375 931 L160.25 925 L160.25 906 L159.375 901 L155.375 888 L155 886.5 L154.5 886 L153.5 887 L150 887.625 L145 890.5 L143.5 891 L142 892.5 L141.75 894.75 L130 897.5 L123.25 900.25 L123 901.5 L124.5 903 L125.5 902 L127.75 902.25 L128 903.5 L127 904.5 L127.5 905 L129 904.625 L132 903.5 L136 902.375 L138 901.5 L141 899.5 L151 891.625 L153.5 891 L155 892.5 L154.5 893 L150.5 894 L149 895.5 L149 896.5 L145.5 900 L144.25 900.25 L144.25 901.75 L147 901.375 L148.5 901 L152 897.5 L152 896.5 L153.5 895 L155.75 895.25 L155.625 897 L154.75 899.75 L153.5 900 L152.5 899 L152 899.5 L152 901.5 L150.5 903 L149.5 903 L148 904.5 L149.25 909.75 L153.75 911.25 L153.75 912.75 L149 912.25 L148.25 923 L147.5 926 L144.375 934 L144 935.5 L143 936.5 L145 938.5 L142 941.5 L141 943.5 L139 946.5 L136 950.5 L134 953.5 L132 955.5 L132.5 956 L134.5 956 L136 957.5 L136 958.5 L134 960.5 L135.5 962 M66 908.5 L75 906.5 L88.5 904 L89 903 L86.25 902.75 L86 901.5 L85.5 901 L84.5 902 L65 907.5 L62.5 908 L62 909 L66 908.5 M121 902 L121 901 L120 901 L120 902 L121 902 M118 903 L118 902 L117 902 L117 903 L118 903 M108 914.5 L124 910.75 L137.75 908.875 L138 907.5 L139.5 906 L140.5 906 L142 904.5 L142 902.5 L141.5 902 L140.5 903 L136 905.375 L133 906.625 L131.5 907 L130.5 906 L129.5 907 L127.25 906.75 L126.75 905.25 L123 905.5 L99 911.5 L92.5 913 L92 914 L92.5 914 L96 913.5 L120 907.5 L122.75 907.25 L123 908.5 L121.5 910 L103.5 914 L103 915 L108 914.5 M67 911 L67 910 L66 910 L66 911 L67 911 M89 913 L89 912 L88 912 L88 913 L89 913 M127.5 862 L130 859.5 L128.5 858 L127.25 858.25 L127 861.5 L127.5 862 M130.5 863 L133 860.5 L132.5 860 L131.5 860 L130 862 L130.5 863 M127 863 L127 862 L126 862 L126 863 L127 863 M130 864 L130 863 L129 863 L129 864 L130 864 M129 865 L129 864 L128 864 L128 865 L129 865 M126.5 868 L128 866.5 L128 865.5 L127.5 865 L126 867 L126.5 868 M137.5 881 L141.5 877 L143.5 877 L144.5 876 L145.5 877 L146.5 877 L148 875.5 L147 874.5 L145 870.5 L143.5 869 L142 870.5 L141.5 872 L137.5 879.5 L137.5 881 M136 872 L136 871 L135 871 L135 872 L136 872 M132 873 L132 872 L131 872 L131 873 L132 873 M135 873 L135 872 L134 872 L134 873 L135 873 M139 873 L139 872 L138 872 L138 873 L139 873 M131 874 L131 873 L130 873 L130 874 L131 874 M134 874 L134 873 L133 873 L133 874 L134 874 M143.5 889 L146 887.5 L150 885.625 L152.5 885 L153.5 886 L154 885.5 L153.5 884 L152.5 882 L152 880.5 L150.5 879 L149.5 879 L145 883.5 L142 888.5 L141 889.5 L141.5 890 L143.5 889 M137 882 L137 881 L136 881 L136 882 L137 882 M136 883 L136 882 L135 882 L135 883 L136 883 M140 885 L140 884 L139 884 L139 885 L140 885 M136 887 L136 886 L135 886 L135 887 L136 887 M135 888 L135 887 L134 887 L134 888 L135 888 M131.5 892 L134 889.5 L134 888.5 L133.5 888 L131 891 L131.5 892 M139.5 893 L140 892 L139.5 892 L138.25 891.75 L138 890.5 L137.5 890 L135 892.5 L135.5 893 L139.5 893 M129.5 894 L130 893 L128.5 893 L128 894 L129.5 894 M145 909 L145 908 L144 908 L144 909 L145 909 M126 923.375 L131 921.375 L139.5 917 L141 915.5 L141 914.5 L144 911.5 L144 909.5 L143 909 L143 909.5 L142.75 910.75 L139 911.625 L128.5 919 L124 921.5 L119 923.5 L108 926.5 L102 927.5 L93.5 928 L93 929 L107 928.375 L118 926.5 L123 924.625 L126 923.375 M127.5 940 L130.5 936 L132.5 933 L138.5 922 L138.75 920.25 L137.5 920 L135.5 922 L133 922.625 L119 928.5 L107 930.375 L90 930.25 L71 926.375 L68 925.375 L66 924.5 L60.5 921 L58 919.625 L50 917.625 L42.25 917.125 L42.75 920.75 L41.5 921 L40 919.5 L40 917.5 L39.5 917 L38.5 918 L37.5 917 L37 917.5 L37.75 924 L39.375 928 L40 930.5 L41 931.5 L39.5 933 L38.5 932 L37.125 932.25 L37 936.5 L38.5 938 L57 930.5 L64 927.75 L68.5 927 L69 927.5 L67.5 929 L64 929.625 L60 931.375 L57.5 932 L57 933 L57.5 933 L63.5 934 L64.5 933 L66.5 935 L68 934.625 L71 933.5 L74 933.625 L75.5 934 L77 935.5 L77 937.5 L74.5 940 L72.5 941 L67 944.5 L65.25 944.75 L64.75 943.25 L63 943.375 L56 946.375 L52 947.625 L50.25 947.75 L50.25 946.25 L60 942.5 L61.5 942 L63 940.5 L61.5 939 L59 938.375 L57 938.5 L45 944.5 L43.5 945 L42 946.5 L41 949.5 L41.5 950 L42.5 949 L45.75 949.25 L45.75 950.75 L43.5 951 L42 952.5 L43.5 954 L45.75 953.75 L46 952.5 L47.5 951 L48 951.5 L48.25 952.75 L51 952.75 L60 951.625 L119.75 951 L127.5 940 M38 930 L38 929 L37 929 L37 930 L38 930 M39.5 946 L42.5 943 L45 942.375 L51 939.5 L52.75 938.75 L53 936.5 L54.5 935 L55.5 935 L57 933.5 L56.5 933 L45 937.5 L43.5 938 L40.5 941 L38.25 941.25 L38.625 944.5 L39.5 946 M59 936 L59 935 L58 935 L58 936 L59 936 M57 937 L57 936 L56 936 L56 937 L57 937 M116.5 955 L118 953.5 L117.5 953 L51.25 954 L51.25 955.875 L59 955.5 L65 954.625 L116.5 955 M45 957 L45 956 L44 956 L44 957 L45 957 M40.5 958 L41 957 L39.5 957 L39 958 L40.5 958 M61.5 970 L62.5 969 L63.5 969 L65 967.5 L64.5 967 L62 966.5 L56 964.5 L53.5 964 L53 964.5 L54.5 966 L61.5 970 M69 980.375 L70.5 980 L71 979 L68.5 979 L67 977.5 L67.5 977 L69.5 977 L70 976 L69.5 976 L61.5 975 L60 973.5 L59.75 971.25 L57.5 970 L54.5 968 L52.5 967 L51.5 966 L51 966.5 L51.25 967.75 L52.5 968 L58 973.5 L59.25 976.75 L63.5 978 L66.5 981 L69 980.375 M85.5 914 L86 913 L84.5 913 L84 914 L85.5 914 M82.5 915 L83 914 L80.5 914 L80 915 L82.5 915 M91.5 915 L92 914 L89.5 914 L89 915 L91.5 915 M71.5 916 L72 915 L69.5 915 L69 916 L71.5 916 M79.5 916 L80 915 L75.5 915 L75 916 L79.5 916 M87 916 L87 915 L86 915 L86 916 L87 916 M68.5 918 L69 917 L65.5 917 L65 918 L68.5 918 M88.5 918 L89 917 L87.5 917 L87 918 L88.5 918 M99 922.5 L115 918.5 L117.5 918 L118 917 L117.5 917 L114 917.5 L98 921.5 L94.5 922 L94 923 L99 922.5 M126.5 918 L127 917 L126.5 917 L123 917.625 L116 920.5 L109 922.5 L100 924.5 L94.5 925 L94 926 L107 924.5 L119 921.5 L122 920.375 L126.5 918 M91.5 920 L92 919 L90.5 919 L90 920 L91.5 920 M73.5 925 L74 924 L73.5 924 L72 923.5 L66 920.5 L64.5 920 L64 920.5 L66.5 923 L68 923.375 L71 924.5 L73.5 925 M77 922.5 L79 921.5 L80.5 921 L81 920 L80.5 920 L72.5 921 L72 922 L72.5 922 L77 922.5 M88.5 921 L89 920 L87.5 920 L87 921 L88.5 921 M85 922 L85 921 L84 921 L84 922 L85 922 M92.5 924 L93 923 L91.5 923 L91 924 L92.5 924 M80.5 926 L81.5 925 L82.5 925 L83 924 L82.5 924 L80.25 924.75 L80.5 926 M93 927 L93 926 L92 926 L92 927 L93 927 M91.5 929 L92 928 L90.5 928 L90 929 L91.5 929 M70.5 940 L71.5 939 L72.5 939 L75 936.5 L73.5 935 L72 935.375 L68.5 936 L68 936.5 L70 939 L70.5 940 M66.5 943 L67 942 L65.5 942 L65 943 L66.5 943 M126 948 L126 947 L125 947 L125 948 L126 948 M125 949 L125 948 L124 948 L124 949 L125 949 M124 950 L124 949 L123 949 L123 950 L124 950 M123 951 L123 950 L122 950 L122 951 L123 951 M121 954 L121 953 L120 953 L120 954 L121 954 M126.5 954 L127 953 L124.5 953 L124 954 L126.5 954 M120 955 L120 954 L119 954 L119 955 L120 955 M124 955 L124 954 L123 954 L123 955 L124 955 M90 958.375 L98 957.375 L105 957.75 L110.5 957 L111 956 L65.5 956 L65 956.5 L66.5 958 L90 958.375 M130 959.125 L132.5 959 L133 958.5 L131.5 957 L121 957.875 L119 958.5 L117 958.75 L105.5 959 L105 960 L130 959.125 M125.5 965 L126.5 964 L129.5 963 L130 962 L74.5 964 L73 965.5 L73.5 966 L89 965.25 L94 964.5 L100 964.75 L102 965.375 L107.75 965.25 L107.75 966.75 L95 971.5 L93.5 972 L93 973 L93.5 973 L97 972.5 L104 970.625 L109.5 970 L111.5 968 L112.75 967.75 L113.25 966.25 L115.5 966 L116 966.5 L114 968.5 L114.5 969 L118 968.375 L121.75 966.75 L122 965.5 L123.5 964 L125.5 965 M68.5 966 L70 964.5 L69.5 964 L62.5 964 L62 965 L62.5 965 L68.5 966 M81 975.25 L83 974.5 L95.5 968 L96 967 L95.5 967 L92 967.5 L75 972.5 L71.5 973 L70 974.5 L70.5 975 L81 975.25 M68 972.5 L75 970.5 L78.5 970 L79 969 L70 968.25 L68 968.5 L66 969.5 L64.25 970.25 L64 971.5 L65.5 973 L68 972.5 M126.5 972 L128 970.5 L127.75 968.25 L126 968.5 L121.5 971 L120 972.5 L120.25 973.75 L122 973.625 L125 972.375 L126.5 972 M112 972 L112 971 L111 971 L111 972 L112 972 M83.5 982 L84.5 981 L88 980.5 L103 975.625 L105.5 975 L108 972.5 L107.5 972 L104 972.625 L102.5 973 L100.5 975 L95 976.375 L81 978.75 L76.5 981 L76 982 L81.5 982 L82.5 981 L83.5 982 M92.5 974 L93 973 L90.5 973 L90 974 L92.5 974 M146 917 L146 915.5 L145 915 L145 916 L146 917 M128.5 917 L129 916 L127.5 916 L127 917 L128.5 917 M142 918 L142 917 L141 917 L141 918 L142 918 M145 918 L145 917 L144 917 L144 918 L145 918 M141 919 L141 918 L140 918 L140 919 L141 919 M144 919 L144 918 L143 918 L143 919 L144 919 M140 920 L140 919 L139 919 L139 920 L140 920 M143 921 L143 920 L142 920 L142 921 L143 921 M142 922 L142 921 L141 921 L141 922 L142 922 M147 922 L147 921 L146 921 L146 922 L147 922 M130.75 954.75 L132 952.5 L134 949.5 L142.5 933 L145.375 926 L146 922.5 L145.5 922 L143 924.5 L141.5 927 L138 931.5 L136 934.5 L133 937.5 L132.375 941 L128 947.5 L127 949.5 L126 950.5 L126.5 951 L127.5 951 L129 952.5 L129.25 954.75 L130.75 954.75 M141 925 L141 923.5 L140 923 L140 924 L141 925 M140 926 L140 925 L139 925 L139 926 L140 926 M139 928 L139 926.5 L138 926 L138 927 L139 928 M138 929 L138 928 L137 928 L137 929 L138 929 M132.5 962 L133 961 L130.5 961 L130 962 L132.5 962 M142 962 L142 961 L141 961 L141 962 L142 962 M138.5 964 L140 962.5 L139.5 962 L138.25 962.75 L138.5 964 M135 965 L135 964 L134 964 L134 965 L135 965 M138 965 L138 964 L137 964 L137 965 L138 965 M130.5 969 L131.5 968 L132.75 967.75 L133 966.5 L134 965.5 L133.5 965 L130.25 966.25 L130 968.5 L130.5 969 M139 968 L139 967 L138 967 L138 968 L139 968 M137 971 L137 970 L136 970 L136 971 L137 971 M133 973.5 L134.5 973 L136 971.5 L135.5 971 L132.5 972 L131 973.5 L131.5 974 L133 973.5 M129.5 976 L131 974.5 L130.5 974 L129.5 974 L128 975.5 L128.5 976 L129.5 976 M127.5 977 L128 976 L126.5 976 L126 977 L127.5 977 M126 977.5 L125.5 977 L124 977.5 L110 984.5 L105 986.625 L103.5 987 L103 988 L103.5 988 L106 987.5 L116 984.375 L123 980 L126 977.5 M115 979 L115 978 L114 978 L114 979 L115 979 M114 980 L114 979 L113 979 L113 980 L114 980 M111.5 981 L112 980 L110.5 980 L110 981 L111.5 981 M105 983.5 L108 982.375 L109.5 982 L110 981 L109.5 981 L107 981.5 L104 982.625 L102.5 983 L102 984 L105 983.5 M94.5 983 L95 982 L93.5 982 L93 983 L94.5 983 M86.5 989 L92 983.5 L91.5 983 L70.5 983 L70 984 L70.5 984 L80 986.625 L85 988.625 L86.5 989 M93 988.5 L99.5 987 L101 985.5 L100.5 985 L99 984.5 L97 984.375 L94 985.625 L89.5 988 L89 989 L93 988.5 M102 989 L102 988 L101 988 L101 989 L102 989 M100 990 L100 989 L99 989 L99 990 L100 990 "></path>
    </g>
    <g>
      <path fill="#000000" fill-rule="evenodd" d="M-55 859.5 L-25 843.5 L-10 830.5 L-7.5 829 L-6 827.5 L-6.5 827 L-10.5 828 L-12.5 830 L-14.5 831 L-25.5 838 L-33.5 844 L-36 845.5 L-44 848.625 L-48.5 851 L-57 859.5 L-56.5 860 L-55 859.5 M-1.5 830 L8 824.5 L10 823.625 L12.5 823 L13 822 L12.5 822 L9 822.5 L1 825.5 L-1.5 827 L-8 831.5 L-10.5 833 L-13 835.5 L-12.5 836 L-11 835.5 L-4 831.5 L-1.5 830 M-1 836.5 L5 833.5 L16.75 828.75 L16.375 826 L15.75 824.25 L13 824.625 L-20.75 843.25 L-20.75 844.75 L-19 844.625 L-10 840.5 L-3 837.5 L-1 836.5 M-13 837 L-13 836 L-14 836 L-14 837 L-13 837 M-21 846 L-21 845 L-22 845 L-22 846 L-21 846 M-44 857.375 L-25 847.5 L-23.5 847 L-23 846 L-23.5 846 L-26 846.625 L-46.5 857 L-47 858 L-44 857.375 M63 806.5 L65.5 806 L66 805 L65.5 805 L42.5 808 L42 809 L53 808.5 L63 806.5 M38.5 810 L39 809 L37.5 809 L37 810 L38.5 810 M22 820.375 L25 819.5 L34 815.5 L39 813.5 L45.5 812 L46 811 L39 811.5 L34 812.75 L19 819.375 L16.5 820 L16 821 L22 820.375 M29 813 L29 812 L28 812 L28 813 L29 813 M26.5 814 L27 813 L25.5 813 L25 814 L26.5 814 M16 818.5 L23 815.5 L24.5 815 L25 814 L24.5 814 L22 814.625 L15 817.625 L13.5 818 L13 819 L16 818.5 M12 820 L12 819 L11 819 L11 820 L12 820 M15.5 822 L16 821 L13.5 821 L13 822 L15.5 822 M17 824 L17 823 L16 823 L16 824 L17 824 M81.5 806 L82 805 L72.5 805 L72 806 L81.5 806 M132 815 L132 814 L131 814 L131 815 L132 815 M133.5 816 L134 815 L132.5 815 L132 816 L133.5 816 M129.5 817 L130 816 L128.5 816 L128 817 L129.5 817 M135.5 817 L136 816 L134.5 816 L134 817 L135.5 817 M138 818 L138 817 L137 817 L137 818 L138 818 M148.5 819 L149 818 L147.5 818 L147 819 L148.5 819 M150 820 L150 819 L149 819 L149 820 L150 820 M151.5 821 L152 820 L150.5 820 L150 821 L151.5 821 M164 828 L164 827 L163 827 L163 828 L164 828 M186.5 843 L187 842.5 L186 841.5 L186 840.5 L176.5 831 L174.5 833 L172.5 831 L171 830.5 L167 828.5 L165.5 828 L165 828.5 L166.5 830 L168.5 831 L180.5 839 L184 841.5 L186.5 843 M176 831 L176 830 L175 830 L175 831 L176 831 M182 843 L180.5 841 L178.5 840 L164 830.5 L159.5 827 L156 824.625 L153 823.5 L141 820.5 L137.5 820 L136.5 819 L136 819.5 L137 825.5 L138 826.5 L137 827.5 L137 828.5 L134.5 831 L134 830.5 L134.375 828 L134.5 823 L133.75 819.125 L114.25 816.75 L114.25 815.25 L127.5 816 L128 815 L127.5 815 L126 814.5 L124 813.5 L117 810.625 L113 809.625 L62 809.5 L39 815.625 L30 819.5 L25 821.625 L23.5 822 L22 823.5 L22 824.5 L20.5 826 L20 825.5 L20 824.5 L19.5 824 L18 825.5 L19 826.5 L19 827.5 L19.5 828 L20.5 827 L22 826.625 L30 823.5 L37 821.5 L62 816.25 L64 816.25 L68.75 817.125 L68.75 818.875 L64.5 819 L63.5 818 L62.5 819 L55 819.625 L45 821.5 L20.25 829.25 L19.75 830.75 L18.5 831 L17.5 830 L16.5 831 L15 831.5 L-9 842.5 L-21 847.625 L-46 860.5 L-51.5 864 L-53.5 865 L-60 871.5 L-59.5 872 L-55 871.25 L-53 871.375 L-50.5 872 L-49 873.5 L-49.5 874 L-55 873.25 L-60.5 874 L-61.5 875 L-63 873.5 L-61 869.5 L-55.5 864 L-50 860.5 L-48.5 860 L-47 858.5 L-47.5 858 L-49 858.5 L-51 859.5 L-64.5 868 L-66.5 869 L-68 870.5 L-67 871.5 L-74 880.5 L-74.75 882.75 L-73 883.25 L-66 883.375 L-60.5 882 L-59.5 881 L-59 881.5 L-59 882.5 L-60.5 884 L-66 885.375 L-73 885.25 L-75 884.5 L-76.75 884.25 L-80.375 893 L-84.5 907 L-89.25 927.75 L-90.75 927.75 L-91 926.5 L-92 926 L-93 946.5 L-94 947.5 L-93.5 948 L-92.125 948.25 L-90 969.5 L-88 971.5 L-87.5 973 L-83 979.5 L-81.5 981 L-80.25 981.25 L-80.25 982.75 L-82 982.5 L-83.75 981.75 L-88 975.5 L-89.5 974 L-90 974.5 L-89.75 976 L-80.5 1013 L-79.375 1016 L-79 1017.5 L-80 1018.5 L-79 1019.5 L-78.5 1023 L-71.5 1043 L-71 1045.5 L-70 1046.5 L-71.5 1048 L-72.5 1047 L-73 1047.5 L-72.625 1049 L-62.5 1075 L-62 1077.5 L-63 1078 L-65.375 1073 L-66 1070.5 L-69 1067.5 L-69.5 1066 L-85.5 1015 L-89.5 989 L-90.5 985 L-95.625 952 L-91.5 913 L-89 900.5 L-89 900 L-90 900.5 L-90.5 902 L-91.5 904 L-92.25 906 L-93.5 911 L-96.125 930.75 L-97.875 930.75 L-97.5 924 L-94.375 905 L-90.5 890 L-83.5 872 L-79.5 864 L-78.75 862.25 L-77.25 862.25 L-77.5 864 L-81.5 872 L-82 873.5 L-81.5 874 L-78.5 871 L-75.5 869 L-72.25 867.25 L-72 868.5 L-74.5 871 L-81.5 876 L-82.5 875 L-83 875.5 L-83.5 877 L-89.5 894 L-90 896.5 L-89.5 897 L-88 895.5 L-87.375 893 L-86.5 891 L-75.5 875 L-75 873.5 L-61.5 860 L-49.5 850 L-46.5 847 L-44 846.5 L-39 844.625 L-36.5 844 L-34.5 842 L-31.5 840 L-27 836.5 L-11 826.5 L-9 825.625 L0 823.25 L19 813.625 L24 811.625 L47 805.5 L75 802.25 L84 800.5 L92 800.625 L97.75 802.25 L97.75 803.75 L95 803.5 L92 802.75 L84 802.75 L82.5 803 L82 803 L82.5 804 L104 805.625 L118 808.75 L127 812.5 L129 813.5 L134 813.5 L136.5 814 L137.5 813 L139 814.5 L139.25 815.75 L146.5 818 L147 817.5 L145.5 816 L142.25 814.75 L142.25 813.25 L144.5 813 L146.5 815 L148.5 816 L151.5 818 L155.5 821 L159 823.375 L167 826.5 L173 829.5 L174.5 830 L175 829.5 L173 827.5 L173.25 826.25 L174.5 826 L185 836.5 L185 837.5 L192.5 845 L204 854.5 L212.5 860 L215 861.375 L217.75 862.25 L217.75 863.75 L215.5 864 L215 864.5 L221 870.5 L220.5 871 L218.5 871 L212.5 865 L209.5 863 L194.5 851 L188.5 847 L186.5 846 L184.5 844 L183 844 L183 843.5 L182.5 843 L182 843 M188 844 L188 843 L187 843 L187 844 L188 844 M189 845 L189 844 L188 844 L188 845 L189 845 M192 847 L192 846 L191 846 L191 847 L192 847 M-69 872 L-69 871 L-70 871 L-70 872 L-69 872 M-70 874 L-70 873 L-71 873 L-71 874 L-70 874 M-88.5 911 L-87 909.5 L-82 891.5 L-82.5 891 L-84 892.5 L-84.5 894 L-85.375 896 L-86.375 899 L-89 910.5 L-88.5 911 M-57 861 L-57 860 L-58 860 L-58 861 L-57 861 M-58.5 862 L-58 861 L-59.5 861 L-60 862 L-58.5 862 M-60 863 L-60 862 L-61 862 L-61 863 L-60 863 M-61 864 L-61 863 L-62 863 L-62 864 L-61 864 M213 863 L213 862 L212 862 L212 863 L213 863 M214.5 864 L215 863 L213.5 863 L213 864 L214.5 864 M-90 921 L-90 919.5 L-91 919 L-91 920 L-90 921 M-83 1015 L-83 1013.5 L-84 1013 L-84 1014 L-83 1015 M-82 1019 L-82 1016.5 L-83 1016 L-83 1018.5 L-82 1019 M-81 1023 L-81 1020.5 L-82 1020 L-82 1022.5 L-81 1023 M-80 1026 L-80 1023.5 L-81 1023 L-81 1025.5 L-80 1026 M-74.5 1044 L-74 1043.5 L-74.5 1041 L-78.5 1029 L-79 1026.5 L-80 1026 L-80 1026.5 L-79.5 1030 L-76.5 1040 L-76 1042.5 L-74.5 1044 "></path>
    </g>
  </g>
</svg>
