<svg xmlns="http://www.w3.org/2000/svg" viewBox="-558 779.75 384.375 522.5" width="384.375px" height="522.5px">
  <g>
    <g>
      <path fill="#000000" fill-rule="evenodd" d="M-338.5 916 L-340.75 915.75 L-341 913.5 L-341.5 913 L-343.5 915 L-344.5 915 L-346 913.5 L-344.5 912 L-343 911.5 L-339 909.625 L-333.5 908 L-331.5 906 L-328 905.375 L-326.5 905 L-325 906.5 L-326.5 908 L-327.5 907 L-328.5 908 L-330.5 908 L-331 908.5 L-330 909.5 L-332.5 912 L-336.5 914 L-338.5 916 M-340 913 L-340 912 L-341 912 L-341 913 L-340 913 "></path>
    </g>
    <g>
      <path fill="#000000" fill-rule="evenodd" d="M-380.25 915.875 L-385 915.375 L-396.75 916 L-396.75 914.125 L-386 913 L-386.5 912 L-393 911.375 L-398.5 910 L-399.5 911 L-400 910.5 L-400 909.5 L-398.5 908 L-389.5 910 L-387.5 908 L-385.5 910 L-375.25 910 L-375 911.5 L-376.5 913 L-385 913 L-384.5 914 L-380.25 914.125 L-380.25 915.875 "></path>
    </g>
    <g>
      <path fill="#000000" fill-rule="evenodd" d="M-320.5 959 L-324.5 961.5 L-339 970.5 L-341 971.375 L-355 975.25 L-366 975.375 L-371 974.375 L-375.5 973 L-376.5 972 L-377.5 973 L-378.5 972 L-381 971.5 L-386 969.5 L-391.5 966 L-393.5 964 L-395.5 964 L-398 961.5 L-408 949.5 L-409 947.5 L-410.5 946 L-413.5 945 L-415 943.5 L-415 942.5 L-414 941.5 L-415 940.5 L-415.25 939 L-417.375 932 L-420.625 924 L-421 922.5 L-421.5 922 L-422.5 923 L-424 921.5 L-422 919.5 L-424.375 906 L-424 892 L-425 892.5 L-426.25 895.75 L-427.75 895.75 L-427.625 894 L-424.375 886 L-424.375 884 L-425 881.5 L-428 878.5 L-428 877.5 L-430 875.5 L-430 873.5 L-429.5 873 L-424.5 878 L-423 876.5 L-424 875.5 L-423.375 871 L-421 863.5 L-419 861.5 L-418 859.5 L-406.5 845 L-405 842.5 L-401.5 839 L-399.5 838 L-394 834.5 L-381 829.5 L-373 827.625 L-360 827.625 L-349 829.5 L-342 831.625 L-334 835.5 L-328.5 839 L-326.5 841 L-324.5 841 L-323.5 842 L-321.5 840 L-319.5 840 L-318 841.5 L-319 842.5 L-318.75 844.75 L-317 845.5 L-311.25 849.25 L-310.5 851 L-305.5 859 L-302.5 863 L-300.5 866 L-296.5 876 L-293.5 887 L-292.625 892 L-292 903.5 L-293 904.5 L-292 905.5 L-293 906.5 L-293.625 913 L-294.5 917 L-300.625 933 L-304 938.5 L-306 940.5 L-305.5 941 L-301.25 941.125 L-301.25 942.875 L-307.5 943 L-310 945.5 L-311 948.5 L-312.5 950 L-313.75 950.25 L-316 954.5 L-320.5 959 M-390 836 L-390 835 L-391 835 L-391 836 L-390 836 M-391 837 L-391 836 L-392 836 L-392 837 L-391 837 M-386.5 839 L-384 836.5 L-384.25 835.25 L-386 835.5 L-387.5 836 L-389 837.5 L-388.75 838.75 L-386.5 839 M-393.5 839 L-392 837.5 L-392.5 837 L-393.5 837 L-395 838.5 L-394.5 839 L-393.5 839 M-395.5 840 L-395 839 L-396.5 839 L-397 840 L-395.5 840 M-397 841 L-397 840 L-398 840 L-398 841 L-397 841 M-391.5 846 L-390 844.5 L-390 843.5 L-388 841.5 L-389.5 840 L-390 840.5 L-391.5 844.5 L-391.5 846 M-386.5 844 L-385 842.5 L-385 841.5 L-385.5 841 L-387 843 L-386.5 844 M-393 844 L-393 843 L-394 843 L-394 844 L-393 844 M-398 845 L-398 844 L-399 844 L-399 845 L-398 845 M-394 846 L-394 844.5 L-395 844 L-395 845 L-394 846 M-399 846 L-399 845 L-400 845 L-400 846 L-399 846 M-400 847 L-400 846 L-401 846 L-401 847 L-400 847 M-401.5 855 L-397 850.5 L-395 846.5 L-395.5 846 L-399 849.5 L-399 850.5 L-403 854.5 L-402.5 855 L-401.5 855 M-413.5 864 L-412 862.5 L-410.5 860 L-401 847.5 L-401.5 847 L-410 855.5 L-412.5 860 L-413.5 862.5 L-413.5 864 M-378.5 838 L-375.5 835 L-372.5 836 L-366 829.5 L-366.5 829 L-372.5 829 L-373 830 L-370.25 830.25 L-370.25 831.875 L-375.75 832.125 L-377.5 835.5 L-378.5 838 M-350.5 863 L-342 854.5 L-339 849.5 L-331.5 842 L-329.5 842 L-329 841.5 L-330.5 840 L-331.5 840 L-334.5 837 L-337 836.375 L-343 833.625 L-349 831.5 L-364.5 829 L-365 829.5 L-364 830.5 L-366.5 834 L-368.75 837.75 L-366.5 838 L-365.5 839 L-362.5 836 L-360 836.625 L-357 835.5 L-354.5 834 L-352.5 832 L-350.25 832.25 L-350 835.5 L-352 837.5 L-352 838.5 L-355 841.5 L-354.5 842 L-349.25 842.125 L-350 844.5 L-351 846.5 L-353.5 849 L-354.75 849.25 L-359 855.5 L-360 857.5 L-362 859.5 L-361.5 860 L-360.5 860 L-358 857.5 L-353 850.5 L-346.5 844 L-345.5 844 L-343.5 842 L-341.25 842.25 L-343 845.5 L-345 848.5 L-344.5 849 L-342.5 847 L-341.25 847.25 L-341 849.5 L-346 854.5 L-347 856.5 L-349.5 860.5 L-350.5 863 M-383 835 L-383 834 L-384 834 L-384 835 L-383 835 M-380 836 L-380 835 L-381 835 L-381 836 L-380 836 M-383.5 878 L-382 876.5 L-380.5 874 L-359 844.5 L-357.5 842 L-353 835.5 L-353.5 835 L-359 840.5 L-380 867.5 L-386.5 874 L-387.75 873.75 L-387.5 872 L-376.5 859 L-367 845.5 L-366 843.5 L-365 842.5 L-365.5 842 L-366.5 842 L-373 848.5 L-391 870.5 L-394.5 876 L-397.375 882 L-398 884.5 L-397.5 885 L-396.5 884 L-395 883.5 L-387.5 878 L-385.5 876 L-383.5 878 M-381 837 L-381 836 L-382 836 L-382 837 L-381 837 M-382 839 L-382 837.5 L-383 837 L-383 838 L-382 839 M-379 839 L-379 838 L-380 838 L-380 839 L-379 839 M-359 839 L-359 838 L-360 838 L-360 839 L-359 839 M-383 840 L-383 839 L-384 839 L-384 840 L-383 840 M-380 840 L-380 839 L-381 839 L-381 840 L-380 840 M-376.5 850 L-374 847.5 L-374 846.5 L-369.5 842 L-368.5 842 L-367 840.5 L-367.5 840 L-369 839.5 L-370.75 839.25 L-376 848 L-376.5 850 M-360 840 L-360 839 L-361 839 L-361 840 L-360 840 M-384 841 L-384 840 L-385 840 L-385 841 L-384 841 M-361 841 L-361 840 L-362 840 L-362 841 L-361 841 M-374 842 L-374 841 L-375 841 L-375 842 L-374 842 M-328 847 L-328 845.5 L-326 843.5 L-327.5 842 L-328.5 842 L-329 842.5 L-328 843.5 L-329 844.5 L-329 846.5 L-328 847 M-381 845 L-381 844 L-382 844 L-382 845 L-381 845 M-376 845 L-376 844 L-377 844 L-377 845 L-376 845 M-326.5 849 L-323 845.5 L-323 844.5 L-323.5 844 L-327 848 L-326.5 849 M-382 846 L-382 845 L-383 845 L-383 846 L-382 846 M-377 846 L-377 845 L-378 845 L-378 846 L-377 846 M-331 846 L-331 845 L-332 845 L-332 846 L-331 846 M-379.5 849 L-378 847.5 L-378 846.5 L-378.5 846 L-380 848 L-379.5 849 M-312 942.5 L-309.5 942 L-308 940.5 L-306.5 938 L-304 934.5 L-302.5 932 L-300.625 928 L-296.625 917 L-295.625 913 L-295 906.5 L-294 905.5 L-295 904.5 L-294.625 892 L-299.625 873 L-302.5 867 L-303 865.5 L-305.5 863 L-311 868.5 L-311 869.5 L-315 873.5 L-314.5 874 L-313 873.5 L-309 871.5 L-307.5 871 L-305.5 869 L-303.5 869 L-302 870.5 L-302 871.5 L-302.5 872 L-303.5 871 L-305 871.5 L-312 875.25 L-316.75 875.875 L-317 874.5 L-317.5 874 L-320.5 877 L-321.5 877 L-323.5 879 L-325 877.5 L-323 875.5 L-323 874.5 L-323.5 874 L-332.5 883 L-336.5 885 L-338 883.5 L-335.5 881 L-334.5 881 L-331 877.5 L-329 874.5 L-322 865.5 L-316 855.5 L-316.5 855 L-326 864.5 L-327.5 867 L-334.5 876 L-336.25 878.75 L-337.5 879 L-340.5 882 L-342.75 881.75 L-341 878.5 L-327.5 862 L-326 859.5 L-326.5 859 L-328.5 861 L-329.5 861 L-331 862.5 L-337.5 871 L-339 873.5 L-345.5 880 L-347 880.5 L-349.5 882 L-351.75 882.75 L-352 881.5 L-350.5 880 L-349.5 880 L-348 878.5 L-346 875.5 L-334 859.5 L-333 857.5 L-333.5 857 L-339 862.5 L-347.5 873 L-355.5 884 L-357 886.5 L-362.5 892 L-363.75 891.75 L-364 889.5 L-361 886.5 L-359.5 884 L-343.5 864 L-341.5 861 L-340.5 859 L-335 850.5 L-334 848.5 L-332 846.5 L-332.5 846 L-333.5 846 L-335 847.5 L-336.5 850 L-339.5 854 L-341 856.5 L-346.5 862 L-347.5 862 L-349 863.5 L-361.5 881 L-363 883.5 L-368.5 889 L-369.75 888.75 L-369.375 886 L-368.5 884 L-368 882.5 L-368.5 882 L-371.5 885 L-373 885.5 L-374.75 885.75 L-374.5 884 L-371.75 879.25 L-370.25 878.75 L-369.5 877 L-368 874.5 L-359.5 863 L-358 860.5 L-358.5 860 L-362 863.5 L-363.5 866 L-369 873.5 L-370 875.5 L-371.5 877 L-372.5 877 L-375.5 880 L-377.5 878 L-378 878.5 L-378.25 879.75 L-382.5 881 L-384 882.5 L-384 884.5 L-385.5 886 L-386.5 886 L-391.5 891 L-393 889.5 L-390 886.5 L-390 885.5 L-387 882.5 L-387 880.5 L-387.5 880 L-391.5 884 L-392.5 884 L-394.5 886 L-396.5 886 L-397.5 887 L-398.5 886 L-399.75 885.75 L-399.5 882 L-397.5 877 L-397 875.5 L-397.5 875 L-398.5 876 L-399.5 875 L-406.5 882 L-407.5 881 L-408.5 882 L-409.5 882 L-411 880.5 L-410.5 879 L-405.5 869 L-405 867.5 L-405.5 867 L-407 868.5 L-408.5 871 L-411.5 875 L-413.25 877.75 L-414.5 878 L-416 879.5 L-415.5 880 L-414.25 880.25 L-414.75 883.75 L-413 884.5 L-411 885.5 L-406 887.5 L-402 888.625 L-397 890.5 L-389 892.5 L-364 894.625 L-319 886.375 L-317 885.5 L-311.5 882 L-309 879.5 L-308.75 878.25 L-304 875.5 L-302.5 875 L-301 876.5 L-301 877.5 L-301.5 878 L-302.5 877 L-305.5 878 L-307 879.5 L-307 881.5 L-309.5 884 L-310.5 884 L-312 885.5 L-311.5 886 L-309.5 886 L-308.5 887 L-304.5 883 L-303.25 883.25 L-303 884.5 L-308 889.5 L-307 890.5 L-306.75 893.75 L-301.25 895.25 L-301.25 896.75 L-308 896.25 L-308 918.5 L-307.5 919 L-306.5 918 L-305 917.625 L-302 916.5 L-299.25 916.25 L-299.25 917.75 L-302 918.625 L-306 920.5 L-307.5 921 L-309 922.5 L-309.5 927 L-311.5 935 L-313.5 940 L-314 941.5 L-315 942.5 L-314.5 943 L-312 942.5 M-329 848 L-329 847 L-330 847 L-330 848 L-329 848 M-384 849 L-384 848 L-385 848 L-385 849 L-384 849 M-330 849 L-330 848 L-331 848 L-331 849 L-330 849 M-317.5 853 L-315 850.5 L-315 849.5 L-317.5 847 L-319 846.625 L-321.75 846.25 L-331 858.5 L-333 861.5 L-332.5 862 L-322.5 852 L-320.5 851 L-318.25 850.25 L-318 852.5 L-317.5 853 M-391 851 L-391 849.5 L-392 849 L-392 850 L-391 851 M-393.5 854 L-392 852.5 L-392 851.5 L-392.5 851 L-394 853 L-393.5 854 M-387 853 L-387 852 L-388 852 L-388 853 L-387 853 M-411 855 L-411 854 L-412 854 L-412 855 L-411 855 M-399.5 863 L-397 860.5 L-394.5 856 L-394 854.5 L-394.5 854 L-397 856.5 L-397 857.5 L-401 861.5 L-399.5 863 M-388 855 L-388 854 L-389 854 L-389 855 L-388 855 M-403 856 L-403 855 L-404 855 L-404 856 L-403 856 M-404 857 L-404 856 L-405 856 L-405 857 L-404 857 M-405.25 858.75 L-405 857.5 L-405.5 857 L-407 858.5 L-406.5 859 L-405.25 858.75 M-390 858 L-390 857 L-391 857 L-391 858 L-390 858 M-384 855.5 L-383 853.5 L-383.5 853 L-386 855.5 L-389 860.5 L-393 864.5 L-393 866.5 L-392.5 867 L-390 864.5 L-388.5 861.5 L-384 855.5 M-414 859 L-414 858 L-415 858 L-415 859 L-414 859 M-415 861 L-415 859.5 L-416 859 L-416 860 L-415 861 M-403 861 L-403 860 L-404 860 L-404 861 L-403 861 M-392 861 L-392 860 L-393 860 L-393 861 L-392 861 M-418.5 866 L-417 864.5 L-416 861.5 L-416.5 861 L-418 862.5 L-418.5 864.5 L-418.5 866 M-393 862 L-393 861 L-394 861 L-394 862 L-393 862 M-401 863 L-401 862 L-402 862 L-402 863 L-401 863 M-405 864 L-405 863 L-406 863 L-406 864 L-405 864 M-414 865 L-414 864 L-415 864 L-415 865 L-414 865 M-406 865 L-406 864 L-407 864 L-407 865 L-406 865 M-395 865 L-395 864 L-396 864 L-396 865 L-395 865 M-415 866 L-415 865 L-416 865 L-416 866 L-415 866 M-419 868 L-419 866.5 L-420 866 L-420 867 L-419 868 M-404 867 L-404 866 L-405 866 L-405 867 L-404 867 M-401 867 L-401 866 L-402 866 L-402 867 L-401 867 M-393 868 L-393 867 L-394 867 L-394 868 L-393 868 M-420 870 L-420 868.5 L-421 868 L-421 869 L-420 870 M-398 869 L-398 868 L-399 868 L-399 869 L-398 869 M-394 870 L-394 869 L-395 869 L-395 870 L-394 870 M-417 871 L-417 870 L-418 870 L-418 871 L-417 871 M-421 872 L-421 871 L-422 871 L-422 872 L-421 872 M-418 873 L-418 871.5 L-419 871 L-419 872 L-418 873 M-419 875 L-419 873.5 L-420 873 L-420 874 L-419 875 M-403 875 L-403 874 L-404 874 L-404 875 L-403 875 M-420 877 L-420 875.5 L-421 875 L-421 876 L-420 877 M-404.25 876.75 L-404 875.5 L-404.5 875 L-406 876.5 L-405.5 877 L-404.25 876.75 M-421 880 L-421 877.5 L-422 877 L-422 879.5 L-421 880 M-406 878 L-406 877 L-407 877 L-407 878 L-406 878 M-407 879 L-407 878 L-408 878 L-408 879 L-407 879 M-423 884 L-423 883 L-424 883 L-424 884 L-423 884 M-321.5 897 L-319 895.5 L-317.25 894.75 L-317 891.5 L-315.5 890 L-314.25 889.75 L-314.25 887.25 L-316 887.5 L-317.5 888 L-319.5 890 L-334 894.375 L-338 895.375 L-360 898.125 L-385 898.25 L-390 897.375 L-396 895.625 L-400.75 894.875 L-400.75 893.25 L-398.5 893 L-398 892 L-398.5 892 L-400 891.625 L-416 885.375 L-417.5 885 L-418 885.5 L-417 886.5 L-417 887.5 L-414.5 890 L-413 890.5 L-408.5 893 L-406.5 895 L-404 895.5 L-398 897.375 L-393.5 898 L-391.5 900 L-383 900.5 L-369 903.25 L-354.5 905 L-353.5 904 L-352.5 905 L-348 905.75 L-346 905.75 L-331.5 903 L-329.5 901 L-327 900.375 L-321.5 897 M-417 891 L-417 889.5 L-418 889 L-418 890 L-417 891 M-321 913.375 L-312 909.5 L-310 908.75 L-310 892.25 L-311.75 892.25 L-313.25 898.75 L-314.5 899 L-316 897.5 L-316 896.5 L-316.5 896 L-317.5 897 L-323 900.5 L-327 902.5 L-328.5 903 L-330.5 905 L-346 907.75 L-370 905.25 L-377 903.5 L-392 901.25 L-400 899.25 L-407 896.5 L-414.5 892 L-416.75 891.25 L-416.625 893 L-410.625 910 L-410.25 912.75 L-411.75 912.75 L-417.375 897 L-418 894.5 L-419 894 L-417.25 909 L-416.5 911 L-413.75 915.75 L-410.25 917.25 L-410.25 918.75 L-412 919.5 L-413.75 919.75 L-414 918.5 L-415.5 917 L-416.5 917 L-417.5 916 L-418 916.5 L-417.875 921.75 L-401.5 924 L-399.5 926 L-395.25 925.875 L-395 924.5 L-393.5 923 L-392 922.5 L-390 921.5 L-370 913.625 L-367.5 913 L-366.5 914 L-365.5 913 L-360.5 912 L-359.5 911 L-358 912.5 L-359.5 914 L-363 914.625 L-365 915.375 L-367.5 916 L-369.5 918 L-372.5 919 L-373 920 L-369.5 920 L-368.5 919 L-367 920.5 L-367.5 921 L-377.75 922 L-377.75 920.25 L-376.5 920 L-375 918.5 L-375.5 918 L-377 918.375 L-391 924.5 L-392.75 925.25 L-393 926.5 L-391.5 928 L-388 928.625 L-386 929.25 L-380 930.5 L-374.5 931 L-373.5 930 L-371.5 932 L-362.5 932 L-361 930.5 L-361.5 930 L-362.75 929.75 L-363 926.5 L-356.5 920 L-356 920.5 L-356 922.5 L-361 927.5 L-360.75 928.875 L-356 928.5 L-352 927.5 L-341 923.375 L-328 916.5 L-324 914.625 L-321 913.375 M-394 894 L-394 893 L-395 893 L-395 894 L-394 894 M-389.5 895 L-389 894 L-392.5 894 L-393 895 L-389.5 895 M-385.5 896 L-385 895 L-388.5 895 L-389 896 L-385.5 896 M-421.5 898 L-421 897.5 L-421.25 896.25 L-422.5 896 L-423 896.5 L-421.5 898 M-420 915 L-420 908.5 L-421 908 L-421 914.5 L-420 915 M-385 850 L-385 849 L-386 849 L-386 850 L-385 850 M-380 850 L-380 849 L-381 849 L-381 850 L-380 850 M-345 850 L-345 849 L-346 849 L-346 850 L-345 850 M-332.5 852 L-331 850.5 L-331 849.5 L-331.5 849 L-333 851 L-332.5 852 M-327 850 L-327 849 L-328 849 L-328 850 L-327 850 M-382.5 853 L-381 851.5 L-381 850.5 L-381.5 850 L-383 852 L-382.5 853 M-377 851 L-377 850 L-378 850 L-378 851 L-377 851 M-346 851 L-346 850 L-347 850 L-347 851 L-346 851 M-329.5 853 L-328 851.5 L-328 850.5 L-328.5 850 L-330 852 L-329.5 853 M-378 852 L-378 851 L-379 851 L-379 852 L-378 852 M-347 852 L-347 851 L-348 851 L-348 852 L-347 852 M-379 854 L-379 852.5 L-380 852 L-380 853 L-379 854 M-348 853 L-348 852 L-349 852 L-349 853 L-348 853 M-333 853 L-333 852 L-334 852 L-334 853 L-333 853 M-349 854 L-349 853 L-350 853 L-350 854 L-349 854 M-334 855 L-334 853.5 L-335 853 L-335 854 L-334 855 M-332.5 857 L-330 854.5 L-330 853.5 L-330.5 853 L-333 856 L-332.5 857 M-380 855 L-380 854 L-381 854 L-381 855 L-380 855 M-350 855 L-350 854 L-351 854 L-351 855 L-350 855 M-381 856 L-381 855 L-382 855 L-382 856 L-381 856 M-335 856 L-335 855 L-336 855 L-336 856 L-335 856 M-351 857 L-351 856 L-352 856 L-352 857 L-351 857 M-336 857 L-336 856 L-337 856 L-337 857 L-336 857 M-355 858 L-355 857 L-356 857 L-356 858 L-355 858 M-352 858 L-352 857 L-353 857 L-353 858 L-352 858 M-324 858 L-324 857 L-325 857 L-325 858 L-324 858 M-356 859 L-356 858 L-357 858 L-357 859 L-356 859 M-353 859 L-353 858 L-354 858 L-354 859 L-353 859 M-325 859 L-325 858 L-326 858 L-326 859 L-325 859 M-357 860 L-357 859 L-358 859 L-358 860 L-357 860 M-363 863 L-363 862 L-364 862 L-364 863 L-363 863 M-333 863 L-333 862 L-334 862 L-334 863 L-333 863 M-351 864 L-351 863 L-352 863 L-352 864 L-351 864 M-355 865 L-355 864 L-356 864 L-356 865 L-355 865 M-352 865 L-352 864 L-353 864 L-353 865 L-352 865 M-353 866 L-353 865 L-354 865 L-354 866 L-353 866 M-366 867 L-366 866 L-367 866 L-367 867 L-366 867 M-359 867 L-359 866 L-360 866 L-360 867 L-359 867 M-367 868 L-367 867 L-368 867 L-368 868 L-367 868 M-354 868 L-354 867 L-355 867 L-355 868 L-354 868 M-355 869 L-355 868 L-356 868 L-356 869 L-355 869 M-361 870 L-361 869 L-362 869 L-362 870 L-361 870 M-356 870 L-356 869 L-357 869 L-357 870 L-356 870 M-369 871 L-369 870 L-370 870 L-370 871 L-369 871 M-362 871 L-362 870 L-363 870 L-363 871 L-362 871 M-357 872 L-357 870.5 L-358 870 L-358 871 L-357 872 M-370 872 L-370 871 L-371 871 L-371 872 L-370 872 M-340 872 L-340 871 L-341 871 L-341 872 L-340 872 M-363 873 L-363 872 L-364 872 L-364 873 L-363 873 M-358 873 L-358 872 L-359 872 L-359 873 L-358 873 M-371 874 L-371 873 L-372 873 L-372 874 L-371 874 M-364 874 L-364 873 L-365 873 L-365 874 L-364 874 M-359 875 L-359 873.5 L-360 873 L-360 874 L-359 875 M-322 874 L-322 873 L-323 873 L-323 874 L-322 874 M-372 875 L-372 874 L-373 874 L-373 875 L-372 875 M-365 876 L-365 874.5 L-366 874 L-366 875 L-365 876 M-360 876 L-360 875 L-361 875 L-361 876 L-360 876 M-366 877 L-366 876 L-367 876 L-367 877 L-366 877 M-376 878 L-376 877 L-377 877 L-377 878 L-376 878 M-361 878 L-361 877 L-362 877 L-362 878 L-361 878 M-362 879 L-362 878 L-363 878 L-363 879 L-362 879 M-368 880 L-368 879 L-369 879 L-369 880 L-368 880 M-367 882 L-367 881 L-368 881 L-368 882 L-367 882 M-364 882 L-364 881 L-365 881 L-365 882 L-364 882 M-366 885 L-366 884 L-367 884 L-367 885 L-366 885 M-338.5 894 L-338 893 L-341.5 893 L-342 894 L-338.5 894 M-379.5 897 L-379 896 L-379.5 896 L-382 895.375 L-383.75 895.25 L-383.75 896.875 L-379.5 897 M-369.5 897 L-369 896 L-377.5 896 L-378 897 L-369.5 897 M-360.5 897 L-360 896 L-363.5 896 L-364 897 L-360.5 897 M-318 854 L-318 853 L-319 853 L-319 854 L-318 854 M-318.5 866 L-313.5 861 L-310.5 861 L-309.5 862 L-308 860.5 L-308 858.5 L-310 856.5 L-311 853.5 L-311.5 853 L-314 855.5 L-314.5 857 L-318.5 864.5 L-318.5 866 M-319 855 L-319 854 L-320 854 L-320 855 L-319 855 M-315 855 L-315 854 L-316 854 L-316 855 L-315 855 M-313 866 L-313 865 L-314 865 L-314 866 L-313 866 M-319 867 L-319 866 L-320 866 L-320 867 L-319 867 M-320 868 L-320 867 L-321 867 L-321 868 L-320 868 M-321 869 L-321 868 L-322 868 L-322 869 L-321 869 M-318 869 L-318 868 L-319 868 L-319 869 L-318 869 M-320 872 L-320 871 L-321 871 L-321 872 L-320 872 M-315 872 L-315 871 L-316 871 L-316 872 L-315 872 M-321 873 L-321 872 L-322 872 L-322 873 L-321 873 M-311 890 L-311 887.5 L-312 887 L-312 889.5 L-311 890 M-320 926.5 L-317 925.375 L-315.5 925 L-310 919.5 L-310 911.25 L-312 911.5 L-317 914.5 L-318.5 915 L-319.5 916 L-320.5 915 L-321.5 916 L-323 916.5 L-334 922.5 L-338 924.375 L-345.75 927.25 L-345.75 929.75 L-344 929.875 L-320 926.5 M-385.5 933 L-385 932.5 L-386.5 931 L-389 930.5 L-392 929.375 L-404 925.875 L-416.5 925 L-417.5 924 L-418 924.5 L-414.75 933.75 L-411 933.5 L-408.25 932.75 L-407.75 930.25 L-406.25 930.25 L-405.75 933 L-385.5 933 M-410.5 941 L-410 940.5 L-409.25 935.25 L-411 935.5 L-412.75 936.25 L-412.5 938.5 L-410.5 941 M-402.5 936 L-402 935 L-405.5 935 L-406 936 L-402.5 936 M-377 939.625 L-369 936.625 L-366.5 936 L-366 935 L-391.5 936 L-392 937 L-386 937.5 L-382 938.5 L-379 939.625 L-377 939.625 M-406.5 939 L-406 938 L-407.5 938 L-408 939 L-406.5 939 M-386 942.5 L-382.5 942 L-382 941.5 L-383.5 940 L-392 938.5 L-398 938.5 L-407.5 941 L-408 941.5 L-405.5 944 L-394 944.375 L-386 942.5 M-386.5 950 L-384.5 948 L-383 947.5 L-378.5 945 L-378 944 L-385 944.625 L-396.5 947 L-397 948 L-396.5 948 L-390 949.5 L-386.5 950 M-403.5 948 L-403 947 L-404.5 947 L-405 948 L-403.5 948 M-393 953.5 L-391.5 953 L-390 951.5 L-390.5 951 L-394 950.5 L-400 948.5 L-402.5 948 L-403 948.5 L-401.5 950 L-400 950.5 L-395 953.5 L-393 953.5 M-405 950 L-405 949 L-406 949 L-406 950 L-405 950 M-404 951 L-404 950 L-405 950 L-405 951 L-404 951 M-386 964.375 L-384.5 964 L-384 963 L-387.75 962.75 L-387.75 961.25 L-386.5 961 L-386 960 L-386.5 960 L-394.5 959 L-396 957.5 L-396 955.5 L-397.5 954 L-399 953.5 L-403.5 951 L-404 951.5 L-397 958.5 L-397 959.5 L-394.5 962 L-392.5 962 L-389.5 965 L-386 964.375 M-384 955.5 L-380 954.5 L-376.5 954 L-376 953 L-385.5 953 L-386.5 952 L-387.5 953 L-390.5 954 L-392 955.5 L-391.5 956 L-390 956.375 L-387 956.5 L-384 955.5 M-373 918 L-373 917 L-374 917 L-374 918 L-373 918 M-313.5 935 L-313 934.5 L-311 924.5 L-311.5 924 L-312.5 925 L-317 927.375 L-320 928.5 L-323 929.375 L-350.5 932 L-351 933 L-350.5 933 L-343 934.5 L-336.5 935 L-335.5 936 L-334.5 935 L-328 935.75 L-326 935.5 L-319 932.625 L-316.5 932 L-315.5 931 L-315 931.5 L-315 933.5 L-313.5 935 M-358.5 932 L-358 931 L-360.5 931 L-361 932 L-358.5 932 M-360 940.5 L-349 938.5 L-344.5 938 L-343 936.5 L-343.5 936 L-357 935.75 L-359 936.5 L-365 939.5 L-366.5 940 L-367 941 L-360 940.5 M-328 937 L-328 936 L-329 936 L-329 937 L-328 937 M-365 938 L-365 937 L-366 937 L-366 938 L-365 938 M-331 938 L-331 937 L-332 937 L-332 938 L-331 938 M-322 937.5 L-322.5 937 L-324 937.375 L-329 939.375 L-331.5 940 L-333 941.5 L-332.75 942.75 L-331 942.5 L-327 940.5 L-324.5 939.5 L-322 937.5 M-367 939 L-367 938 L-368 938 L-368 939 L-367 939 M-355.5 947 L-354.5 946 L-352 945.5 L-337 940.375 L-335.5 940 L-334 938.5 L-334.5 938 L-339 938.5 L-348 940.5 L-364.5 943 L-365 944 L-364.5 944 L-361 944.5 L-358 945.625 L-355.5 947 M-369.5 940 L-369 939 L-370.5 939 L-371 940 L-369.5 940 M-371.5 941 L-371 940 L-373.5 940 L-374 941 L-371.5 941 M-326 943 L-326 942 L-327 942 L-327 943 L-326 943 M-338 944 L-338 943 L-339 943 L-339 944 L-338 944 M-333 944 L-333 943 L-334 943 L-334 944 L-333 944 M-358 956.5 L-351 954.625 L-345.5 954 L-341.5 950 L-340.25 950.25 L-340 951.5 L-341 952.5 L-340.5 953 L-337 952.375 L-335.5 952 L-327 943.5 L-327.5 943 L-329 943.5 L-331 944.5 L-360 955.5 L-361.5 956 L-362 957 L-358 956.5 M-322 945.5 L-320 944.5 L-318.5 944 L-316 941.5 L-315.5 940 L-314.625 938 L-314 935.5 L-314.5 935 L-315.5 936 L-316.75 936.25 L-317 937.5 L-318.5 939 L-319.5 939 L-322 941.5 L-323 944.5 L-324 945.5 L-323.5 946 L-322 945.5 M-374 950.5 L-365 949.375 L-359.5 948 L-359 947 L-359.5 947 L-369 944.5 L-374 944.75 L-379 947.5 L-380.5 948 L-382 949.5 L-381.75 950.875 L-374 950.5 M-340 945 L-340 944 L-341 944 L-341 945 L-340 945 M-326 947 L-326 946 L-327 946 L-327 947 L-326 947 M-327 948 L-327 947 L-328 947 L-328 948 L-327 948 M-349.5 950 L-349 949 L-351.5 949 L-352 950 L-349.5 950 M-321 949.5 L-321.5 949 L-324.5 950 L-326 951.5 L-325.25 952.75 L-321 949.5 M-352.5 951 L-352 950 L-353.5 950 L-354 951 L-352.5 951 M-374 959.25 L-372 958.5 L-361.5 953 L-360 951.5 L-360.5 951 L-380 956.5 L-383.5 957 L-385 958.5 L-384.5 959 L-374 959.25 M-333 957.5 L-330.5 957 L-328.5 955 L-327.5 955 L-327 954.5 L-328 953.5 L-328 952.5 L-328.5 952 L-329.5 953 L-333.5 955 L-336 957.5 L-335.5 958 L-333 957.5 M-370 965.375 L-366 964.5 L-350 958.5 L-348.5 958 L-347 956.5 L-347.5 956 L-353.75 957.25 L-354.25 958.75 L-371 962.5 L-375.5 963 L-377.5 965 L-378.5 965 L-379 966 L-370 965.375 M-320.5 957 L-319 955.5 L-319.5 955 L-321 955.5 L-326 958.5 L-327.5 959 L-329 960.5 L-328.5 961 L-324.5 959.5 L-320.5 957 M-362.5 958 L-362 957 L-364.5 957 L-365 958 L-362.5 958 M-366 959 L-366 958 L-367 958 L-367 959 L-366 959 M-341 960.375 L-339 959.625 L-336.5 959 L-336 958 L-336.5 958 L-340 958.625 L-342 959.5 L-343.5 960 L-344 961 L-341 960.375 M-344.5 962 L-344 961 L-345.5 961 L-346 962 L-344.5 962 M-345 970.375 L-340 968.625 L-337.5 968 L-334.5 965 L-330.5 963 L-329 961.5 L-329.5 961 L-331 961.5 L-343 967.5 L-348 969.625 L-349.5 970 L-350 971 L-345 970.375 M-346.5 963 L-346 962 L-348.5 962 L-349 963 L-346.5 963 M-340 963 L-340 962 L-341 962 L-341 963 L-340 963 M-349.5 964 L-349 963 L-350.5 963 L-351 964 L-349.5 964 M-341.5 964 L-341 963 L-342.5 963 L-343 964 L-341.5 964 M-352.5 965 L-352 964 L-353.5 964 L-354 965 L-352.5 965 M-350 967.5 L-345 965.5 L-343.5 965 L-343 964 L-343.5 964 L-346 964.5 L-351 966.375 L-353.5 967 L-354 968 L-350 967.5 M-354 966 L-354 965 L-355 965 L-355 966 L-354 966 M-360.5 967 L-360 966 L-361.5 966 L-362 967 L-360.5 967 M-356 967 L-356 966 L-357 966 L-357 967 L-356 967 M-368.25 972.75 L-368 971.5 L-366.5 970 L-363.5 969 L-362 967.5 L-362.5 967 L-378 968.875 L-380 968.5 L-382 967.625 L-385.5 967 L-386 968 L-385.5 968 L-381 969.25 L-375.5 970 L-373.5 972 L-368.25 972.75 M-362 972.5 L-355.25 970.75 L-355 969.5 L-357.5 967 L-358.5 968 L-363 970.5 L-364.5 971 L-366 972.5 L-365.5 973 L-362 972.5 M-350.5 972 L-350 971 L-351.5 971 L-352 972 L-350.5 972 M-353 973 L-353 972 L-354 972 L-354 973 L-353 973 M-355.5 974 L-355 973 L-356.5 973 L-357 974 L-355.5 974 M-316.5 948 L-315 946.5 L-315.5 946 L-316.75 946.75 L-316.5 948 M-320 949 L-320 948 L-321 948 L-321 949 L-320 949 M-317 949 L-317 948 L-318 948 L-318 949 L-317 949 M-318 950 L-318 949 L-319 949 L-319 950 L-318 950 M-317 953 L-317 951.5 L-318 951 L-318 952 L-317 953 "></path>
    </g>
    <g>
      <path fill="#000000" fill-rule="evenodd" d="M-285.5 1224 L-292 1222.38 L-294.5 1222 L-295.5 1223 L-296.5 1222 L-302.5 1222 L-303.5 1221 L-304 1221.5 L-304.25 1222.75 L-305.75 1222.75 L-305.75 1219.25 L-303 1219.25 L-284.5 1222 L-284 1222.5 L-285.5 1224 "></path>
    </g>
    <g>
      <path fill="#000000" fill-rule="evenodd" d="M-434 1181.5 L-435.75 1181.75 L-435.375 1179 L-434.5 1177 L-431 1171.5 L-429.75 1169.25 L-428.25 1169.25 L-428.5 1171 L-431.5 1176 L-432 1177.5 L-433 1178.5 L-432 1179.5 L-432.25 1180.75 L-434 1181.5 "></path>
    </g>
    <g>
      <path fill="#000000" fill-rule="evenodd" d="M-422 1183.5 L-424.75 1184.75 L-424.375 1182 L-423 1179.5 L-414 1166.5 L-413 1164.5 L-411.5 1163 L-410.25 1163.25 L-411 1165.5 L-415 1171.5 L-416 1173.5 L-415.5 1174 L-412 1170.5 L-411.75 1169.25 L-410.25 1169.25 L-410.5 1171 L-416 1178.5 L-419.5 1182 L-422 1183.5 M-418.5 1178 L-416 1175.5 L-416 1174.5 L-416.5 1174 L-419 1177 L-418.5 1178 M-419 1179 L-419 1178 L-420 1178 L-420 1179 L-419 1179 M-420 1180 L-420 1179 L-421 1179 L-421 1180 L-420 1180 "></path>
    </g>
    <g>
      <path fill="#000000" fill-rule="evenodd" d="M-400.5 1181 L-401.5 1178.5 L-400 1175.5 L-391.5 1162 L-391 1160.5 L-389.5 1159 L-388 1160.5 L-389 1161.5 L-390 1163.5 L-395 1171.5 L-396 1173.5 L-398 1175.5 L-397.5 1176 L-392.5 1173 L-392 1173.5 L-393 1174.5 L-393.25 1175.75 L-399.5 1180 L-400.5 1181 "></path>
    </g>
    <g>
      <path fill="#000000" fill-rule="evenodd" d="M-444.25 1181.75 L-445.75 1181.75 L-446 1178.5 L-444 1176.5 L-433.5 1158 L-433 1156.5 L-433.5 1156 L-436 1158.5 L-438.5 1162 L-443 1167.5 L-445 1170.5 L-449.5 1175 L-450.5 1175 L-451.5 1176 L-453 1174.5 L-452.5 1173 L-450.625 1169 L-450 1166.5 L-450.5 1166 L-452 1167.5 L-452.25 1168.75 L-454 1169.5 L-455.75 1169.75 L-455.375 1167 L-452 1158.5 L-450 1156.5 L-448.75 1152.25 L-447.25 1152.25 L-447.375 1154 L-449.5 1159 L-450.5 1161 L-451 1162.5 L-450.5 1163 L-449 1161.5 L-448.5 1160 L-443 1151.5 L-442 1149.5 L-441 1148.5 L-442.5 1147 L-444 1146.5 L-448 1144.5 L-449.5 1144 L-452 1141.5 L-452 1140.5 L-451.5 1140 L-450.5 1141 L-442 1145.38 L-439.5 1146 L-437.5 1144 L-435.25 1144.25 L-435.75 1147.88 L-417 1148.38 L-405.5 1147 L-405 1147.5 L-406.5 1149 L-417 1150.38 L-427.75 1151 L-441.375 1176 L-442 1178.5 L-444 1180.5 L-444.25 1181.75 M-451 1164 L-451 1163 L-452 1163 L-452 1164 L-451 1164 M-448.5 1171 L-446 1168.5 L-444 1165.5 L-436 1155.5 L-433.5 1153 L-432.5 1153 L-430 1150.5 L-430.5 1150 L-436 1149.25 L-437.75 1149.25 L-446.375 1164 L-448.5 1169.5 L-448.5 1171 M-432 1156 L-432 1155 L-433 1155 L-433 1156 L-432 1156 M-449 1166 L-449 1165 L-450 1165 L-450 1166 L-449 1166 "></path>
    </g>
    <g>
      <path fill="#000000" fill-rule="evenodd" d="M-319.25 1101.75 L-320.5 1102 L-322 1100.5 L-322.5 1099 L-327.5 1088 L-328 1086.5 L-330 1084.5 L-330 1057.5 L-331.5 1056 L-332 1056.5 L-331.25 1065.75 L-332.75 1065.75 L-333.375 1063 L-333.25 1056 L-332.75 1054.25 L-330.5 1054 L-329 1055.5 L-329 1077 L-328 1076.5 L-327.5 1072 L-323.75 1058.25 L-321.25 1058.25 L-321.5 1060 L-323.5 1065 L-326.625 1077 L-326.625 1080 L-325.375 1086 L-324 1090.5 L-319.5 1095 L-315.5 1095 L-314 1096.5 L-314.5 1097 L-319.5 1097 L-320.5 1096 L-321 1096.5 L-320.5 1098 L-319.5 1100 L-319.25 1101.75 M-328 1082 L-328 1080.5 L-329 1080 L-329 1081 L-328 1082 "></path>
    </g>
    <g>
      <path fill="#000000" fill-rule="evenodd" d="M-243 1302.25 L-293 1297.5 L-325 1288.5 L-330 1286.63 L-332.5 1286 L-334.5 1284 L-335.5 1284 L-337 1282.5 L-336.75 1281.25 L-331.25 1281.75 L-327 1262.5 L-326.5 1262 L-325 1263.5 L-327 1278.5 L-326.5 1279 L-325.5 1278 L-319 1278.63 L-315 1279.5 L-294.25 1287.25 L-293.75 1288.88 L-245.5 1294 L-244 1292.5 L-243 1289.5 L-236.5 1283 L-232.5 1281 L-231 1279.5 L-232 1266.5 L-234.5 1264 L-240 1264.75 L-242 1264.75 L-247 1263.25 L-248.875 1263.25 L-249 1284.5 L-249.5 1285 L-251 1283.5 L-251.125 1263 L-299 1262.63 L-303.5 1264 L-306 1266.5 L-306 1267.5 L-306.5 1268 L-308 1266.5 L-307 1265.5 L-307 1264.5 L-305.5 1263 L-304 1263 L-304.5 1262 L-308.75 1262.13 L-309.25 1263.75 L-311 1264.5 L-312.75 1264.75 L-313 1263.5 L-312 1262.5 L-312.5 1262 L-313.75 1261.75 L-313.375 1257 L-315.25 1249.25 L-316.5 1249 L-320 1245.5 L-320 1244.5 L-322 1242.5 L-322.625 1240 L-322.75 1238.25 L-321.25 1238.25 L-321 1239.5 L-320.5 1240 L-319 1238.5 L-319.625 1235 L-320.5 1233 L-326 1224.5 L-327.375 1222 L-328 1219.5 L-330 1217.5 L-332 1213.5 L-338.5 1207 L-341 1205.5 L-344.5 1203 L-346.5 1202 L-348.5 1200 L-351 1199.38 L-362 1195.63 L-372 1193.25 L-377.5 1194 L-378.5 1193 L-379.5 1194 L-383.5 1195 L-384 1195 L-383.5 1196 L-378.5 1199 L-377 1200.5 L-377 1201.5 L-376 1202.5 L-376.5 1203 L-378.75 1202.75 L-379 1201.5 L-380.5 1200 L-385 1197.5 L-386.5 1197 L-389 1199.5 L-390 1202.5 L-391.5 1204 L-392.5 1204 L-393 1203.5 L-392 1202.5 L-391 1198.5 L-389 1196.5 L-390.5 1195 L-404.5 1194 L-405.5 1193 L-406.5 1194 L-412 1194.75 L-414 1195.5 L-418 1197.5 L-419.5 1198 L-430 1208.5 L-438 1221.5 L-440.5 1225 L-442.25 1227.88 L-446.75 1228.13 L-447.625 1231 L-454.375 1251 L-455 1254.5 L-455 1255 L-454 1254.5 L-453.5 1253 L-450.5 1246 L-447.5 1240 L-447 1238.5 L-440.5 1232 L-438.5 1232 L-437.5 1231 L-437 1231.5 L-437 1232.5 L-438.5 1234 L-439.5 1234 L-446 1240.5 L-446.5 1242 L-448.375 1246 L-449 1248.5 L-448.5 1249 L-447.5 1248 L-446.25 1248.25 L-447 1250.5 L-448 1252.5 L-451.5 1256 L-452.75 1256.25 L-455.625 1269 L-455 1277.5 L-454 1278.5 L-455.5 1280 L-456.875 1279.75 L-457.625 1269 L-456.375 1262 L-455 1256.5 L-457 1254.5 L-456.25 1249.13 L-463.5 1250 L-467 1253.5 L-467 1254.5 L-465 1256.5 L-462.5 1276 L-461 1282.5 L-459.5 1284 L-458 1284.5 L-446 1289.5 L-443.25 1290.25 L-443 1291.5 L-441 1293.5 L-442.5 1295 L-444 1293.5 L-444.25 1292.25 L-451 1289.75 L-457 1289.5 L-464.75 1291.25 L-464.75 1293 L-455 1293.75 L-449.25 1295.25 L-449.25 1296.75 L-455 1296.63 L-457 1297.38 L-477 1301.38 L-511.5 1300 L-514 1297.5 L-514.25 1294.25 L-516 1293.5 L-520 1291.5 L-521.5 1291 L-523.5 1289 L-525.5 1289 L-526.5 1288 L-527.5 1289 L-529.5 1287 L-535.75 1285.75 L-536 1284.5 L-537.5 1283 L-538.75 1282.75 L-540 1280.5 L-542 1277.5 L-543.375 1275 L-544 1272.5 L-548 1268.5 L-549 1265.5 L-547 1263.5 L-548 1252.5 L-544.5 1249 L-535 1249.75 L-528 1252.5 L-526 1253.5 L-524 1254.13 L-512.5 1255 L-511.5 1256 L-510.5 1255 L-507 1255.5 L-503 1256.5 L-499.125 1256.75 L-499 1251.5 L-500 1250.5 L-499 1249.5 L-498.25 1245 L-497.5 1243 L-487.5 1222 L-487 1220.5 L-488.5 1219 L-489 1219.5 L-490 1223.5 L-491.5 1225 L-492.75 1224.75 L-493 1222 L-494 1222.5 L-494.625 1225 L-497.375 1232 L-500.25 1242.75 L-501.875 1242.75 L-501.375 1238 L-483.375 1188 L-475.5 1169 L-468.5 1156 L-464.75 1150.25 L-463.25 1149.75 L-463.25 1148 L-464 1143.5 L-465 1142.5 L-463.5 1141 L-462 1142.5 L-461 1153.5 L-460.5 1154 L-459 1152.5 L-458.75 1151.25 L-456.25 1151.25 L-456.625 1155 L-459.375 1160 L-459.5 1163 L-457.625 1170 L-457 1176.5 L-459 1178.5 L-461 1181.5 L-464 1185.5 L-466 1188.5 L-467.25 1190.75 L-468.75 1191.25 L-475.5 1202 L-477.5 1206 L-478 1207.5 L-479 1208.5 L-478.5 1209 L-474 1209.5 L-458.5 1213 L-457 1214.5 L-457.5 1215 L-461 1214.5 L-474 1211.5 L-479.5 1211 L-481 1212.5 L-481.5 1214 L-482.5 1216 L-482.75 1217.75 L-473 1217.5 L-466 1218.63 L-461.5 1220 L-460 1221.5 L-460.5 1222 L-464 1221.38 L-466 1220.75 L-473 1219.5 L-479 1219.75 L-481 1220.5 L-483 1220.5 L-484.75 1220.25 L-485.5 1222 L-496.375 1246 L-497 1249.5 L-498 1250.5 L-497 1251.5 L-497 1257.5 L-494.5 1260 L-489 1263.5 L-487.25 1264.25 L-487.25 1265.75 L-489 1265.63 L-491.5 1265 L-495.5 1261 L-496.75 1261.25 L-497 1264.5 L-496 1265.5 L-497 1266.5 L-496.875 1270.88 L-482 1272.75 L-475.5 1277 L-474 1278.5 L-474.25 1279.75 L-476.5 1279 L-480 1276.5 L-483 1274.75 L-497.5 1273 L-500 1270.5 L-499 1269.5 L-499 1265.5 L-500 1264.5 L-499 1263.5 L-499 1260.5 L-500.5 1259 L-504 1258.38 L-506 1258.38 L-525 1264.63 L-537 1269.63 L-538.5 1270 L-540 1271.5 L-539 1272.5 L-538.25 1277 L-536.75 1280.88 L-532.5 1281 L-529.5 1284 L-520 1285.75 L-514 1287.63 L-512 1288.5 L-503 1293.5 L-501.5 1294 L-500 1295.5 L-501.5 1297 L-502.5 1296 L-515 1289.63 L-520 1287.63 L-522.5 1287 L-523 1287 L-522.5 1288 L-521 1288.5 L-513 1292.5 L-511.5 1293 L-510 1294.5 L-510.25 1295.75 L-511.75 1296.25 L-511.75 1297.75 L-497.5 1299 L-495.5 1297 L-493 1296.38 L-489.25 1294.75 L-489.25 1292.25 L-492 1291.38 L-496 1289.63 L-498.5 1289 L-500 1287.5 L-499.75 1286.25 L-498 1286.5 L-492 1289.38 L-484 1291.5 L-481 1291.63 L-466.25 1288.75 L-466.25 1287 L-467 1282.5 L-470 1279.5 L-469.75 1278.25 L-468.5 1278 L-467.5 1279 L-467 1278.5 L-469 1259.5 L-470 1258.5 L-469 1257.5 L-469 1252.5 L-465.5 1249 L-462 1247.75 L-455.25 1246.88 L-444.375 1216 L-443.5 1214 L-440.625 1209 L-438.5 1204 L-434 1197.5 L-425.5 1189 L-424 1188.63 L-421 1187.38 L-419 1186.88 L-389.25 1186 L-389 1184.5 L-387.5 1183 L-386.5 1184 L-375 1184.25 L-373 1183.75 L-368 1183.75 L-364.5 1185 L-359.5 1190 L-354 1190.63 L-351 1191.63 L-349 1192.5 L-344.5 1195 L-339 1200.5 L-337 1204.5 L-333.5 1208 L-331.5 1208 L-329.5 1210 L-329 1209.5 L-329.5 1206 L-334 1185.5 L-332.5 1184 L-330 1186.5 L-329.5 1188 L-326.625 1195 L-317 1235.5 L-315 1237.5 L-314.5 1239 L-313.5 1241 L-312.75 1242.75 L-311.25 1243.25 L-311 1244.5 L-312.5 1246 L-313.5 1245 L-314 1245.5 L-314 1246.5 L-312 1248.5 L-311 1258.5 L-309.5 1260 L-251.25 1253.88 L-251.25 1250.25 L-262 1248.25 L-265 1247.38 L-270 1245.38 L-271.5 1245 L-274 1242.5 L-273.375 1239 L-272.5 1237 L-272 1235.5 L-270.5 1234 L-270 1234.5 L-270.625 1237 L-271.375 1239 L-272 1241.5 L-270.5 1243 L-269 1243.5 L-265 1245.38 L-254 1247.75 L-252.25 1247.75 L-252.625 1244 L-256.5 1234 L-259.375 1224 L-261.5 1219 L-268 1206.5 L-269.5 1205 L-272.5 1204 L-274 1205.5 L-274.5 1209 L-275.5 1212 L-275.75 1214.75 L-272.5 1215 L-272 1215.5 L-273.5 1217 L-276.75 1217.25 L-278 1231.5 L-278.5 1232 L-280 1230.5 L-279.125 1219 L-279.25 1217.25 L-288 1218.38 L-302.5 1218 L-304 1216.5 L-302.5 1215 L-301.5 1216 L-289 1216.5 L-279.5 1215 L-278 1213.5 L-277.375 1211 L-276.625 1209 L-276 1205.5 L-275 1204.5 L-275.5 1204 L-302.5 1200 L-303.5 1199 L-306 1201.5 L-306 1202.5 L-307.5 1204 L-308.75 1203.75 L-308.5 1202 L-308 1200.5 L-304.5 1197 L-278 1201.75 L-275.25 1201.75 L-273.625 1198 L-273.5 1195 L-275.375 1190 L-278 1179.5 L-280 1177.5 L-280.5 1176 L-295.5 1148 L-296 1146.5 L-297.5 1145 L-299 1145.5 L-310 1151.38 L-313 1152.38 L-352 1160.5 L-362 1160.38 L-368 1159.5 L-375 1157.5 L-380 1155.5 L-406 1143.38 L-407.5 1143 L-408.5 1142 L-409.5 1143 L-425 1143.25 L-448 1136.5 L-453 1134.5 L-465 1129.5 L-469.5 1127 L-472 1124.5 L-472.5 1123 L-473.375 1121 L-474.25 1118.25 L-478.5 1117 L-480.5 1115 L-481 1115.5 L-481 1117.5 L-480 1118.5 L-481 1119.5 L-481.625 1123 L-482.375 1125 L-483 1127.5 L-485 1129.5 L-485 1130.5 L-488.5 1134 L-492 1134.5 L-497 1134.25 L-498.5 1134 L-501 1131.5 L-502 1126.5 L-502.5 1126 L-504 1127.5 L-504 1128.5 L-507.5 1132 L-513.5 1132 L-516 1129.5 L-516 1128.5 L-519 1125.5 L-520.25 1121 L-521 1116.5 L-521.5 1116 L-523.5 1118 L-527 1119.25 L-533 1119.38 L-535.5 1119 L-537.5 1117 L-538.75 1116.75 L-539.375 1115 L-540.25 1111 L-540.25 1098 L-539.375 1095 L-537.5 1090 L-537 1087.5 L-535 1085.5 L-535 1084.5 L-533 1082.5 L-533.5 1082 L-535.5 1082 L-537 1080.5 L-537 1079.5 L-536.5 1079 L-535.5 1080 L-532 1080.63 L-530.5 1081 L-529.5 1080 L-528.5 1081 L-524.5 1082 L-520.5 1086 L-497.5 1086 L-496 1087.5 L-496.5 1088 L-518 1088.13 L-521 1087.38 L-531.5 1084 L-533 1085.5 L-535.375 1090 L-537.625 1096 L-538.125 1098 L-538.25 1111 L-536.75 1115.75 L-533 1117.25 L-527 1117.25 L-525.5 1117 L-522 1113.5 L-520.75 1108.25 L-519.5 1108 L-518 1109.5 L-518.25 1120 L-517.375 1123 L-515 1127.5 L-512.5 1130 L-508.5 1130 L-505 1126.5 L-504 1122.5 L-502.5 1121 L-502 1121.5 L-501.625 1123 L-499.375 1129 L-499 1130.5 L-496.5 1133 L-489.5 1132 L-486 1128.5 L-485.5 1127 L-483.625 1123 L-483 1119.5 L-482 1118.5 L-483 1117.5 L-483 1111.5 L-482.5 1111 L-480.5 1113 L-478.5 1114 L-476 1114.63 L-473.25 1114.25 L-473 1116.5 L-472.5 1117 L-471.5 1116 L-468.5 1116 L-466.5 1114 L-465 1113.5 L-461 1111.5 L-459.5 1111 L-456 1107.5 L-455.5 1106 L-454.625 1104 L-454 1100.5 L-455 1099.5 L-453.5 1098 L-450.5 1099 L-450 1098.5 L-451 1097.5 L-458.5 1085 L-460.625 1080 L-478.5 1049 L-479.375 1047 L-480 1044.5 L-481.5 1043 L-484.5 1043 L-485 1043.5 L-484 1044.5 L-483 1058.5 L-481 1060.5 L-480.5 1063 L-479.5 1066 L-479 1068.5 L-477 1070.5 L-476 1072.5 L-473.5 1076 L-471.75 1079 L-470.375 1084 L-470.25 1086.75 L-471.5 1087 L-475 1083.5 L-481.375 1071 L-482.5 1068 L-484.75 1059 L-487.5 1052 L-489.5 1044 L-494.5 1031 L-509.625 934 L-511 928.5 L-509.5 927 L-506.5 928 L-504.5 930 L-504 929.5 L-504.25 914 L-503 909.5 L-500.5 907 L-499.5 907 L-497 909.5 L-497.5 910 L-498.5 910 L-499.5 909 L-502 911.5 L-503 920.5 L-502.5 921 L-501.5 920 L-499.25 920.25 L-499.25 921.75 L-500.75 922.25 L-501.125 924 L-500.375 948 L-499 962 L-498 961.5 L-496.5 931 L-493.875 912.25 L-492.25 912.25 L-491.75 914.75 L-490.5 915 L-489 916.5 L-486.5 960 L-482.5 982 L-476.5 1006 L-476.25 1009.75 L-477.75 1009.75 L-485.5 977 L-486 972 L-487 972.5 L-484 1024.5 L-482.5 1026 L-481.5 1025 L-480 1024.5 L-474 1021.5 L-472.5 1021 L-471 1019.5 L-471.5 1019 L-472.75 1018.75 L-473 1017.5 L-471.5 1016 L-466 1014.38 L-458 1011.5 L-455 1011.5 L-452.5 1012 L-451 1013.5 L-452.5 1015 L-455 1015 L-454.5 1016 L-451 1015.5 L-429 1008.38 L-427 1007.5 L-425.25 1007.25 L-425 1008.5 L-426.5 1010 L-429 1010.63 L-434 1012.63 L-435.5 1013 L-437.5 1015 L-440 1015.63 L-445 1017.63 L-446.5 1018 L-447 1018 L-446.5 1019 L-442 1018.38 L-415 1012.5 L-408 1010.5 L-405 1009.38 L-403.25 1009.25 L-403 1010.5 L-404.5 1012 L-407 1012.63 L-419 1019.38 L-425.5 1022 L-427 1023.5 L-426.5 1024 L-421 1022.5 L-418 1021.38 L-409.5 1016 L-407 1014.63 L-384 1005.38 L-382.5 1005 L-380.5 1003 L-378 1003.63 L-376 1003.75 L-369.5 1003 L-369 1003.5 L-374.5 1009 L-375.5 1009 L-378 1011.5 L-377.5 1012 L-371.25 1011.13 L-371.25 1012.75 L-372.5 1013 L-373 1013 L-372.5 1014 L-364.25 1013.13 L-364 1014.5 L-363.5 1015 L-362.5 1014 L-360 1013.38 L-358 1012.63 L-354.5 1012 L-353.5 1011 L-352 1012.5 L-353.5 1014 L-357 1014.63 L-359 1015.38 L-361.5 1016 L-363 1017.5 L-362.75 1018.88 L-358 1018.5 L-346 1015.5 L-335 1011.38 L-333.5 1011 L-331.5 1013 L-330.5 1012 L-329 1011.63 L-326 1010.5 L-323.25 1010.25 L-323 1011.5 L-326.5 1015 L-330.5 1017 L-332 1018.5 L-331.5 1019 L-327 1018.38 L-314 1015.25 L-304 1011.5 L-301.5 1011 L-301 1010.5 L-302.5 1009 L-309 1008.25 L-321 1004.5 L-346.5 1001 L-347.5 1002 L-348.5 1001 L-358 1000.5 L-379 997.25 L-382 997.25 L-426.5 1004 L-427.5 1005 L-428.5 1004 L-449 1003.13 L-454 1003.88 L-468.75 1001.75 L-468.75 1000.25 L-467 1000.13 L-454 1001.88 L-428.5 1002 L-427.5 1003 L-426.5 1002 L-409 998.625 L-382 995.25 L-379 995.25 L-316 1003.63 L-308 1006.38 L-302 1007.63 L-299 1007.63 L-290 1005.5 L-279 1001.38 L-277.5 1001 L-276.5 1000 L-275 1001.5 L-276.5 1003 L-279 1003.63 L-286 1006.5 L-292.5 1008 L-294 1009.5 L-294 1010.5 L-299.5 1016 L-308.5 1021 L-310 1022.5 L-309.5 1023 L-307 1022.5 L-304 1021.5 L-300.5 1021 L-299.5 1020 L-298.5 1021 L-297.5 1020 L-296 1019.5 L-289 1016.75 L-282.25 1016.13 L-281.75 1017.75 L-279 1017.5 L-276 1016.5 L-273.5 1016 L-272 1017.5 L-272 1018.5 L-273.5 1020 L-279 1023.5 L-280.5 1024 L-283 1026.5 L-282.5 1027 L-275 1025.5 L-270.25 1025.13 L-270 1026.5 L-271 1027.5 L-270.5 1028 L-262.5 1027 L-261.5 1028 L-260 1026.5 L-257.5 1022 L-256.875 1020 L-254 994.5 L-252.5 993 L-250.5 993 L-249 994.5 L-249.25 995.75 L-250.5 996 L-251.5 995 L-252 995.5 L-253.5 1004 L-254 1013 L-253 1012.5 L-252.5 1010 L-249.5 1001 L-248.875 998 L-247.5 963 L-239.5 936 L-237.5 931 L-234.5 925 L-234 923.5 L-231.5 921 L-229.5 921 L-229 921.5 L-230 922.5 L-230.375 924 L-231.5 927 L-241.5 970 L-242 975 L-241 974.5 L-240 967.5 L-238 965.5 L-234.5 950 L-230.625 938 L-228.875 928.25 L-227.125 928.25 L-227.5 933 L-230 950.5 L-230 951 L-229 950.5 L-228.5 947 L-219.5 916 L-218.375 913 L-218 911.5 L-217.5 911 L-216 912.5 L-216.5 915 L-225.5 949 L-229.5 971 L-238.625 1008 L-239.25 1010 L-247.625 1048 L-249.5 1052 L-250 1053.5 L-251.5 1055 L-252.5 1055 L-254 1053.5 L-247 1006.5 L-247.5 1006 L-249 1007.5 L-249.5 1011 L-253.5 1025 L-256.5 1035 L-259 1053.5 L-257.5 1055 L-256.5 1055 L-253.5 1058 L-246.5 1058 L-245 1059.5 L-245 1060.5 L-245.5 1061 L-246.5 1060 L-255.5 1059 L-258.5 1056 L-259 1056.5 L-259 1057.5 L-259.5 1058 L-261 1056.5 L-261 1055.5 L-262.5 1054 L-264 1053.63 L-268 1053.5 L-274 1055.25 L-285.5 1056 L-286.5 1057 L-287.5 1056 L-311 1052.5 L-315 1051.5 L-318 1050.38 L-319.5 1050 L-320 1050.5 L-319 1051.5 L-319 1052.5 L-318 1053.5 L-318.5 1054 L-319.5 1054 L-321 1052.5 L-321 1051.5 L-323.5 1049 L-325.5 1049 L-326 1049.5 L-324 1051.5 L-325.5 1053 L-328.5 1050 L-329.5 1051 L-330.75 1050.75 L-330.75 1048.25 L-327.5 1047 L-327 1046.5 L-329.5 1044 L-338 1037.75 L-346 1036.5 L-352 1036.63 L-360.5 1039 L-363 1041.5 L-363.375 1043 L-363.75 1045.75 L-362.25 1046.25 L-362.25 1047.75 L-363.5 1048 L-365 1049.5 L-364 1053.5 L-361.5 1056 L-350.5 1057 L-349 1058.5 L-349.25 1060 L-359.5 1061 L-363 1064.5 L-362.75 1066.75 L-361.5 1067 L-358 1070.5 L-358.375 1072 L-358.75 1074.75 L-356.25 1075.25 L-356.25 1076.75 L-361.5 1078 L-365 1081.5 L-365 1082.5 L-367 1084.5 L-366.75 1087.75 L-365.5 1088 L-364.5 1089 L-363.5 1088 L-359 1087.25 L-355.5 1086 L-353.5 1084 L-349.5 1084 L-349 1084.5 L-350 1085.5 L-350.5 1087 L-352.375 1091 L-353 1094.5 L-350.5 1097 L-349 1097.38 L-346 1098.5 L-342 1099.5 L-332 1099.5 L-328.5 1100 L-327 1101.5 L-327 1104.5 L-328 1105.5 L-327 1106.5 L-328 1107.5 L-327.75 1108.75 L-324 1108.5 L-321.5 1108 L-318.5 1105 L-315.25 1106.25 L-315 1107.5 L-314.5 1108 L-309.5 1103 L-308.25 1103.25 L-308 1104.5 L-317.5 1114 L-319 1114.5 L-321 1114.63 L-329.75 1111.75 L-330.25 1110.25 L-332 1109.63 L-335 1109.25 L-345 1109.25 L-347 1108.5 L-349 1107.5 L-350.5 1107 L-357 1100.5 L-357.25 1099.25 L-361 1098.38 L-367 1095.5 L-371.5 1093 L-377 1087.5 L-377 1083.5 L-375.5 1082 L-371 1079.5 L-369.5 1079 L-369 1079 L-369.5 1078 L-373 1077.5 L-377 1076.38 L-379 1075.5 L-380.5 1075 L-384 1071.5 L-385.25 1068.13 L-459.5 1064 L-460.5 1065 L-462 1063.5 L-460.5 1062 L-439.25 1061 L-438.75 1059.25 L-432 1056.38 L-430.5 1056 L-430 1056 L-430.5 1055 L-431.75 1054.75 L-432 1053.5 L-430.5 1052 L-429.5 1052 L-428 1050.5 L-428.5 1050 L-430 1050.38 L-457 1059.5 L-461.75 1059.88 L-461.75 1058.25 L-460 1057.5 L-444 1050.5 L-442.5 1050 L-442 1050 L-442.5 1049 L-445 1049.38 L-452 1049.38 L-465 1053.5 L-470.75 1053.88 L-471 1052.5 L-469.5 1051 L-468 1050.5 L-449 1040.63 L-436 1035.5 L-427 1030.5 L-425.5 1030 L-425 1030 L-425.5 1029 L-428 1029.5 L-460 1041.38 L-467 1042.75 L-476.75 1046.25 L-476.625 1048 L-474.5 1053 L-462.5 1073 L-462 1074.5 L-459 1077.5 L-458.375 1080 L-457.625 1082 L-457 1084.5 L-455 1086.5 L-454.5 1088 L-453.5 1090 L-448 1097.5 L-445.5 1100 L-443.25 1099.75 L-443.625 1097 L-445 1094.5 L-451 1086.5 L-452.75 1083.25 L-451.5 1083 L-449 1085.5 L-443 1093.5 L-441.75 1096 L-441 1100.5 L-442.5 1102 L-443.75 1102.25 L-444.25 1103.75 L-446 1103.63 L-449 1102.38 L-450.5 1102 L-451.5 1101 L-452 1101.5 L-452.625 1105 L-453.5 1107 L-454 1108.5 L-458.5 1113 L-462.5 1114 L-464.5 1116 L-466.5 1116 L-468.5 1118 L-470.5 1118 L-472 1119.5 L-471 1120.5 L-470 1123.5 L-467.5 1126 L-466.5 1126 L-464.5 1128 L-462 1128.63 L-455 1131.5 L-451 1133.38 L-448.25 1133.75 L-448 1132.5 L-445.5 1130 L-443 1129.63 L-438 1128.38 L-435 1128.38 L-424.5 1131 L-422.5 1133 L-421 1133.5 L-414 1136.5 L-412 1137.5 L-410.5 1138 L-408.5 1140 L-399.5 1139 L-398.5 1138 L-397 1139.5 L-398.5 1141 L-402.75 1141.13 L-402.75 1142.75 L-401 1143.5 L-381 1152.5 L-379.5 1153 L-377.5 1155 L-375 1155.5 L-368 1157.5 L-362 1158.38 L-352 1158.5 L-334 1155.25 L-313 1150.25 L-306 1147.38 L-301 1144.5 L-299.5 1144 L-298 1142.5 L-299 1141.5 L-300 1137.5 L-301 1136.5 L-299.5 1135 L-295.5 1135 L-292.5 1138 L-291.5 1138 L-289 1135.5 L-291 1133.5 L-291 1132.5 L-293 1130.5 L-292.5 1130 L-290.5 1130 L-289 1131.5 L-289 1132.5 L-287.5 1134 L-285.25 1134.25 L-285 1135.5 L-286 1136.5 L-283.5 1139 L-282.5 1139 L-281 1140.5 L-280.5 1142 L-273 1154.5 L-271 1156.5 L-270.375 1159 L-254.625 1193 L-253.625 1196 L-250.25 1214 L-249.25 1245 L-248.5 1247 L-248.25 1249 L-248.875 1253.75 L-242 1253.25 L-230 1254.88 L-227.5 1256 L-219.5 1261 L-218 1262.5 L-218 1263.5 L-216.5 1265 L-215.5 1265 L-213 1267.5 L-213 1269.5 L-218 1274.5 L-218.5 1279 L-219.5 1283 L-219.75 1286.75 L-217.5 1287 L-216 1288.5 L-217.5 1290 L-223.5 1290 L-225 1291.5 L-225 1292.5 L-229.5 1297 L-232 1297.63 L-234 1298.38 L-237.5 1299 L-240.5 1302 L-243 1302.25 M-489 956 L-491 917.5 L-492 917 L-492.5 925 L-490 955.5 L-489 956 M-487 1044 L-487 1043.5 L-487.75 1039 L-491.5 1026 L-504.25 932.25 L-508.5 930 L-509 930.5 L-508 931.5 L-494.375 1023 L-492.375 1031 L-488.5 1041 L-488 1043.5 L-487 1044 M-487 1012 L-487.75 986 L-493.25 948 L-494 932.5 L-495 932 L-492 992.5 L-491 993 L-490.75 990.25 L-489 990.25 L-488 1011.5 L-487 1012 M-488 966 L-488 960.5 L-489 960 L-489 965.5 L-488 966 M-497 969 L-497 966.5 L-498 966 L-498 968.5 L-497 969 M-487 972 L-487 967.5 L-488 967 L-488 971.5 L-487 972 M-234 930 L-234 929 L-235 929 L-235 930 L-234 930 M-235 934 L-235 932.5 L-236 932 L-236 933 L-235 934 M-242 963 L-242 962.5 L-236.5 938 L-236 934.5 L-237 934 L-237 934.5 L-237.5 937 L-243.5 956 L-243.5 959 L-243 962.5 L-242 963 M-230 955 L-230 951.5 L-231 951 L-231 954.5 L-230 955 M-245 1030 L-244.5 1025 L-236.5 985 L-233 956.5 L-234 956 L-234 956.5 L-234.5 960 L-238.5 974 L-246 1029.5 L-245 1030 M-244 975 L-244 963.5 L-245 963 L-245 974.5 L-244 975 M-494 989 L-494 988 L-495 988 L-495 989 L-494 989 M-493 996 L-493 993.5 L-494 993 L-494 995.5 L-493 996 M-488 1030 L-488.5 1021 L-492 997.5 L-493 997 L-493 997.5 L-489 1029.5 L-488 1030 M-455.5 1017 L-455 1016 L-456.5 1016 L-457 1017 L-455.5 1017 M-463 1020.38 L-460.5 1020 L-460 1019 L-460.5 1019 L-467.5 1020 L-468 1021 L-463 1020.38 M-468.5 1022 L-468 1021 L-469.5 1021 L-470 1022 L-468.5 1022 M-468 1027.38 L-461 1024.5 L-458.5 1024 L-458 1023 L-458.5 1023 L-462 1023.5 L-469 1026.5 L-470.5 1027 L-471 1028 L-468 1027.38 M-449 1029.63 L-439.25 1025.75 L-438.75 1024.25 L-437 1023.5 L-435 1022.5 L-430 1020.38 L-428.5 1020 L-428 1019 L-428.5 1019 L-445 1021.5 L-452 1023.5 L-454.5 1024 L-456.5 1026 L-459 1027.5 L-468.5 1035 L-471 1037.5 L-470.5 1038 L-451 1030.5 L-449 1029.63 M-462.5 1028 L-462 1027 L-463.5 1027 L-464 1028 L-462.5 1028 M-472 1029 L-472 1028 L-473 1028 L-473 1029 L-472 1029 M-478.5 1044 L-476.5 1042 L-475.5 1042 L-474 1040.5 L-474 1037.5 L-470.5 1034 L-469.5 1034 L-464 1028.5 L-464.5 1028 L-471 1030.5 L-480.75 1033.25 L-480.375 1036 L-479.75 1038 L-479 1043.5 L-478.5 1044 M-482.25 1040.75 L-482.5 1038 L-483.625 1034 L-484.375 1032 L-485 1029.5 L-486 1029 L-485 1039.5 L-483.5 1041 L-482.25 1040.75 M-474 1030 L-474 1029 L-475 1029 L-475 1030 L-474 1030 M-481 1031 L-481 1030 L-482 1030 L-482 1031 L-481 1031 M-471 1039 L-471 1038 L-472 1038 L-472 1039 L-471 1039 M-465.5 1040 L-465 1039 L-466.5 1039 L-467 1040 L-465.5 1040 M-469 1041.38 L-467.5 1041 L-467 1040 L-467.5 1040 L-471.5 1041 L-472 1042 L-469 1041.38 M-385 1013.38 L-382.5 1012 L-379 1009.5 L-376.5 1008 L-375 1006.5 L-375.5 1006 L-378 1006.5 L-381 1007.5 L-392 1012.5 L-393.5 1013 L-394 1013.5 L-393 1014.5 L-392.75 1015.75 L-391 1015.63 L-388 1014.5 L-385 1013.38 M-423 1018 L-423 1017 L-424 1017 L-424 1018 L-423 1018 M-425.5 1019 L-425 1018 L-426.5 1018 L-427 1019 L-425.5 1019 M-393.5 1019 L-393 1018 L-394.5 1018 L-395 1019 L-393.5 1019 M-448.5 1020 L-448 1019 L-449.5 1019 L-450 1020 L-448.5 1020 M-399 1021.38 L-397 1020.5 L-395.5 1020 L-395 1019 L-395.5 1019 L-399 1019.5 L-401.75 1020.25 L-401.75 1021.75 L-399 1021.38 M-388.5 1022 L-388 1021 L-389.5 1021 L-390 1022 L-388.5 1022 M-414 1024 L-414 1023 L-415 1023 L-415 1024 L-414 1024 M-409 1025 L-409 1024 L-410 1024 L-410 1025 L-409 1025 M-390 1025 L-390 1024 L-391 1024 L-391 1025 L-390 1025 M-385.5 1027 L-384.5 1026 L-383 1025.63 L-379.5 1025 L-379 1024 L-379.5 1024 L-380.75 1023.75 L-381 1022.5 L-380 1021.5 L-380.5 1021 L-384.5 1022 L-388 1025.5 L-387.5 1026 L-385.5 1027 M-412 1026 L-412 1025 L-413 1025 L-413 1026 L-412 1026 M-440 1042.63 L-418 1034.5 L-396 1028.38 L-391.5 1026 L-391 1025 L-391.5 1025 L-404 1027.5 L-409.5 1028 L-410.5 1027 L-411.5 1028 L-433 1036.63 L-435.5 1038 L-438.5 1040 L-440.5 1041 L-442 1042.5 L-441.5 1043 L-440 1042.63 M-427.5 1027 L-427 1026 L-428.5 1026 L-429 1027 L-427.5 1027 M-415 1027 L-415 1026 L-416 1026 L-416 1027 L-415 1027 M-436 1029.5 L-433 1028.5 L-429.5 1028 L-429 1027 L-429.5 1027 L-437.5 1028 L-439 1029.5 L-438.5 1030 L-436 1029.5 M-440 1031 L-440 1030 L-441 1030 L-441 1031 L-440 1031 M-383 1030.5 L-376.5 1029 L-373 1025.5 L-373 1024.5 L-372 1023.5 L-372.5 1023 L-381 1027.5 L-386 1029.63 L-387.5 1030 L-388 1031 L-383 1030.5 M-399 1032 L-399 1031 L-400 1031 L-400 1032 L-399 1032 M-402 1033 L-402 1032 L-403 1032 L-403 1033 L-402 1033 M-405.5 1034 L-405 1033 L-406.5 1033 L-407 1034 L-405.5 1034 M-389 1034 L-389 1033 L-390 1033 L-390 1034 L-389 1034 M-408.5 1035 L-408 1034 L-409.5 1034 L-410 1035 L-408.5 1035 M-403 1038.63 L-395 1035.5 L-392.5 1035 L-392 1034 L-392.5 1034 L-397 1034.75 L-402 1036.63 L-403.5 1037 L-405 1038.5 L-404.5 1039 L-403 1038.63 M-411.5 1036 L-411 1035 L-412.5 1035 L-413 1036 L-411.5 1036 M-423 1052.38 L-392 1038.5 L-387 1036.38 L-385.5 1036 L-385 1035 L-385.5 1035 L-389 1035.5 L-407 1042.38 L-416 1045.63 L-425.5 1051 L-427 1052.5 L-426.5 1053 L-423 1052.38 M-441 1046.5 L-434 1044.5 L-416 1037.5 L-413.5 1037 L-413 1036 L-413.5 1036 L-418 1036.75 L-425 1039.38 L-429 1040.5 L-442 1045.63 L-443.5 1046 L-444 1047 L-441 1046.5 M-409.5 1039 L-409 1038 L-410.5 1038 L-411 1039 L-409.5 1039 M-441 1040 L-441 1039 L-442 1039 L-442 1040 L-441 1040 M-436 1050.5 L-419 1044.38 L-414 1041.5 L-412.5 1041 L-411 1039.5 L-411.5 1039 L-413 1039.38 L-430 1046.5 L-437 1049.5 L-438.5 1050 L-439 1051 L-436 1050.5 M-405.5 1040 L-405 1039 L-406.5 1039 L-407 1040 L-405.5 1040 M-443 1041 L-443 1040 L-444 1040 L-444 1041 L-443 1041 M-408 1041 L-408 1040 L-409 1040 L-409 1041 L-408 1041 M-373.5 1006 L-373 1005 L-374.5 1005 L-375 1006 L-373.5 1006 M-328 1014 L-328 1013 L-329 1013 L-329 1014 L-328 1014 M-374 1015 L-374 1014 L-375 1014 L-375 1015 L-374 1015 M-336 1015 L-336 1014 L-337 1014 L-337 1015 L-336 1015 M-330 1015 L-330 1014 L-331 1014 L-331 1015 L-330 1015 M-366.5 1016 L-366 1015 L-369.5 1015 L-370 1016 L-366.5 1016 M-354 1025.5 L-349 1024.38 L-346 1023.38 L-331.5 1016 L-331 1015 L-331.5 1015 L-334 1015.63 L-339 1017.5 L-346 1019.5 L-357 1024.5 L-358.5 1025 L-359 1026 L-354 1025.5 M-373 1017.38 L-370.5 1017 L-370 1016 L-370.5 1016 L-377.5 1017 L-378 1018 L-373 1017.38 M-378.5 1019 L-378 1018 L-381.5 1018 L-382 1019 L-378.5 1019 M-369 1020.38 L-367.5 1020 L-366 1018.5 L-366.5 1018 L-368 1018.38 L-371 1019.63 L-372.5 1020 L-373 1021 L-369 1020.38 M-382.5 1020 L-382 1019 L-383.5 1019 L-384 1020 L-382.5 1020 M-363 1020 L-363 1019 L-364 1019 L-364 1020 L-363 1020 M-333 1020 L-333 1019 L-334 1019 L-334 1020 L-333 1020 M-356.5 1021 L-356 1020 L-357.5 1020 L-358 1021 L-356.5 1021 M-335 1021 L-335 1020 L-336 1020 L-336 1021 L-335 1021 M-323 1021 L-323 1020 L-324 1020 L-324 1021 L-323 1021 M-374.5 1022 L-374 1021 L-375.5 1021 L-376 1022 L-374.5 1022 M-369 1026.38 L-361 1022.5 L-359.5 1022 L-359 1021 L-359.5 1021 L-367.5 1022 L-372 1026.5 L-371.5 1027 L-369 1026.38 M-325.5 1022 L-325 1021 L-326.5 1021 L-327 1022 L-325.5 1022 M-333 1025.38 L-329 1023.5 L-327.5 1023 L-327 1022 L-327.5 1022 L-330 1022.63 L-334 1024.5 L-335.5 1025 L-336 1026 L-333 1025.38 M-336.5 1024 L-336 1023 L-337.5 1023 L-338 1024 L-336.5 1024 M-321 1026.38 L-301.5 1015 L-299 1012.5 L-299.5 1012 L-306 1014.5 L-311.75 1016.25 L-312.25 1017.75 L-337 1029.5 L-338.5 1030 L-339 1031 L-338.5 1031 L-325 1027.5 L-321 1026.38 M-339.5 1025 L-339 1024 L-340.5 1024 L-341 1025 L-339.5 1025 M-342.5 1026 L-342 1025 L-344.5 1025 L-345 1026 L-342.5 1026 M-336.5 1027 L-336 1026 L-337.5 1026 L-338 1027 L-336.5 1027 M-371 1049.5 L-369 1048.5 L-367.25 1047.75 L-366.625 1046 L-366 1042.5 L-364 1040.5 L-364 1039.5 L-361.5 1037 L-353 1034.63 L-346.5 1034 L-345.5 1035 L-344.5 1034 L-343.25 1033.75 L-343 1031.5 L-340.5 1029 L-339.5 1029 L-338 1027.5 L-338.5 1027 L-347 1028.5 L-351.75 1028.88 L-352 1027.5 L-352.5 1027 L-353.5 1028 L-358.75 1028.13 L-359 1029.5 L-362.5 1033 L-364.5 1034 L-372 1039.5 L-374.5 1041 L-378 1043.5 L-380.5 1045 L-383 1047.5 L-382.5 1048 L-379 1048.63 L-376.5 1048 L-370 1043.5 L-368.25 1043.25 L-369 1045.5 L-370.25 1047.75 L-371.5 1048 L-373 1049.5 L-372.5 1050 L-371 1049.5 M-363.5 1029 L-363 1028 L-364.5 1028 L-365 1029 L-363.5 1029 M-366 1030 L-366 1029 L-367 1029 L-367 1030 L-366 1030 M-364.5 1032 L-364 1031 L-365.5 1031 L-366 1032 L-364.5 1032 M-334.5 1037 L-334 1036.5 L-333.75 1035.25 L-330.25 1033.75 L-330.25 1031.25 L-332 1031.38 L-342.5 1034 L-343 1035 L-342.5 1035 L-337 1035.75 L-334.5 1037 M-377.5 1033 L-377 1032 L-378.5 1032 L-379 1033 L-377.5 1033 M-373 1036.5 L-370.5 1036 L-368.5 1034 L-367.5 1034 L-366 1032.5 L-366.5 1032 L-370.5 1033 L-372.5 1035 L-375.5 1036 L-376 1037 L-373 1036.5 M-320 1033.5 L-313.25 1031.75 L-313 1030.5 L-312 1029.5 L-312.5 1029 L-315 1029.5 L-326 1033.63 L-327.5 1034 L-328 1035 L-327.5 1035 L-320 1033.5 M-380.5 1034 L-380 1033 L-381.5 1033 L-382 1034 L-380.5 1034 M-382.5 1035 L-382 1034 L-384.5 1034 L-385 1035 L-382.5 1035 M-329 1036 L-329 1035 L-330 1035 L-330 1036 L-329 1036 M-322 1045.5 L-314 1043.5 L-305 1039.5 L-303.25 1038.75 L-303 1035.5 L-303.5 1035 L-304.5 1036 L-319.5 1040 L-321 1038.5 L-319.5 1037 L-318 1036.5 L-314 1036.63 L-292 1029.38 L-285.5 1026 L-285 1025 L-285.5 1025 L-288 1025.5 L-312 1033.38 L-324 1036.5 L-332.5 1038 L-333 1038.5 L-326.5 1045 L-322 1045.5 M-377 1038 L-377 1037 L-378 1037 L-378 1038 L-377 1038 M-378 1041 L-378 1040 L-379 1040 L-379 1041 L-378 1041 M-283 1019 L-283 1018 L-284 1018 L-284 1019 L-283 1019 M-275 1019 L-275 1018 L-276 1018 L-276 1019 L-275 1019 M-320 1020 L-320 1019 L-321 1019 L-321 1020 L-320 1020 M-301 1027.38 L-289 1021.63 L-286.5 1021 L-285 1019.5 L-285.5 1019 L-287 1019.38 L-295 1022.5 L-302 1026.5 L-303.5 1027 L-304 1028 L-301 1027.38 M-277.5 1020 L-277 1019 L-278.5 1019 L-279 1020 L-277.5 1020 M-279.5 1021 L-279 1020 L-281.5 1020 L-282 1021 L-279.5 1021 M-282.5 1022 L-282 1021 L-283.5 1021 L-284 1022 L-282.5 1022 M-285 1023 L-285 1022 L-286 1022 L-286 1023 L-285 1023 M-311 1024 L-311 1023 L-312 1023 L-312 1024 L-311 1024 M-284 1025 L-284 1024 L-285 1024 L-285 1025 L-284 1025 M-304 1026 L-304 1025 L-305 1025 L-305 1026 L-304 1026 M-306 1027 L-306 1026 L-307 1026 L-307 1027 L-306 1027 M-308.5 1028 L-308 1027 L-309.5 1027 L-310 1028 L-308.5 1028 M-284 1028 L-284 1027 L-285 1027 L-285 1028 L-284 1028 M-319.5 1029 L-319 1028 L-320.5 1028 L-321 1029 L-319.5 1029 M-310.5 1029 L-310 1028 L-311.5 1028 L-312 1029 L-310.5 1029 M-304.5 1029 L-304 1028 L-305.5 1028 L-306 1029 L-304.5 1029 M-278.5 1029 L-278 1028 L-279.5 1028 L-280 1029 L-278.5 1029 M-271.5 1029 L-271 1028 L-272.5 1028 L-273 1029 L-271.5 1029 M-296 1035.38 L-283 1030.5 L-280.5 1030 L-280 1029 L-280.5 1029 L-284 1029.5 L-291 1031.63 L-297 1034.5 L-298.5 1035 L-299 1036 L-296 1035.38 M-274 1030 L-274 1029 L-275 1029 L-275 1030 L-274 1030 M-260.5 1052 L-260 1051.5 L-260 1041.5 L-261 1041 L-261 1042.5 L-263.5 1045 L-264.75 1044.75 L-264.625 1043 L-261.375 1034 L-261 1032.5 L-261.5 1032 L-263 1033.5 L-266.5 1042 L-267 1043.5 L-269.5 1046 L-270.5 1046 L-272 1044.5 L-271 1043.5 L-270.5 1042 L-269.5 1040 L-265 1033.5 L-264 1031.5 L-262 1029.5 L-262.5 1029 L-267 1029.63 L-295 1037.5 L-305 1041.63 L-306.5 1042 L-307 1043 L-306.5 1043 L-304 1042.5 L-293 1038.5 L-286 1036.5 L-282.5 1036 L-281.5 1035 L-280 1036.5 L-281.5 1038 L-282.5 1038 L-283 1038.5 L-282 1039.5 L-282.5 1040 L-287 1040.5 L-294.5 1042 L-295 1043 L-294.5 1043 L-274 1046.5 L-265 1050.38 L-260.5 1052 M-260 1031 L-260 1030 L-261 1030 L-261 1031 L-260 1031 M-258 1033 L-258 1031.5 L-259 1031 L-259 1032 L-258 1033 M-259 1035 L-259 1034 L-260 1034 L-260 1035 L-259 1035 M-259 1041 L-259 1040 L-260 1040 L-260 1041 L-259 1041 M-245 981 L-245 979.5 L-246 979 L-246 980 L-245 981 M-257 1029 L-257 1028 L-258 1028 L-258 1029 L-257 1029 M-250 1050 L-250 1049.5 L-248.625 1044 L-248 1039.5 L-247 1038.5 L-248 1037.5 L-248 1030.5 L-249 1030 L-251 1049.5 L-250 1050 M-472.5 1043 L-472 1042 L-473.5 1042 L-474 1043 L-472.5 1043 M-486 1048 L-486 1044.5 L-487 1044 L-487 1047.5 L-486 1048 M-450.5 1047 L-446.5 1043 L-445.5 1043 L-444 1041.5 L-444.5 1041 L-446 1041.5 L-460 1048.5 L-461.5 1049 L-462 1050 L-461.5 1050 L-459 1049.5 L-453 1047.5 L-450.5 1047 M-462 1051 L-462 1050 L-463 1050 L-463 1051 L-462 1051 M-450 1056 L-450 1055 L-451 1055 L-451 1056 L-450 1056 M-477 1075 L-477 1074 L-478 1074 L-478 1075 L-477 1075 M-476 1077 L-476 1075.5 L-477 1075 L-477 1076 L-476 1077 M-475 1078 L-475 1077 L-476 1077 L-476 1078 L-475 1078 M-473 1082 L-473 1079.5 L-474.5 1078 L-475 1078.5 L-474.5 1080.5 L-473 1082 M-442 1044 L-442 1043 L-443 1043 L-443 1044 L-442 1044 M-385.5 1044 L-385 1043 L-386.5 1043 L-387 1044 L-385.5 1044 M-444 1045 L-444 1044 L-445 1044 L-445 1045 L-444 1045 M-397.5 1046 L-396 1044.5 L-396.5 1044 L-399.5 1045 L-400 1046 L-397.5 1046 M-383 1054.5 L-383.5 1054 L-385 1054.5 L-387 1055.38 L-393 1057.5 L-396.75 1057.75 L-397 1055.5 L-396 1054.5 L-396.5 1054 L-398 1054.25 L-407 1056.63 L-408.75 1056.75 L-408.75 1054.25 L-406 1053.5 L-389 1045.5 L-387.5 1045 L-387 1044 L-387.5 1044 L-390 1044.63 L-394 1046.38 L-427 1058.5 L-433.5 1060 L-434 1061 L-423 1061.5 L-392 1065.75 L-390.25 1065.75 L-388.5 1060.5 L-383 1054.5 M-400.5 1047 L-400 1046 L-401.5 1046 L-402 1047 L-400.5 1047 M-445 1048 L-445 1047 L-446 1047 L-446 1048 L-445 1048 M-437 1048 L-437 1047 L-438 1047 L-438 1048 L-437 1048 M-403 1048 L-403 1047 L-404 1047 L-404 1048 L-403 1048 M-387 1048 L-387 1047 L-388 1047 L-388 1048 L-387 1048 M-439.5 1049 L-439 1048 L-440.5 1048 L-441 1049 L-439.5 1049 M-405.5 1049 L-405 1048 L-406.5 1048 L-407 1049 L-405.5 1049 M-389.5 1050 L-388 1048.5 L-388.5 1048 L-391.5 1049 L-392 1050 L-389.5 1050 M-426 1050 L-426 1049 L-427 1049 L-427 1050 L-426 1050 M-408 1050 L-408 1049 L-409 1049 L-409 1050 L-408 1050 M-392.5 1051 L-392 1050 L-394.5 1050 L-395 1051 L-392.5 1051 M-439.5 1052 L-439 1051 L-440.5 1051 L-441 1052 L-439.5 1052 M-413 1052 L-413 1051 L-414 1051 L-414 1052 L-413 1052 M-395.5 1052 L-395 1051 L-396.5 1051 L-397 1052 L-395.5 1052 M-385 1052.38 L-383 1051.5 L-381.5 1051 L-381 1050 L-381.5 1050 L-388.5 1051 L-392 1054.5 L-391.5 1055 L-390 1054.5 L-388 1053.63 L-385 1052.38 M-441.5 1053 L-441 1052 L-443.5 1052 L-444 1053 L-441.5 1053 M-444.5 1054 L-444 1053 L-445.5 1053 L-446 1054 L-444.5 1054 M-394 1054 L-394 1053 L-395 1053 L-395 1054 L-394 1054 M-447.5 1055 L-447 1054 L-448.5 1054 L-449 1055 L-447.5 1055 M-421 1055 L-421 1054 L-422 1054 L-422 1055 L-421 1055 M-393 1056 L-393 1055 L-394 1055 L-394 1056 L-393 1056 M-386.5 1063 L-385 1061.5 L-385 1060.5 L-385.5 1060 L-387 1062 L-386.5 1063 M-387 1064 L-387 1063 L-388 1063 L-388 1064 L-387 1064 M-449 1100 L-449 1099 L-450 1099 L-450 1100 L-449 1100 M-381 1042 L-381 1041 L-382 1041 L-382 1042 L-381 1042 M-383.5 1043 L-383 1042 L-384.5 1042 L-385 1043 L-383.5 1043 M-385 1047 L-385 1046 L-386 1046 L-386 1047 L-385 1047 M-364 1047 L-364 1046 L-365 1046 L-365 1047 L-364 1047 M-373 1051 L-373 1050 L-374 1050 L-374 1051 L-373 1051 M-362.25 1076 L-361 1072.5 L-360 1071.5 L-365 1066.5 L-365 1063.5 L-361.5 1060 L-360.5 1060 L-359 1058.5 L-359.5 1058 L-362.5 1058 L-366 1054.5 L-367.25 1050.25 L-369 1050.5 L-376 1054.5 L-377.5 1055 L-383 1060.5 L-383 1061.5 L-382.5 1062 L-381.5 1061 L-377 1058.63 L-373.25 1058.25 L-373 1060.5 L-374.5 1062 L-376 1062.5 L-378 1063.5 L-379.5 1064 L-381.5 1066 L-383.5 1066 L-384 1067 L-383.5 1067 L-368 1069.75 L-363.5 1071 L-363 1071.5 L-364.5 1073 L-365.5 1072 L-380.5 1070 L-381.5 1069 L-382 1069.5 L-382 1070.5 L-379.5 1073 L-378 1073.5 L-376 1074.38 L-373 1075.25 L-362.25 1076 M-375 1052 L-375 1051 L-376 1051 L-376 1052 L-375 1052 M-377 1053 L-377 1052 L-378 1052 L-378 1053 L-377 1053 M-382 1054 L-382 1053 L-383 1053 L-383 1054 L-382 1054 M-383 1063 L-383 1062 L-384 1062 L-384 1063 L-383 1063 M-359.5 1097 L-359 1096.5 L-358.75 1093.25 L-357.5 1093 L-356.5 1092 L-355.5 1093 L-355 1092.5 L-354 1088.5 L-353 1087.5 L-353.5 1087 L-355 1087.5 L-359 1089.38 L-363 1090.63 L-365 1090.63 L-368.875 1089.75 L-368.25 1084 L-367 1080.5 L-367.5 1080 L-368.5 1081 L-370 1081.5 L-374.75 1084.25 L-375 1086.5 L-370.5 1091 L-369.5 1091 L-366.5 1094 L-364 1094.63 L-362 1095.5 L-359.5 1097 M-355.25 1096.75 L-355.25 1095.25 L-356.75 1095.25 L-356.75 1096.75 L-355.25 1096.75 M-339.5 1108 L-339 1107.5 L-341 1105.5 L-340.5 1105 L-339.25 1104.75 L-338.75 1103.25 L-337.5 1103 L-337 1102 L-342 1101.5 L-349.5 1100 L-351.5 1098 L-353.5 1098 L-355 1099.5 L-353 1101.5 L-353 1102.5 L-351.5 1104 L-347 1106.38 L-344 1107.38 L-339.5 1108 M-333 1106.38 L-329.25 1104.75 L-329.25 1102.25 L-333 1102.63 L-335 1103.5 L-336.5 1104 L-338 1105.5 L-337.5 1106 L-333 1106.38 M-286.5 1055 L-285.5 1054 L-274 1053.25 L-269.5 1052 L-269 1051.5 L-270.5 1050 L-272 1049.5 L-274 1048.63 L-278 1047.5 L-291 1045.63 L-303.5 1045 L-304.5 1046 L-305.5 1045 L-306.5 1046 L-315.5 1047 L-316.5 1046 L-317.5 1047 L-319.5 1047 L-320 1048 L-319.5 1048 L-317 1048.63 L-315 1049.38 L-311 1050.5 L-286.5 1055 M-251 1052 L-251 1050.5 L-252 1050 L-252 1051 L-251 1052 M-470 1175 L-470 1174.5 L-469.625 1173 L-464.5 1162 L-463.75 1160 L-463 1153.5 L-463.5 1153 L-466 1155.5 L-466.5 1158 L-468.5 1164 L-471 1174.5 L-470 1175 M-472 1192 L-472 1191.5 L-471 1189.5 L-469 1186.5 L-468 1184.5 L-466.5 1183 L-464.25 1182.75 L-459.75 1176 L-459.75 1170 L-460.375 1168 L-461 1164.5 L-462 1164 L-462 1164.5 L-462.5 1166 L-465.5 1172 L-472.5 1189 L-473 1191.5 L-472 1192 M-471 1168 L-471 1166.5 L-472 1166 L-472 1167 L-471 1168 M-490 1216 L-490 1215.5 L-489.5 1214 L-486.5 1208 L-486 1206.5 L-484 1204.5 L-483.375 1202 L-475.5 1183 L-472.5 1172 L-472 1168.5 L-472.5 1168 L-474 1169.5 L-474.625 1172 L-490.5 1213 L-491 1215.5 L-490 1216 M-414 1141.25 L-411.5 1141 L-411 1140 L-411.5 1140 L-413 1139.5 L-427 1132.63 L-430 1131.63 L-436 1130.25 L-438 1130.25 L-443 1131.75 L-447.5 1134 L-448 1135 L-447.5 1135 L-444 1135.5 L-440 1136.63 L-438 1137.38 L-425 1141.25 L-414 1141.25 M-318.5 1112 L-316.25 1110.75 L-316 1108.5 L-317.5 1107 L-320.5 1110 L-322.5 1110 L-323 1110.5 L-320.5 1113 L-318.5 1112 M-295 1140.5 L-293.5 1140 L-293 1139 L-293.5 1139 L-295.5 1138 L-297.75 1137.25 L-297.5 1139 L-296.75 1140.75 L-295 1140.5 M-252 1239 L-252.25 1214 L-255.625 1196 L-256.625 1193 L-273.5 1157 L-282 1143.5 L-283 1141.5 L-284.5 1140 L-288.5 1138 L-290 1139.5 L-289 1141.5 L-284.5 1148 L-283.5 1150 L-283 1151.5 L-281 1153.5 L-280.375 1156 L-270.5 1179 L-267.5 1186 L-263.5 1193 L-263 1194.5 L-261 1196.5 L-260.5 1200 L-258.5 1207 L-256.375 1218 L-255 1223.5 L-254 1224.5 L-254.5 1225 L-255.75 1225.25 L-255.5 1227 L-255.625 1231 L-253.625 1236 L-253 1238.5 L-252 1239 M-284.5 1154 L-284 1153.5 L-284.5 1152 L-285.5 1150 L-289 1144.5 L-292.5 1141 L-295 1143.5 L-294.5 1145 L-291.5 1151 L-291 1152.5 L-290 1153 L-290 1152.5 L-289.25 1150.25 L-284.5 1154 M-289 1154 L-289 1153 L-290 1153 L-290 1154 L-289 1154 M-284 1164 L-284 1163.5 L-284.625 1160 L-287 1155.5 L-288.5 1154 L-289 1154.5 L-288.5 1156 L-286.5 1160 L-285.5 1162.5 L-284 1164 M-283 1155 L-283 1154 L-284 1154 L-284 1155 L-283 1155 M-282 1157 L-282 1156 L-283 1156 L-283 1157 L-282 1157 M-281 1164 L-281 1162.5 L-282 1162 L-282 1163 L-281 1164 M-283 1166 L-283 1164.5 L-284 1164 L-284 1165 L-283 1166 M-280 1167 L-280 1165.5 L-281 1165 L-281 1166 L-280 1167 M-282 1168 L-282 1167 L-283 1167 L-283 1168 L-282 1168 M-269 1193 L-269 1192.5 L-269.625 1190 L-271.5 1186 L-278.375 1170 L-279 1167.5 L-280 1167 L-280 1167.5 L-279.375 1171 L-277.5 1176 L-277 1178.5 L-275 1180.5 L-274.625 1182 L-271.5 1189 L-270.5 1191.5 L-269 1193 M-471 1177 L-471 1176 L-472 1176 L-472 1177 L-471 1177 M-474 1189 L-474 1187.5 L-475 1187 L-475 1188 L-474 1189 M-475 1192 L-475 1189.5 L-476 1189 L-476 1191.5 L-475 1192 M-481.5 1208 L-480 1206.5 L-479.5 1205 L-477.5 1201 L-477 1199.5 L-475 1197.5 L-476 1196.5 L-476 1192.5 L-477 1192 L-477 1192.5 L-477.5 1194 L-482.5 1205 L-483 1206.5 L-484 1207.5 L-483.5 1208 L-481.5 1208 M-473 1193 L-473 1192 L-474 1192 L-474 1193 L-473 1193 M-485.25 1216.75 L-484.5 1215 L-483.5 1213 L-483 1211.5 L-482 1210.5 L-482.5 1210 L-483.75 1210.25 L-484.25 1211.75 L-485.75 1212.25 L-486.375 1214 L-486.75 1216.75 L-485.25 1216.75 M-491 1219 L-491 1216.5 L-492 1216 L-492 1218.5 L-491 1219 M-492 1222 L-492 1219.5 L-493 1219 L-493 1221.5 L-492 1222 M-387.5 1187 L-387 1186 L-388.5 1186 L-389 1187 L-387.5 1187 M-385 1193.25 L-381.5 1192 L-381 1191 L-382.5 1191 L-384.5 1189 L-419 1188.88 L-423.5 1190 L-425 1191.5 L-423 1193.5 L-423 1194.5 L-426.5 1198 L-428 1196.5 L-428 1195.5 L-428.5 1195 L-432 1198.5 L-438.625 1216 L-439 1217.5 L-438.5 1218 L-437 1216.5 L-436 1214.5 L-432 1208.5 L-431 1206.5 L-421.5 1197 L-415 1193.5 L-413 1192.75 L-406.5 1192 L-405.5 1191 L-404.5 1192 L-394 1192.75 L-390 1193.5 L-385 1193.25 M-426 1195 L-426 1194 L-427 1194 L-427 1195 L-426 1195 M-439 1213 L-439 1211.5 L-440 1211 L-440 1212 L-439 1213 M-440 1215 L-440 1213.5 L-441 1213 L-441 1214 L-440 1215 M-441 1218 L-441 1215.5 L-442 1215 L-442 1217.5 L-441 1218 M-443 1223 L-443 1222.5 L-442 1218.5 L-443 1218 L-443 1218.5 L-444 1222.5 L-443 1223 M-439 1220 L-439 1218.5 L-440 1218 L-440 1219 L-439 1220 M-444 1224 L-444 1223 L-445 1223 L-445 1224 L-444 1224 M-363.5 1190 L-363 1189.5 L-365.5 1187 L-366.5 1187 L-368.5 1185 L-372 1185.5 L-375 1186.25 L-382.5 1187 L-383 1188 L-372 1188.75 L-368 1189.5 L-363.5 1190 M-383.5 1187 L-383 1186 L-384.5 1186 L-385 1187 L-383.5 1187 M-331 1189 L-331 1188 L-332 1188 L-332 1189 L-331 1189 M-378 1191 L-378 1190 L-379 1190 L-379 1191 L-378 1191 M-372.5 1191 L-372 1190 L-375.5 1190 L-376 1191 L-372.5 1191 M-330 1193 L-330 1191.5 L-331 1191 L-331 1192 L-330 1193 M-365 1193 L-365 1192 L-366 1192 L-366 1193 L-365 1193 M-340.5 1203 L-340 1202.5 L-342 1200.5 L-342.25 1199.25 L-344.5 1198 L-351 1193.63 L-354 1192.5 L-356.75 1192.25 L-357 1193.5 L-358 1194.5 L-357.5 1195 L-355 1195.63 L-350 1197.5 L-347.5 1198 L-344.5 1201 L-340.5 1203 M-358.5 1194 L-358 1193 L-359.5 1193 L-360 1194 L-358.5 1194 M-324 1215 L-324 1214.5 L-324.375 1212 L-328.5 1196 L-329 1193.5 L-330 1193 L-329.5 1198 L-325.375 1213.5 L-324 1215 M-326 1219 L-326 1218.5 L-327 1214.5 L-329.5 1212 L-330.5 1212 L-331 1212.5 L-328 1215.5 L-327.5 1217.5 L-326 1219 M-325 1221 L-325 1219.5 L-326 1219 L-326 1220 L-325 1221 M-324 1223 L-324 1222 L-325 1222 L-325 1223 L-324 1223 M-272 1192 L-272 1191 L-273 1191 L-273 1192 L-272 1192 M-266 1192 L-266 1191 L-267 1191 L-267 1192 L-266 1192 M-271 1194 L-271 1193 L-272 1193 L-272 1194 L-271 1194 M-268 1195 L-268 1193.5 L-269 1193 L-269 1194 L-268 1195 M-267 1196 L-267 1195 L-268 1195 L-268 1196 L-267 1196 M-263.5 1210 L-263 1209.5 L-263.5 1208 L-267.5 1200 L-268.25 1198.25 L-269.5 1198 L-270 1198.5 L-269 1199.5 L-268.5 1201 L-266.625 1205 L-266 1207.5 L-263.5 1210 M-271.25 1201.75 L-271 1200.5 L-271.5 1200 L-273 1201.5 L-272.5 1202 L-271.25 1201.75 M-270 1203 L-270 1202 L-271 1202 L-271 1203 L-270 1203 M-262 1212 L-262 1210.5 L-263 1210 L-263 1211 L-262 1212 M-261 1214 L-261 1213 L-262 1213 L-262 1214 L-261 1214 M-544.5 1262 L-539.5 1257 L-535 1255.63 L-528.5 1255 L-528 1254 L-528.5 1254 L-531 1253.38 L-535 1251.75 L-543.5 1251 L-546 1253.5 L-545 1261.5 L-544.5 1262 M-512.5 1259 L-512 1258 L-537.5 1258 L-541.5 1262 L-542.5 1262 L-544 1263.5 L-543 1270.5 L-542 1271 L-542 1270.5 L-541.75 1269.25 L-523 1261.63 L-516 1259.5 L-512.5 1259 M-546 1267 L-546 1266 L-547 1266 L-547 1267 L-546 1267 M-450 1252 L-450 1251 L-451 1251 L-451 1252 L-450 1252 M-464 1281 L-464 1279.5 L-465 1279 L-465 1280 L-464 1281 M-463 1282 L-463 1281 L-464 1281 L-464 1282 L-463 1282 M-460.25 1287.75 L-460 1286.5 L-461.5 1285 L-463 1284.5 L-464.75 1284.25 L-465 1286.5 L-463.5 1288 L-460.25 1287.75 M-468.25 1292.88 L-468 1291.5 L-468.5 1291 L-469.5 1292 L-473.5 1292 L-474 1293 L-468.25 1292.88 M-477 1299.38 L-466 1297.5 L-461.5 1297 L-461 1296 L-461.5 1296 L-467 1295.13 L-489 1296.88 L-492.75 1298.25 L-492.75 1300 L-477 1299.38 M-449 1251 L-449 1249.5 L-450 1249 L-450 1250 L-449 1251 M-328 1281 L-328 1280 L-329 1280 L-329 1281 L-328 1281 M-297.5 1289 L-297 1288 L-297.5 1288 L-300 1287.38 L-315 1281.63 L-319 1280.5 L-324.5 1280 L-327 1282.5 L-326.5 1283 L-311.5 1284 L-311 1284.5 L-312.5 1286 L-313.5 1286 L-314 1287 L-313.5 1287 L-307 1288.38 L-297.5 1289 M-328 1285 L-328 1284 L-329 1284 L-329 1285 L-328 1285 M-317.5 1288 L-317 1287 L-317.5 1287 L-323 1285.63 L-327.5 1285 L-328 1286 L-327.5 1286 L-321 1287.5 L-317.5 1288 M-317 1242 L-317 1241 L-318 1241 L-318 1242 L-317 1242 M-314 1244 L-314 1243 L-315 1243 L-315 1244 L-314 1244 M-251.125 1261 L-251.125 1256.25 L-255 1256.38 L-263 1257.5 L-271.5 1258 L-272.5 1259 L-273.5 1258 L-288.5 1260 L-289 1261 L-251.125 1261 M-315.5 1289 L-315 1288 L-316.5 1288 L-317 1289 L-315.5 1289 M-313 1290 L-313 1289 L-314 1289 L-314 1290 L-313 1290 M-294 1290 L-294 1289 L-295 1289 L-295 1290 L-294 1290 M-247 1298.5 L-243.5 1298 L-243 1297.5 L-244.5 1296 L-277.5 1292 L-278 1293 L-276.5 1293 L-274.5 1295 L-247 1298.5 M-291 1294 L-291 1293 L-292 1293 L-292 1294 L-291 1294 M-281.5 1296 L-281 1295 L-281.5 1295 L-287.5 1294 L-288 1295 L-287.5 1295 L-281.5 1296 M-277.5 1297 L-277 1296 L-278.5 1296 L-279 1297 L-277.5 1297 M-226.25 1277.75 L-225.75 1275.25 L-224.5 1275 L-223.5 1276 L-222.5 1275 L-221.5 1275 L-220 1273.5 L-220.625 1270 L-221.5 1268 L-222 1266.5 L-223.5 1265 L-231.5 1259 L-234 1257.63 L-237 1256.75 L-248.875 1256 L-248.875 1260.75 L-242 1262.75 L-233.5 1262 L-231 1264.5 L-228.875 1277.75 L-226.25 1277.75 M-231 1257 L-231 1256 L-232 1256 L-232 1257 L-231 1257 M-229 1258 L-229 1257 L-230 1257 L-230 1258 L-229 1258 M-227.5 1259 L-227 1258 L-228.5 1258 L-229 1259 L-227.5 1259 M-217.5 1271 L-215 1268.5 L-221.5 1262 L-224 1260.5 L-226.75 1259.25 L-226.75 1260.75 L-222.5 1263 L-220 1265.5 L-219 1269.5 L-217.5 1271 M-221 1283 L-221 1282.5 L-220.25 1277.25 L-221.5 1277 L-223 1278.5 L-222 1282.5 L-221 1283 M-227.5 1287 L-227 1286.5 L-226.5 1285 L-225.625 1283 L-225 1279.5 L-225.5 1279 L-226.5 1280 L-227.5 1280 L-229 1281.5 L-229 1285.5 L-227.5 1287 M-236.5 1295 L-234 1292.5 L-236 1290.5 L-235.5 1290 L-230.25 1288.75 L-231 1282.5 L-231.5 1282 L-233.5 1284 L-234.5 1284 L-242 1291.5 L-242.5 1293 L-242.75 1294.88 L-236.5 1295 M-224 1288 L-224 1287.5 L-223 1283.5 L-224 1283 L-224 1283.5 L-225 1287.5 L-224 1288 M-232 1295.38 L-230.5 1295 L-226 1290.5 L-226.5 1290 L-227.5 1290 L-228.5 1291 L-229.5 1290 L-230.5 1291 L-231.75 1291.25 L-232 1293.5 L-233.5 1295 L-234.5 1295 L-235 1296 L-232 1295.38 M-235 1297 L-235 1296 L-236 1296 L-236 1297 L-235 1297 M-271.5 1298 L-271 1297 L-274.5 1297 L-275 1298 L-271.5 1298 M-266.5 1299 L-266 1298 L-269.5 1298 L-270 1299 L-266.5 1299 M-238.5 1298 L-238 1297 L-240.5 1297 L-241 1298 L-238.5 1298 M-251.5 1301 L-251 1300 L-252.5 1300 L-253 1301 L-251.5 1301 M-243.5 1301 L-243 1300 L-246.5 1300 L-247 1301 L-243.5 1301 "></path>
    </g>
    <g>
      <path fill="#000000" fill-rule="evenodd" d="M-194.5 1121 L-207 1123.38 L-215.5 1124 L-216.5 1123 L-218.5 1125 L-222 1126.25 L-226.5 1127 L-229 1129.5 L-229.25 1130.88 L-237 1131.75 L-239 1132.25 L-243.75 1132.88 L-243.75 1131.25 L-240 1131 L-240.5 1130 L-247 1128.38 L-252 1126.5 L-254.5 1126 L-255.5 1125 L-256.5 1126 L-257.5 1125 L-262 1124.5 L-271 1122.38 L-276 1120.5 L-278.5 1120 L-280.5 1118 L-288 1112.75 L-296 1110.5 L-299 1109.38 L-300.5 1109 L-302 1107.5 L-301.75 1106.25 L-300 1106.5 L-295 1108.5 L-287 1110.75 L-278 1117.38 L-270 1120.5 L-262 1122.5 L-257.5 1123 L-256.5 1124 L-255.5 1123 L-254 1123.5 L-252 1124.38 L-248 1125.63 L-246.25 1125.75 L-246 1122.5 L-242.5 1119 L-238 1116.63 L-234.25 1115.75 L-234.25 1114.25 L-237.5 1114 L-240 1111.5 L-240 1108.5 L-238.5 1107 L-237 1107.5 L-230 1111.5 L-228 1112.25 L-220 1112.38 L-214.5 1111 L-210 1106.5 L-209.5 1105 L-207.5 1100 L-206.5 1096 L-206 1092.5 L-204.5 1091 L-203.5 1092 L-203 1091.5 L-200.5 1063 L-198.5 1056 L-195.375 1048 L-194 1045.5 L-190.5 1040 L-189.625 1038 L-185.25 1021 L-185.125 1019 L-190.75 897 L-206 871.5 L-207.5 870 L-208 870.5 L-207.5 872 L-200.625 885 L-200 887.5 L-200.5 888 L-202 886.5 L-202 885 L-203 885.5 L-202.5 888 L-202.25 891.75 L-203.75 891.75 L-204.5 888 L-208.5 878 L-220 855.5 L-221.5 854 L-227 852.5 L-241 847.375 L-243 846.5 L-251 841.5 L-255 838.5 L-278 817.5 L-293 811.5 L-300 809.5 L-303 808.375 L-304.5 808 L-305 808.5 L-303 810.5 L-302.5 812 L-301.5 814 L-300.75 816 L-299.375 821 L-299.25 823.75 L-300.75 823.75 L-302.75 816 L-303.5 814 L-306 809.5 L-308.5 807 L-324 803.5 L-338 799.5 L-342 799.375 L-351 800.75 L-356.5 802 L-357.5 803 L-358.5 802 L-359.5 802 L-361 800.5 L-359.5 799 L-357.5 801 L-356.5 800 L-352.5 799 L-352 799 L-352.5 798 L-382 799.5 L-467 812.625 L-470 813.625 L-472.5 815 L-481 820.5 L-485.5 823 L-488.5 825 L-490.5 826 L-493.5 829 L-494.5 828 L-504 837.5 L-504 838.5 L-513.5 848 L-514.5 848 L-520 853.5 L-531 866.5 L-532.5 869 L-536.5 879 L-543.5 907 L-551.25 1019 L-549.75 1026 L-549 1047.5 L-547 1049.5 L-543.125 1083.75 L-544.875 1083.75 L-548 1054 L-549 1054.5 L-548 1070.5 L-548.5 1071 L-550 1069.5 L-551.75 1052 L-553.25 1047.25 L-556.5 1047 L-558 1045.5 L-552.375 903 L-550.5 892 L-545.5 873 L-538.5 855 L-534 846.5 L-530 840.5 L-529 838.5 L-516.5 826 L-513.5 824 L-495.5 810 L-486.5 804 L-484.25 803.25 L-484 804.5 L-485.5 806 L-487.5 807 L-497 813.5 L-516.5 829 L-519.5 831 L-524 835.5 L-525.5 838 L-532.5 848 L-536.5 856 L-537 857.5 L-536.5 858 L-531.5 853 L-525.5 849 L-514 837.5 L-512 834.5 L-508 829.5 L-506 826.5 L-504.5 825 L-503.5 825 L-500 821.5 L-500 820.5 L-494.5 815 L-491.5 813 L-464 787.5 L-459 783.5 L-456 781.5 L-454.25 781.25 L-454.25 782.75 L-457 784.5 L-461.5 788 L-464.5 790 L-470 795.5 L-469.5 796 L-461 793.5 L-457.5 793 L-455.5 791 L-447 789.375 L-444 788.375 L-433 783.5 L-421 780.5 L-379 779.75 L-373 780.5 L-362.5 780 L-358 784.5 L-358.25 785.75 L-360.75 785.75 L-362.25 782.25 L-373 782.5 L-379 781.75 L-421 782.625 L-425 783.5 L-436 786.625 L-438 787.5 L-439.5 788 L-441.5 790 L-453 792.75 L-460 795.375 L-465.5 796 L-467.5 798 L-469.5 798 L-476.5 805 L-478 805.5 L-484.5 810 L-496 821.5 L-517.5 845 L-519 847.5 L-520.5 849 L-521.5 849 L-523 850.5 L-523.5 852 L-524.5 854 L-525 855.5 L-524.5 856 L-521 852.5 L-521 851.5 L-518.5 849 L-517.5 849 L-503 834.5 L-503 833.5 L-489.5 820 L-471.5 804 L-469.5 803 L-469 803.5 L-476 810.5 L-475.5 811 L-469.5 811 L-469 810.5 L-470 809.5 L-470 807.5 L-468.5 806 L-467 805.625 L-464 804.5 L-424 795.375 L-422 794.625 L-392 788.75 L-373 788.625 L-361 790.5 L-351 793.5 L-345.25 794.125 L-344.75 796 L-320 796.375 L-311.5 798 L-310.5 797 L-309.5 798 L-297.5 799 L-297 798.5 L-298.5 797 L-299.75 796.75 L-299.75 795.25 L-297.5 796 L-295.5 797 L-292.5 800 L-289 800.5 L-272 805.625 L-270 806.5 L-268.5 807 L-268 806.5 L-269 805.5 L-275 797.5 L-276 796.5 L-275 795.5 L-275.5 795 L-281.5 794 L-283.5 792 L-316 784.75 L-353.75 783.875 L-353.75 782.125 L-316 782.75 L-311 783.5 L-292 788.375 L-285.5 789 L-284.5 790 L-283.5 789 L-282 789.5 L-272 794.375 L-268 795.5 L-265 796.625 L-263.5 797 L-263 796.5 L-264 795.5 L-263.5 795 L-261.5 795 L-254.5 802 L-253.5 802 L-251.5 804 L-249.5 804 L-247.5 806 L-242.5 809 L-232.5 819 L-231.5 818 L-230.5 819 L-229.5 819 L-225 823.5 L-223.5 826 L-209.5 844 L-208 846.5 L-204.5 850 L-203 850.375 L-195 853.5 L-190.5 856 L-188 858.5 L-188.25 859.75 L-191 858.5 L-194 856.5 L-200 853.5 L-201.5 853 L-202 853.5 L-201 854.5 L-200 856.5 L-196.5 862 L-187.625 879 L-177.5 905 L-177.75 911 L-173.625 943 L-173.75 971 L-174.5 977 L-176.5 985 L-179.5 1021 L-179.25 1023.75 L-180.75 1023.75 L-181.5 1021 L-178.375 984 L-176.5 977 L-175.75 971 L-176.625 930 L-179.625 911 L-180.5 908 L-182.375 903 L-184 896.5 L-184 896 L-185 896.5 L-185 897.5 L-185.5 898 L-186.5 897 L-188 898.5 L-188.875 909 L-182.375 1027 L-181.75 1030.75 L-176.5 1030 L-176 1030.5 L-177.5 1032 L-180.5 1033 L-182 1034.5 L-181 1043.5 L-181.5 1044 L-183 1042.5 L-183.125 1036.25 L-184.5 1036 L-188 1039.5 L-187.75 1070 L-188.5 1074 L-188 1092.5 L-189.5 1094 L-190 1093.5 L-190.5 1073 L-189.75 1069 L-190 1044.5 L-190.5 1044 L-192 1045.5 L-193 1048.5 L-194 1049.5 L-193 1050.5 L-193.125 1057.75 L-194.75 1058.25 L-199.25 1076 L-200.875 1097 L-200 1104.5 L-198.5 1106 L-198 1105.5 L-197.75 1102.25 L-196.5 1102 L-195 1103.5 L-194.5 1106 L-192.625 1112 L-192 1118.5 L-194.5 1121 M-470 797 L-470 796 L-471 796 L-471 797 L-470 797 M-471 798 L-471 797 L-472 797 L-472 798 L-471 798 M-459 806 L-459 805 L-460 805 L-460 806 L-459 806 M-451.5 806 L-451 805 L-452.5 805 L-453 806 L-451.5 806 M-462 807 L-462 806 L-463 806 L-463 807 L-462 807 M-454.5 807 L-454 806 L-455.5 806 L-456 807 L-454.5 807 M-466 808.5 L-464.5 808 L-464 807 L-466.5 807 L-468 808.5 L-467.5 809 L-466 808.5 M-456.5 808 L-456 807 L-458.5 807 L-459 808 L-456.5 808 M-459.5 809 L-459 808 L-460.5 808 L-461 809 L-459.5 809 M-451.5 809 L-451 808 L-452.5 808 L-453 809 L-451.5 809 M-476 812 L-476 811 L-477 811 L-477 812 L-476 812 M-485 820.5 L-475.5 815 L-474 813.5 L-474.5 813 L-478.5 812 L-487 820.5 L-486.5 821 L-485 820.5 M-487 822 L-487 821 L-488 821 L-488 822 L-487 822 M-488 823 L-488 822 L-489 822 L-489 823 L-488 823 M-407 794.625 L-396.25 794 L-395.75 792.25 L-394.5 792 L-394 791 L-394.5 791 L-412.5 794 L-413 795 L-407 794.625 M-382 792.5 L-371.5 792 L-371 791 L-385 790.75 L-389 791.625 L-391 792.375 L-393.5 793 L-394 794 L-382 792.5 M-415.5 796 L-415 795 L-417.5 795 L-418 796 L-415.5 796 M-382 797.5 L-373.5 797 L-373 796 L-434 800.625 L-437 801.625 L-448 806.5 L-449.5 807 L-450 808 L-449.5 808 L-382 797.5 M-365.5 792 L-365 791 L-367.5 791 L-368 792 L-365.5 792 M-368.5 794 L-368 793 L-370.5 793 L-371 794 L-368.5 794 M-346.5 798 L-346 797 L-350.5 797 L-351 798 L-346.5 798 M-315.5 803 L-315 802 L-315.5 802 L-320 800.625 L-325 799.5 L-329.5 799 L-330 800 L-329.5 800 L-315.5 803 M-269 798 L-269 797 L-270 797 L-270 798 L-269 798 M-262 798 L-262 797 L-263 797 L-263 798 L-262 798 M-243.5 821 L-243 820.5 L-244 818.5 L-253 806.5 L-257.5 802 L-259 801.5 L-261 800.5 L-266 798.5 L-268.5 798 L-269 798.5 L-251.5 816 L-249.5 817 L-243.5 821 M-314.5 800 L-314 799 L-316.5 799 L-317 800 L-314.5 800 M-282.5 813 L-282 812.5 L-292.5 802 L-299 800.625 L-309.5 800 L-310.5 799 L-311.5 800 L-313.5 800 L-314 801 L-313.5 801 L-307 805.375 L-292 809.5 L-284 812.625 L-282.5 813 M-268 803 L-268 802 L-269 802 L-269 803 L-268 803 M-313.5 804 L-313 803 L-314.5 803 L-315 804 L-313.5 804 M-250.5 830 L-250 829.5 L-251 828.5 L-252.5 826 L-259.5 817 L-261 814.5 L-265.5 810 L-268 809.5 L-286 803.375 L-287.5 803 L-288 803.5 L-274.5 817 L-273 817.5 L-250.5 830 M-267 804 L-267 803 L-268 803 L-268 804 L-267 804 M-266 805 L-266 804 L-267 804 L-267 805 L-266 805 M-265 806 L-265 805 L-266 805 L-266 806 L-265 806 M-264 807 L-264 806 L-265 806 L-265 807 L-264 807 M-267 808 L-267 807 L-268 807 L-268 808 L-267 808 M-262.5 809 L-262 808.5 L-263.5 807 L-264 807.5 L-263.75 808.75 L-262.5 809 M-261 810 L-261 809 L-262 809 L-262 810 L-261 810 M-280.5 814 L-280 813 L-281.5 813 L-282 814 L-280.5 814 M-259 814 L-259 813 L-260 813 L-260 814 L-259 814 M-279 815 L-279 814 L-280 814 L-280 815 L-279 815 M-258 815 L-258 814 L-259 814 L-259 815 L-258 815 M-269 822 L-269 821 L-270 821 L-270 822 L-269 822 M-268 823 L-268 822 L-269 822 L-269 823 L-268 823 M-224.25 850.75 L-225 848.5 L-227 845.5 L-228.25 843.25 L-234 840.625 L-236.5 840 L-238.5 838 L-239.5 838 L-241.5 836 L-244 835.375 L-266 823.5 L-267.5 823 L-268 823.5 L-255.5 836 L-244 843.5 L-242.5 844 L-240.5 846 L-238 846.5 L-226 850.625 L-224.25 850.75 M-250 807 L-250 806 L-251 806 L-251 807 L-250 807 M-213.5 845 L-213 844.5 L-216.5 839 L-223 830.5 L-224.5 829 L-225.75 828.75 L-226.25 827.25 L-247 808.5 L-249.5 807 L-250 807.5 L-247 810.5 L-245.5 813 L-236 826.5 L-235 828.5 L-229.5 834 L-227.5 835 L-217.5 841.5 L-213.5 845 M-253.5 821 L-253 820.5 L-253 819.5 L-252 818.5 L-254.5 816 L-257.5 815 L-258 815.5 L-257 817 L-253.5 821 M-234.5 837 L-234 836.5 L-235 835.5 L-235 834.5 L-239.5 830 L-242 828.5 L-245.5 826 L-248 824.5 L-249.5 824 L-252.5 821 L-253 821.5 L-250 826.5 L-245.5 831 L-244.5 831 L-240.5 835 L-238 835.625 L-236 836.5 L-234.5 837 M-242 822 L-242 821 L-243 821 L-243 822 L-242 822 M-243 824 L-243 823 L-244 823 L-244 824 L-243 824 M-242 825 L-242 824 L-243 824 L-243 825 L-242 825 M-238.5 828 L-238 827.5 L-240.5 825 L-241.5 825 L-242 825.5 L-239.5 828 L-238.5 828 M-237 829 L-237 828 L-238 828 L-238 829 L-237 829 M-236 830 L-236 829 L-237 829 L-237 830 L-236 830 M-249 831 L-249 830 L-250 830 L-250 831 L-249 831 M-219.5 844 L-219 843.5 L-221.5 841 L-223.5 840 L-226.5 838 L-228.5 837 L-229 837.5 L-227 839.5 L-227 840.5 L-225.5 842 L-224 842.5 L-222 843.375 L-219.5 844 M-217.5 845 L-217 844 L-218.5 844 L-219 845 L-217.5 845 M-212 846 L-212 845 L-213 845 L-213 846 L-212 846 M-203.5 862 L-203 861.5 L-204 859.5 L-206 856.5 L-207 854.5 L-212.5 849 L-214 848.625 L-219 846.625 L-221.5 846 L-222 846.5 L-218 850.5 L-218 851.5 L-214.5 855 L-213 855.5 L-207 859 L-203.5 862 M-211 847 L-211 846 L-212 846 L-212 847 L-211 847 M-210 848 L-210 847 L-211 847 L-211 848 L-210 848 M-526 853 L-526 852 L-527 852 L-527 853 L-526 853 M-544 881 L-544 880.5 L-542.5 878 L-535.5 869 L-533.5 866 L-527.5 855 L-527 853.5 L-527.5 853 L-528.5 854 L-532.5 857 L-536.75 859.75 L-537 858.5 L-538 858 L-538 858.5 L-544.5 877 L-545 880.5 L-544 881 M-525 857 L-525 856 L-526 856 L-526 857 L-525 857 M-537 876 L-537 875 L-538 875 L-538 876 L-537 876 M-552 953 L-551.5 941 L-544 894.5 L-542 892.5 L-541.5 890 L-540.5 887 L-538 876.5 L-538.5 876 L-540 877.5 L-541.5 880 L-546 886.5 L-547.375 889 L-548.5 893 L-550.375 904 L-553 952.5 L-552 953 M-545 882 L-545 881 L-546 881 L-546 882 L-545 882 M-206 852 L-206 851 L-207 851 L-207 852 L-206 852 M-219 853 L-219 852 L-220 852 L-220 853 L-219 853 M-205 854 L-205 853 L-206 853 L-206 854 L-205 854 M-204 855 L-204 854 L-205 854 L-205 855 L-204 855 M-216 857 L-216 856 L-217 856 L-217 857 L-216 857 M-203 857 L-203 856 L-204 856 L-204 857 L-203 857 M-215 859 L-215 858 L-216 858 L-216 859 L-215 859 M-212 859 L-212 858 L-213 858 L-213 859 L-212 859 M-214 860 L-214 859 L-215 859 L-215 860 L-214 860 M-188.5 894 L-186 891.5 L-187 890.5 L-187.5 888 L-192.5 877 L-194.625 872 L-195 870.5 L-196 870 L-196 870.5 L-193.5 880 L-193.25 882.75 L-194.75 882.75 L-196.5 876 L-200.25 866.25 L-202.5 865 L-209.5 860 L-211.5 859 L-212 859.5 L-211 860.5 L-210 862.5 L-200 877.5 L-197.5 882 L-192 890.5 L-191 892.5 L-189.5 894 L-188.5 894 M-213 862 L-213 861 L-214 861 L-214 862 L-213 862 M-212 863 L-212 862 L-213 862 L-213 863 L-212 863 M-202 863 L-202 862 L-203 862 L-203 863 L-202 863 M-211 865 L-211 864 L-212 864 L-212 865 L-211 865 M-210 867 L-210 865.5 L-211 865 L-211 866 L-210 867 M-197 868 L-197 866.5 L-198 866 L-198 867 L-197 868 M-208.5 870 L-208 869.5 L-208 868.5 L-209.5 867 L-210 868 L-208.5 870 M-196 870 L-196 868.5 L-197 868 L-197 869 L-196 870 M-204 882 L-204 881 L-205 881 L-205 882 L-204 882 M-203 885 L-203 883.5 L-204 883 L-204 884 L-203 885 M-553 966 L-553 957.5 L-554 957 L-554 965.5 L-553 966 M-551.5 1047 L-551 1046.5 L-553 1022.5 L-554 1022 L-555.875 1044.75 L-553.5 1045 L-551.5 1047 M-185.5 1034 L-184 1032.5 L-184 1028.5 L-185 1028 L-185 1028.5 L-186 1033.5 L-185.5 1034 M-186 1035 L-186 1034 L-187 1034 L-187 1035 L-186 1035 M-195 1054 L-195 1053 L-196 1053 L-196 1054 L-195 1054 M-196 1057 L-196 1056 L-197 1056 L-197 1057 L-196 1057 M-197 1060 L-197 1059 L-198 1059 L-198 1060 L-197 1060 M-198 1064 L-198 1063 L-199 1063 L-199 1064 L-198 1064 M-206.5 1105 L-204 1102.5 L-203 1095.5 L-203.5 1095 L-205 1096.5 L-205.5 1100 L-206.625 1103.5 L-206.5 1105 M-207.5 1114 L-205.5 1112 L-204.125 1111.75 L-204.125 1106.25 L-206.5 1107 L-208.5 1108 L-209 1108.5 L-208 1109.5 L-208 1110.5 L-207 1111.5 L-208 1113 L-207.5 1114 M-194.125 1118.75 L-195 1109.5 L-196.5 1108 L-197 1108.5 L-198 1118.5 L-199 1119.5 L-198.5 1120 L-194.125 1118.75 M-234.5 1112 L-234 1111 L-235.5 1111 L-237.5 1109 L-238 1109.5 L-237.75 1111.75 L-234.5 1112 M-200 1110 L-200 1109 L-201 1109 L-201 1110 L-200 1110 M-210 1113 L-210 1111.5 L-211 1111 L-211 1112 L-210 1113 M-208 1121.38 L-203.25 1120.88 L-203 1118.5 L-201.5 1117 L-200.5 1118 L-200 1117.5 L-199 1112.5 L-199.5 1112 L-202.5 1115 L-203.5 1115 L-205.5 1117 L-208 1117.63 L-210 1118.38 L-213.5 1119 L-216 1121.5 L-215.5 1122 L-208 1121.38 M-216.5 1117 L-215 1115.5 L-215 1114.5 L-214 1113.5 L-214.5 1113 L-216 1113.38 L-219.5 1114 L-221 1115.5 L-220.5 1116 L-216.5 1117 M-211 1114 L-211 1113 L-212 1113 L-212 1114 L-211 1114 M-212 1115 L-212 1114 L-213 1114 L-213 1115 L-212 1115 M-219.5 1119 L-219 1118 L-219.5 1118 L-224.5 1117 L-226.5 1115 L-231.5 1115 L-232 1116 L-227.5 1116 L-225.5 1118 L-219.5 1119 M-232 1120.5 L-226.5 1120 L-226 1119 L-226.5 1119 L-232 1117.38 L-234 1117.38 L-237.5 1118 L-239 1119.5 L-237.5 1121 L-232 1120.5 M-234.5 1126 L-234 1125 L-234.5 1125 L-236.5 1124 L-239.5 1122 L-241.5 1121 L-244 1123.5 L-244 1124.5 L-242.5 1126 L-234.5 1126 M-229 1124.5 L-222.5 1123 L-222 1122.5 L-223.5 1121 L-233.5 1123 L-234 1124 L-233.5 1124 L-229 1124.5 M-245 1127 L-245 1126 L-246 1126 L-246 1127 L-245 1127 M-233.5 1129 L-232 1127.5 L-232.5 1127 L-238.5 1128 L-239 1129 L-233.5 1129 "></path>
    </g>
  </g>
</svg>
