<svg xmlns="http://www.w3.org/2000/svg" viewBox="375.375 1187.25 60.375 134.75" width="60.375px" height="134.75px">
  <path style="fill: rgb(255, 107, 0);" d="M 404.856 1193.74 C 397.805 1198.16 393.539 1202.77 390.051 1209.86 C 386.665 1216.74 384.225 1222.88 381.925 1230.2 C 379.763 1237.09 378.222 1249.4 377.904 1256.48 C 377.701 1260.99 378.849 1265.77 379.353 1270.28 C 379.456 1271.2 381.235 1278.45 381.364 1278.72 C 383.34 1282.87 383.627 1285.41 385.52 1289.6 C 387.683 1294.39 390.907 1296.36 393.635 1300.9 C 395.369 1303.79 398.017 1306.06 399.923 1308.86 C 401.575 1311.28 402.608 1312.48 404.714 1314.57 C 404.762 1314.62 406.124 1316.25 406.346 1316.21 C 407.19 1316.08 408.529 1313.85 409.052 1313.11 C 411.882 1309.11 414.108 1304.82 417.021 1300.84 C 419.247 1297.8 422.27 1294.91 423.807 1291.4 C 424.296 1290.28 423.927 1289.09 424.128 1287.92 C 424.688 1284.68 425.028 1284.3 426.356 1281.01 C 428.063 1276.78 430.595 1272.19 431.013 1267.55 C 431.868 1258.08 432.708 1245.51 431.366 1236.17 C 430.606 1230.89 428.714 1228.98 427.676 1223.72 C 427.342 1222.02 429.47 1223.4 428.6 1221.84 C 422.601 1211.17 435.233 1233.78 422.347 1210.03 C 421.606 1208.66 421.171 1206.97 420.487 1205.57 C 419.089 1202.72 416.766 1201.89 415.54 1198.96 C 415.334 1198.47 414.918 1196.53 414.481 1196.14 C 412.658 1194.53 409.94 1193.1 407.555 1192.39 C 407.521 1192.38 405.13 1191.54 405.105 1191.72 C 404.948 1192.86 403.923 1193.93 403.41 1194.97"></path>
  <g>
    <path fill="#000000" fill-rule="evenodd" d="M423.75 1236.75 L422.5 1237 L421 1235.5 L421.5 1235 L423.75 1235.25 L423.75 1236.75 "></path>
  </g>
  <g>
    <path fill="#000000" fill-rule="evenodd" d="M394.5 1274 L394 1273.5 L394 1270.5 L395.5 1269 L402.875 1267.88 L402.875 1262.13 L391.5 1263 L390 1261.5 L390.5 1261 L403 1259.88 L403 1251.25 L401 1251.38 L395.5 1253 L394 1251.5 L395.5 1250 L400.5 1250 L402 1248.5 L401.125 1238.25 L402.875 1238.25 L404.125 1248.88 L409.5 1249 L411 1250.5 L409.5 1252 L408.5 1251 L405 1251.25 L405 1259.88 L412.75 1260.13 L412.75 1261.88 L405.125 1262.13 L405.125 1266.88 L410 1266.25 L415.5 1267 L416 1267.5 L414.5 1269 L411.5 1269 L410.5 1268 L409.5 1269 L405.25 1269.13 L405 1272.5 L404.5 1273 L403 1271.5 L402.75 1270.13 L398 1270.75 L396.25 1271.25 L396 1272.5 L394.5 1274 "></path>
  </g>
  <g>
    <path fill="#000000" fill-rule="evenodd" d="M394.5 1241 L393 1239.5 L393.5 1239 L394.5 1239 L396.5 1237 L399.75 1237.25 L399.75 1238.75 L395.5 1240 L394.5 1241 "></path>
  </g>
  <g>
    <path fill="#000000" fill-rule="evenodd" d="M402.5 1322 L401 1320.5 L402 1319.5 L402 1317.5 L407.5 1312 L413.75 1307.75 L421 1298.5 L423 1295.5 L424.375 1293 L426.25 1288 L427.375 1283 L427.875 1275.13 L418.25 1273.88 L418 1272.5 L419.5 1271 L420.5 1272 L427.875 1272.88 L428.125 1268.25 L429.875 1268.25 L430 1274 L431 1273.5 L431.5 1270 L433.25 1262 L433.375 1246 L431.5 1234 L430.375 1230 L428.75 1225.25 L426 1225.38 L415 1228.5 L410 1230.38 L406 1231.5 L403 1231.5 L398 1229.5 L396 1228.5 L394.5 1228 L389 1222.5 L388.5 1221 L387.5 1219 L387 1217.5 L387 1217 L386 1217.5 L385.625 1219 L382.625 1227 L379.625 1239 L377.375 1264 L379.5 1276 L381.5 1281 L384.5 1286 L385 1287.5 L386.5 1289 L388 1288.63 L391 1287.5 L393.5 1287 L395.5 1285 L401 1283.75 L414 1283.88 L416 1283.5 L418 1283.38 L421 1284.5 L423.5 1285 L425 1286.5 L424.5 1287 L417.5 1286 L416.5 1285 L415.5 1286 L401 1285.75 L396.5 1287 L394.5 1289 L391 1289.63 L389.5 1290 L388 1291.5 L389 1292.5 L389 1293.5 L389.5 1294 L390.5 1293 L396 1291.75 L409.5 1291 L410.5 1290 L411.5 1291 L421.75 1292.25 L421.75 1293.75 L411.5 1293 L410.5 1292 L409.5 1293 L396 1293.75 L391.25 1295.25 L391.5 1297 L393.5 1300 L396.5 1304 L400.5 1310 L401.75 1312.75 L400.5 1313 L398 1310.5 L397 1308.5 L392 1301.5 L391 1299.5 L389.5 1298 L387 1299.5 L384.25 1300.75 L386 1297.5 L388 1294.5 L385.5 1292 L384.5 1292 L382.5 1294 L382 1293.5 L382 1291.5 L384 1289.5 L383.5 1288 L379.625 1282 L377.5 1276 L375.375 1264 L377.5 1239 L383.625 1216 L383.25 1212.25 L384.5 1212 L386 1210.5 L386.5 1209 L391 1200.5 L394.5 1195 L395.25 1193.25 L396.5 1193 L398 1191.5 L398.25 1190.25 L399.5 1190 L401 1191.5 L401 1193.5 L399.5 1195 L398.5 1195 L397 1196.5 L396.5 1198 L388.625 1211 L388.625 1214 L389 1215.5 L393.5 1220 L396.5 1221 L398.5 1223 L408 1224.38 L421 1224.25 L425 1223.38 L426.875 1222.75 L426.375 1218 L425.375 1215 L423.625 1211 L423 1208.5 L420 1205.5 L418 1201.5 L415.5 1199 L414.5 1199 L412 1196.5 L412 1195.5 L410.5 1194 L409 1193.5 L402 1189.63 L399.25 1188.75 L399.25 1187.25 L402 1187.5 L404.5 1188 L407.5 1191 L411.5 1192 L413 1193.5 L413 1194.5 L416.5 1198 L417.5 1198 L420 1200.5 L420.5 1202 L424.5 1208 L427.375 1214 L430.625 1225 L432.5 1230 L435.375 1246 L435.25 1262 L433.5 1270 L433.25 1273.75 L435.75 1274.25 L435.75 1275.75 L432.25 1276.25 L427.375 1291 L425.5 1295 L418.75 1305.75 L417.5 1306 L415 1308.5 L411 1314.5 L409.5 1316 L408.5 1316 L407.5 1315 L404 1318.5 L404 1320.5 L402.5 1322 M391 1221 L391 1220 L390 1220 L390 1221 L391 1221 M406 1229.63 L409 1228.5 L411.5 1228 L412 1227 L407 1226.5 L401 1225.38 L398 1224.38 L391.5 1221 L391 1221.5 L395.5 1226 L398.5 1227 L400.5 1229 L404 1229.63 L406 1229.63 "></path>
  </g>
</svg>
