<svg xmlns="http://www.w3.org/2000/svg" viewBox="457 1192 63.875 132" width="63.875px" height="132px">
  <path style="fill: rgb(255, 107, 0);" d="M 489.512 1198.57 C 482.461 1202.99 478.195 1207.6 474.707 1214.69 C 471.321 1221.57 468.881 1227.71 466.581 1235.03 C 464.419 1241.92 462.878 1254.23 462.56 1261.31 C 462.357 1265.82 463.505 1270.6 464.009 1275.11 C 464.112 1276.03 465.891 1283.28 466.02 1283.55 C 467.996 1287.7 468.283 1290.24 470.176 1294.43 C 472.339 1299.22 475.563 1301.19 478.291 1305.73 C 480.025 1308.62 482.673 1310.89 484.579 1313.69 C 486.231 1316.11 487.264 1317.31 489.37 1319.4 C 489.418 1319.45 490.78 1321.08 491.002 1321.04 C 491.846 1320.91 493.185 1318.68 493.708 1317.94 C 496.538 1313.94 498.764 1309.65 501.677 1305.67 C 503.903 1302.63 506.926 1299.74 508.463 1296.23 C 508.952 1295.11 508.583 1293.92 508.784 1292.75 C 509.344 1289.51 509.684 1289.13 511.012 1285.84 C 512.719 1281.61 515.251 1277.02 515.669 1272.38 C 516.524 1262.91 517.364 1250.34 516.022 1241 C 515.262 1235.72 513.37 1233.81 512.332 1228.55 C 511.998 1226.85 514.126 1228.23 513.256 1226.67 C 507.257 1216 519.889 1238.61 507.003 1214.86 C 506.262 1213.49 505.827 1211.8 505.143 1210.4 C 503.745 1207.55 501.422 1206.72 500.196 1203.79 C 499.99 1203.3 499.574 1201.36 499.137 1200.97 C 497.314 1199.36 494.596 1197.93 492.211 1197.22 C 492.177 1197.21 489.786 1196.37 489.761 1196.55 C 489.604 1197.69 488.579 1198.76 488.066 1199.8"></path>
  <g>
    <path fill="#000000" fill-rule="evenodd" d="M491.5 1324 L488 1323.38 L486.5 1323 L482 1318.5 L482 1317.5 L479 1314.5 L479.25 1312.25 L480.75 1311.75 L479 1308.5 L476 1304.5 L475 1302.5 L474.5 1302 L470.5 1306 L470 1305.5 L470 1302.5 L471.5 1301 L473.5 1301 L474 1300.5 L472 1298.5 L471.75 1297.25 L470 1297.5 L468.25 1298.25 L469 1307.5 L468.5 1308 L467 1306.5 L464.25 1285 L462.75 1281.13 L457.5 1281 L457 1280.5 L459.5 1278 L460.5 1279 L461.875 1278.75 L460.875 1267.25 L457.25 1266.75 L457.25 1264.25 L461 1264.75 L460.25 1254.25 L461.875 1253.75 L462 1246.5 L463 1245.5 L462.5 1245 L460.5 1245 L459 1243.5 L460.5 1242 L461.5 1243 L462.5 1243 L464 1241.5 L466.5 1230 L467.5 1227 L467.25 1220.25 L468.5 1220 L469 1219.5 L468 1218.5 L470 1216.5 L470.25 1215.25 L472.75 1214.75 L473.5 1213 L477.5 1206 L478 1204.5 L480 1202.5 L480.625 1200 L482.5 1196 L483 1194.5 L485.5 1192 L488.5 1192 L491.5 1195 L495.5 1196 L506 1206.5 L507.25 1209.75 L508.75 1210.25 L509.5 1212 L513.375 1221 L515.625 1229 L518.5 1237 L520.875 1253.75 L519.25 1253.75 L519 1251 L518 1251.5 L517.5 1272 L518.75 1279 L518.75 1281 L517.375 1287 L515.75 1291.75 L514.25 1292.25 L512.5 1297 L512.25 1299.75 L513.5 1300 L516 1302.5 L515.75 1303.75 L513.5 1303 L511.5 1302 L510.5 1301 L509 1302.5 L508.5 1304 L498 1317.5 L494.5 1321 L493.25 1321.25 L493 1322.5 L491.5 1324 M502.5 1223 L504 1221.5 L503.375 1219 L501.625 1215 L501 1211.5 L501.5 1211 L503 1212.5 L503.375 1214 L504.625 1217 L505 1218.5 L507.5 1221 L510.75 1220.75 L510.5 1219 L509.625 1217 L509 1214.5 L507 1212.5 L505 1208.5 L494.5 1198 L490.25 1196.75 L489.75 1195.25 L488 1194.5 L486.25 1194.25 L485.75 1195.75 L484.5 1196 L484 1197 L486.75 1197.25 L486.75 1198.75 L485.5 1199 L482 1202.5 L481.5 1204 L480.5 1206 L479.75 1208 L479 1212.5 L477 1214.5 L477 1215.5 L476 1216.5 L477.5 1218 L479 1218.38 L482 1219.63 L483.5 1220 L484.5 1219 L485.5 1220 L492 1221.5 L495.5 1222 L496.5 1223 L497.5 1222 L499 1222.38 L502.5 1223 M505.5 1230 L507 1228.5 L506 1224.5 L505.5 1224 L504.5 1225 L495 1224.38 L482 1221.38 L479 1220.38 L477 1219.5 L475.25 1219.25 L476 1221.5 L477.25 1223.75 L479 1224.5 L484 1227.38 L487 1228.38 L495.5 1230 L496.5 1229 L497.5 1230 L499.5 1230 L500.5 1229 L501.5 1230 L505.5 1230 M470 1222 L470 1221 L469 1221 L469 1222 L470 1222 M509.5 1229 L510.5 1228 L511.5 1228 L513 1226.5 L512.625 1225 L512 1221.5 L511 1221 L511 1221.5 L510.75 1222.75 L507.5 1223 L507 1223.5 L508 1224.5 L509 1228.5 L509.5 1229 M473.5 1227 L474 1226.5 L473 1223.5 L472 1223 L472 1225.5 L473.5 1227 M476 1225 L476 1224 L475 1224 L475 1225 L476 1225 M477 1226 L477 1225 L476 1225 L476 1226 L477 1226 M478 1227 L478 1226 L477 1226 L477 1227 L478 1227 M475 1228 L475 1227 L474 1227 L474 1228 L475 1228 M490.5 1233 L491.5 1232 L492.5 1232 L493 1231 L486 1230.25 L484 1229.5 L480 1227.5 L478.25 1227.25 L478 1228.5 L479.5 1230 L490.5 1233 M473 1293.63 L483 1289.63 L486 1288.75 L499.5 1288 L500.5 1289 L501.5 1288 L507 1289.5 L510 1290.63 L511.875 1290.75 L512.875 1280.25 L509 1279.38 L507.25 1278.75 L507.25 1277.25 L509 1277.25 L514 1277.88 L514 1257.5 L512 1255.5 L512 1248.5 L510.5 1247 L510 1247.5 L509.5 1249 L508.5 1251 L507.75 1252.75 L506.25 1252.75 L506.625 1250 L507.375 1248 L508 1245.5 L509.5 1244 L510.75 1243.75 L510.5 1240 L508.75 1233.25 L506 1233.25 L491 1236.63 L489 1236.63 L485.5 1236 L483.5 1234 L479.5 1233 L477.5 1231 L473.5 1230 L471.5 1228 L470 1229.5 L469.25 1236.75 L471.75 1237.25 L471.75 1239 L469.5 1252 L469 1263.5 L468 1264.5 L468.5 1265 L474.5 1264 L475 1264.5 L473.5 1266 L468 1267.25 L468 1278.88 L474 1279.75 L475.75 1280.25 L475.75 1281.75 L474 1281.75 L469.25 1281.13 L469.625 1285 L470.5 1287 L472 1289.5 L472.75 1291.75 L471.25 1292.25 L471.25 1293.75 L473 1293.63 M516 1253 L516.25 1237 L515.375 1234 L514.625 1232 L514 1229.5 L513.5 1229 L512 1230.5 L511.625 1232 L511.5 1236 L514.5 1249 L515 1252.5 L516 1253 M497 1232 L497 1231 L496 1231 L496 1232 L497 1232 M468.875 1242.75 L469 1237.5 L468 1237 L468 1237.5 L467.5 1240 L467.25 1242.75 L468.875 1242.75 M467 1254 L467 1253.5 L468 1245.5 L467 1245 L467 1245.5 L466 1253.5 L467 1254 M467 1264 L467 1256.5 L466 1256 L466 1263.5 L467 1264 M464 1274 L464 1268.5 L463 1268 L463 1273.5 L464 1274 M467 1282 L467 1281 L466 1281 L466 1282 L467 1282 M468 1287 L468 1285.5 L467 1285 L467 1286 L468 1287 M469 1289 L469 1288 L468 1288 L468 1289 L469 1289 M475.5 1299 L476.5 1298 L481 1296.75 L495 1295.13 L497 1295.25 L508 1297.63 L509.75 1297.75 L510.5 1295 L510.75 1292.13 L506 1291.38 L501.5 1290 L500.5 1291 L499.5 1290 L486 1290.75 L481.5 1292 L479.5 1294 L476 1294.63 L474.5 1295 L473 1296.5 L475.5 1299 M468.75 1294.75 L468.5 1293 L468 1291.5 L467 1291 L467.25 1294.75 L468.75 1294.75 M471 1292 L471 1291 L470 1291 L470 1292 L471 1292 M490.5 1323 L491 1322.5 L491 1320.5 L492.5 1319 L493.5 1319 L497 1315.5 L507 1302.5 L507.75 1300.25 L502 1298.38 L500 1298.13 L484.5 1299 L483.5 1298 L482.5 1299 L479 1299.63 L477.25 1300.25 L477.625 1303 L480 1306.5 L483 1310.5 L485 1313.5 L486 1315.5 L488 1317.5 L487.5 1318 L486.5 1318 L483.5 1315 L483 1315.5 L483 1316.5 L488 1321 L490.5 1323 M482.75 1314.75 L483 1313.5 L481.5 1312 L481 1312.5 L481.25 1314.75 L482.75 1314.75 "></path>
  </g>
</svg>
