<?xml version="1.0" encoding="utf-8"?>
<svg xmlns="http://www.w3.org/2000/svg" viewBox="330 67.5 216 378.375" width="216px" height="378.375px">
  <g>
    <g>
      <path fill="#000000" fill-rule="evenodd" d="M336 445.25 L331.25 445.875 L331 444.5 L330 443.5 L331 442.5 L331.5 439 L332.625 435 L334.375 431 L335 428.5 L337 426.5 L337.5 425 L342 418.5 L344.5 416 L348.5 415 L349.5 414 L353 417.5 L352.5 418 L346.5 417 L343 420.5 L338.5 427 L334.5 436 L333.5 439 L333 442.5 L332 443.5 L332.5 444 L335 443.375 L342 440.5 L344 439.5 L358.5 429 L360.5 428 L366 422.5 L368 419.5 L371 415.5 L372 413.5 L377 408.5 L376.375 406 L373.625 400 L373 397.5 L371 395.5 L369.75 389 L369.625 372 L370.75 365 L373.5 358 L377.5 351 L393 330.5 L395 327.5 L396 325.5 L398.5 323 L399.5 323 L401 324.5 L401 326.5 L400.5 327 L399.5 326 L398.5 326 L397 327.5 L396 329.5 L381 349.5 L377.5 355 L376.5 357 L376 358.5 L374 360.5 L372.625 366 L371.75 372 L372 392.5 L374 394.5 L374.625 397 L378 405.5 L379.5 407 L382.5 404 L383.5 404 L384 404.5 L382 406.5 L382 407.5 L379.5 410 L378.5 410 L373 415.5 L372 417.5 L369 421.5 L367 424.5 L363.5 428 L361 429.5 L345.5 441 L343 442.375 L336 445.25 "/>
    </g>
    <g>
      <path fill="#000000" fill-rule="evenodd" d="M468.5 288 L467.25 287.75 L467.5 286 L470.5 278 L471.375 274 L472 265.5 L473.5 264 L474 264.5 L473.375 274 L471.5 282 L470.375 285 L470 286.5 L468.5 288 "/>
    </g>
    <g>
      <path fill="#000000" fill-rule="evenodd" d="M357.5 418 L355.25 416.75 L353.5 412 L352.75 408 L353.625 386 L355.5 378 L371.5 338 L377.5 326 L379.5 323 L385.5 315 L387.5 312 L389.5 308 L390.25 306.25 L392.5 306 L393 306.5 L391 308.5 L390 312.5 L388 314.5 L388.25 315.75 L389.75 316.25 L389 318.5 L378.5 335 L363.625 364 L362.75 367 L362 375.5 L364 377.5 L363.75 378.75 L362.5 379 L360 376.5 L360 373 L359 373.5 L358.375 376 L356.625 381 L355.625 386 L354.75 408 L356 414.5 L358 416.5 L358 417.5 L357.5 418 M385.5 320 L387 318.5 L387 317.5 L386.5 317 L385 319 L385.5 320 M378.5 331 L380 329.5 L381 327.5 L384.5 322 L385 320.5 L384.5 320 L382 322.5 L379.5 327 L378.5 329.5 L378.5 331 M378 333 L378 331.5 L377 331 L377 332 L378 333 M377 335 L377 333.5 L376 333 L376 334 L377 335 M376 336 L376 335 L375 335 L375 336 L376 336 M375 338 L375 337 L374 337 L374 338 L375 338 M374 340 L374 339 L373 339 L373 340 L374 340 M373 342 L373 341 L372 341 L372 342 L373 342 "/>
    </g>
    <g>
      <path fill="#000000" fill-rule="evenodd" d="M404.5 195 L403.5 195 L403 194.5 L404.5 193 L405.5 193 L406 193.5 L404.5 195 "/>
    </g>
    <g>
      <path fill="#000000" fill-rule="evenodd" d="M379 217 L378.5 217 L365 230.5 L365 233.5 L361.5 237 L360.25 237.25 L359.5 239 L356.5 245 L355.75 246.75 L353.25 247.25 L348.5 261 L348 263.5 L349.5 265 L350.5 265 L352 266.5 L352 269.5 L351.5 270 L350 268.5 L350 267.5 L348.5 266 L346 268.5 L344 278.5 L343.5 279 L342.5 278 L341 279.5 L339.75 283 L339.125 288.75 L341 289.5 L343 289.5 L344.5 289 L346 287.5 L346.375 286 L349 279.5 L350.5 278 L352.75 278.25 L352.5 280 L350.5 284 L350 285.5 L348 287.5 L348.625 291 L349 292.5 L349.5 293 L350.5 292 L352.5 292 L354 290.5 L357 285.5 L358.5 284 L359.875 284.25 L361 295.5 L363.5 298 L367.5 297 L369 295.5 L370 292.5 L372 290.5 L372.5 287 L373.5 283 L373.25 276.25 L374.75 276.25 L375.5 280 L375.625 283 L373.375 291 L372.5 293 L372 294.5 L366.5 300 L362.5 300 L360 297.5 L358 289.5 L357.5 289 L354 292.5 L353.75 293.75 L350.5 294 L349.5 295 L348.5 294 L347.25 293.75 L346.75 291.25 L341 291.5 L338.25 290.75 L337.75 289 L337.625 283 L338.625 280 L344.375 267 L349.625 251 L352.5 245 L356 239.5 L357.25 237.25 L358.75 236.75 L360.5 234 L367 225.5 L369.5 223 L370.75 222.75 L371 221.5 L378.5 214 L380.5 214 L381 214.5 L380 216 L379.5 216 L379 216.5 L379 217 M343 277 L343 276 L342 276 L342 277 L343 277 "/>
    </g>
    <g>
      <path fill="#000000" fill-rule="evenodd" d="M458 70 L458 69 L457 69 L457 70 L458 70 M477.75 83.75 L478 82.5 L474.5 79 L471.5 78 L469.5 76 L467 75.375 L462 73.5 L458.5 73 L456.5 71 L455 70.75 L449 70.625 L446.5 71 L446 72 L446.5 72 L448 72.5 L450 73.5 L451.75 74.25 L451.75 75.75 L449.5 76 L447.5 74 L441 74.625 L438 75.5 L434.5 76 L434 77 L435.5 77 L436 77.5 L435 78.5 L435 79.5 L435.5 80 L436.5 79 L465 79.75 L469 80.625 L476 83.625 L477.75 83.75 M437.5 74 L438 73 L434.5 73 L434 74 L437.5 74 M433.5 75 L434 74 L432.5 74 L432 75 L433.5 75 M434 78 L434 77 L433 77 L433 78 L434 78 M429 81.625 L431.5 81 L433 79.5 L432.75 78.25 L430.5 79 L428.5 80 L427 81.5 L427.5 82 L429 81.625 M445.75 186.75 L446 184.5 L448 182.5 L449.625 86 L449.875 81 L438 81.875 L436.125 82.25 L436 86.5 L435.5 87 L434.5 86 L434 86.5 L434.25 180 L433.375 183 L433.25 184.75 L443 186.75 L445.75 186.75 M464 182.5 L466 181.75 L470.5 181 L472.5 179 L476 178.375 L477.5 178 L479 176.5 L481.375 172 L481.625 169 L476.375 149 L474.625 145 L474 141.5 L473 140.5 L473.5 140 L477.5 139 L479 140.5 L479.75 146 L484.375 158 L486.25 164.75 L487.5 165 L491 161.5 L491 159.5 L494 156.5 L495 153.5 L498 150.5 L504.25 132 L504.375 122 L502.25 113 L501.5 111 L500.5 109 L499.75 107.25 L498.5 107 L495 103.5 L495 102.5 L493.5 101 L493 101.5 L493 110.75 L491 110.75 L491 98.25 L489.25 97.75 L488 93.5 L486.5 92 L482 89.5 L480.5 89 L478.5 87 L476 86.5 L469 83.625 L466 82.75 L458 81.375 L453.125 81.125 L451.75 154 L452.75 159 L453.375 161 L453.75 163.75 L452.25 163.75 L451 160.5 L450 160 L451 186.75 L453.5 187 L455 185.5 L457.25 168.25 L458.75 168.25 L459 170.5 L460 171 L460.625 164 L461.25 161.25 L462.875 161.25 L462 182.75 L464 182.5 M427 83 L427 82 L426 82 L426 83 L427 83 M425.5 84 L426 83 L424.5 83 L424 84 L425.5 84 M429.5 107 L431 105.5 L431.625 93 L432.625 86 L432.75 83.25 L431.5 83 L430 84.5 L431 85.5 L430 86.5 L429 106.5 L429.5 107 M427.5 182 L428 181.5 L427 180.5 L428 176.5 L429.5 175 L430.5 176 L431 175.5 L428 85.5 L427.5 85 L426.5 86 L422.5 88 L416 94.5 L416 95.5 L412.5 99 L411.25 98.75 L411.5 97 L412 95.5 L411.5 95 L410 96.5 L405.5 103 L401.5 113 L399.75 120 L399.625 131 L400.5 137 L401.625 141 L401.75 142.75 L400.25 142.75 L399.625 141 L399 137.5 L398 137 L399.125 146.75 L400.5 147 L401.5 146 L402 146.5 L402 154.5 L404 156.5 L403.75 157.75 L402.5 158 L401.5 157 L401 157.5 L400 161.5 L408 169.5 L408 170.5 L411.5 174 L412.5 174 L413.5 175 L414 174.5 L412.75 146 L413 144.5 L414.5 143 L415.5 144 L416.5 144 L418 145.5 L422.125 179.75 L424.5 180 L426.5 182 L427.5 182 M416 92 L416 91 L415 91 L415 92 L416 92 M415 93 L415 92 L414 92 L414 93 L415 93 M414 94 L414 93 L413 93 L413 94 L414 94 M413 95 L413 94 L412 94 L412 95 L413 95 M398 117 L398 115.5 L397 115 L397 116 L398 117 M486.5 85 L487 84.5 L486 81.5 L481.5 77 L479.5 77 L476.5 74 L474.5 74 L472.5 72 L466 70.625 L459.5 70 L459 71 L459.5 71 L466 72.625 L468 73.375 L470.5 74 L472.5 76 L474 76.5 L476 77.5 L477.75 78.25 L478 79.5 L478.5 80 L480 79 L486.5 85 M481 83 L481 82 L480 82 L480 83 L481 83 M482 84 L482 83 L481 83 L481 84 L482 84 M479 85 L479 84 L478 84 L478 85 L479 85 M483 85 L483 84 L482 84 L482 85 L483 85 M484 86 L484 85 L483 85 L483 86 L484 86 M485.5 88 L486 87.5 L484.5 86 L484 86.5 L484.25 87.75 L485.5 88 M488 87 L488 86 L487 86 L487 87 L488 87 M492 89 L492 88 L491 88 L491 89 L492 89 M494 96 L494 94.5 L493 94 L493 95 L494 96 M395 160 L395 159 L394 159 L394 160 L395 160 M395 174 L395 172.5 L394 172 L394 173 L395 174 M394 178 L394 175.5 L393 175 L393 177.5 L394 178 M393 182 L393 179.5 L392 179 L392 181.5 L393 182 M395.5 234 L397 232.5 L400.25 227.25 L401.5 227 L403 225.5 L403.625 223 L405.5 218 L409.375 205 L414 178.5 L412.5 177 L411.5 177 L399.5 165 L399 165.5 L394.5 182 L390 214.5 L388 216.5 L387.5 220 L387.5 225 L389 230.5 L391.5 233 L395.5 234 M385.5 212 L387 210.5 L387 209.5 L389 207.5 L389.5 199 L392 183.5 L391 183 L391 183.5 L389.5 190 L388 198.5 L386 200.5 L385 211.5 L385.5 212 M398 153 L398 151.5 L397 151 L397 152 L398 153 M397 155 L397 154 L396 154 L396 155 L397 155 M399 159 L399 155.5 L398 155 L398 158.5 L399 159 M396.5 164 L398 162.5 L396.5 161 L396 161.5 L396 163.5 L396.5 164 M396 170 L396 169 L395 169 L395 170 L396 170 M433 180 L433 176.5 L432 176 L432 179.5 L433 180 M459 287.5 L460 286.5 L459.5 286 L458.5 286 L457.5 287 L456 285.5 L456.5 285 L457.5 285 L458.5 284 L459.5 285 L461 283.5 L461.5 280 L464.5 272 L466.25 266 L467 253.5 L468.5 252 L469.5 253 L471 251.5 L471 247.5 L470 246.5 L471 245.5 L470.5 245 L468 245.5 L465.25 245.75 L465 243.5 L463 241.5 L460.5 237 L459.625 235 L455.5 219 L455.25 215.25 L456.5 215 L457 214.5 L456 213.5 L454.625 204 L454 190.25 L452.5 190 L450.5 192 L447.5 192 L445.5 190 L433 187.5 L424 183.625 L421.125 183.25 L416.5 213 L407.5 236 L407 237.5 L403 241.5 L401.75 249 L401 302.5 L400.5 303 L399.5 302 L399 302.5 L399.5 304 L401.5 308 L402 309.5 L403.5 311 L404 310.5 L404.5 306 L405.625 302 L408.625 295 L416.5 280 L417 278.5 L419.5 276 L421.75 275.75 L422 274.5 L424.5 272 L427.5 271 L429 272.5 L428.75 275.75 L427.5 276 L427 276.5 L428 277.5 L428.5 279 L429.375 281 L430.25 283.75 L431.75 284.25 L432 287.5 L432.5 288 L433.5 287 L436 287.25 L436.625 305 L438 315.5 L439 316 L439 315.5 L439.5 314 L443.5 308 L449 297.5 L451.5 295 L452 295.5 L452 297.5 L450 299.5 L449.5 301 L446.5 306 L446 307.5 L446.5 308 L449 305.5 L450 303.5 L455 296.5 L459 287.5 M460 185 L460 179.5 L459 179 L459 184.5 L460 185 M478.75 236.75 L480.5 231 L482.5 219 L482.875 182.25 L481 182.375 L475 184.375 L471.5 185 L468.5 188 L463.25 189.25 L463.375 192 L467.5 213 L474.5 234 L475 236.5 L475.5 237 L476.5 236 L477.5 237 L478.75 236.75 M537.5 140 L540 137.5 L539.5 137 L536.5 138 L535 139.5 L535.5 140 L537.5 140 M528 142 L528 139.5 L527 139 L527 141.5 L528 142 M385 236 L385 213.5 L384 213 L382.25 228 L382.375 230 L383.625 234.5 L385 236 M380 216 L381.75 215.75 L386.625 186 L390.5 170 L392.25 165 L393.625 159 L393.5 156 L391.625 151 L390.625 147 L390 140.5 L390.5 140 L392 141.5 L392.5 145 L394.25 150.75 L395.75 150.75 L396.25 149 L397 117 L396 117.5 L395.5 120 L392.5 128 L391 134.5 L390.5 135 L389 133.5 L390.625 127 L396.625 112 L398 109.5 L400.5 106 L402 103.5 L405 100.5 L403 98.5 L402 95.5 L401 94.5 L402.5 93 L404 94.5 L405 98.5 L405.5 99 L407 97.5 L407 95.5 L405 93.5 L404.5 92 L404.25 90.25 L405.75 90.25 L408 94.5 L408.5 95 L410.5 93 L411.75 92.75 L412.25 91.25 L425 80.5 L428.5 78 L430.5 77 L432 75.5 L431.5 75 L427.5 76 L426.5 77 L425.5 76 L416 77.75 L414 78.5 L412 79.5 L410.25 79.75 L410.25 76.25 L420 73.625 L432.5 72 L434.5 70 L437.5 70 L438.5 69 L439.5 70 L451 67.625 L458 67.5 L470 69.5 L475 71.5 L482 75.5 L483.5 76 L488 80.5 L488.5 82 L489.5 84 L490 85.5 L490 86 L491 85.5 L490.25 81 L490.25 79.25 L491.5 79 L493 80.5 L493.625 85 L495.5 92 L496 97.5 L497 98.5 L496 99.5 L503.5 109 L506.375 114 L507.375 117 L508.75 123 L509.375 125 L510.25 129 L510.25 140 L508.5 146 L505.375 155 L495 170.5 L494 172.5 L491.5 175 L490.5 175 L489 176.5 L490 177.5 L492 208.5 L492.5 209 L494 207.5 L495 205.5 L499.5 199 L511.5 180 L513.5 176 L513.5 172 L514.375 170 L515.5 166 L515.625 163 L514.625 158 L514.5 147 L515.75 139 L517 134.5 L521.5 130 L525 130.625 L526.75 131.25 L527 132.5 L528.5 134 L530.5 132 L535 129.625 L538 128.5 L541.5 128 L544 130.5 L544 135.5 L546 137.5 L545.5 141 L543.75 145.75 L542.5 146 L541 147.5 L542 152.5 L540 154.5 L539.75 155.75 L538.25 155.75 L538.5 154 L539.5 152 L539.5 150 L539 148.5 L537.5 147 L536.25 146.75 L536.25 145.125 L541.5 145 L543 143.5 L543.5 141 L543.75 137.25 L542.25 137.25 L542 138.5 L539.5 141 L538 141.375 L534.5 142 L533 140.5 L534.25 137.25 L535.5 137 L537.5 135 L541.75 134.875 L542 131.5 L540.5 130 L538 130.625 L534 132.5 L532.5 133 L529 136.5 L530 137.5 L530 142.5 L528.5 144 L526.5 144 L525 142.5 L526 136.5 L527 135.5 L526 134.5 L525.75 133.25 L521.5 132 L520 133.5 L520 134.5 L518 136.5 L516.5 147 L516.75 158 L517.5 162 L517.5 166 L516.375 170 L515.5 172 L515.5 176 L508 189.5 L496 207.5 L495 209.5 L493 211.5 L493 213.5 L495.5 216 L511 200.5 L512 198.5 L516.5 192 L523.5 180 L526.625 172 L527 170.5 L533 164.5 L534.25 160.25 L535.75 160.25 L535 165.5 L529 171.5 L528.5 173 L525.5 180 L518 193.5 L512.5 201 L491 224.5 L492 225.5 L490 227.5 L489.375 233 L488.375 236 L487.5 238 L487 239.5 L483.5 243 L482 243.5 L480 244.5 L478.5 245 L478 245.5 L479 246.5 L480 248.5 L482.5 252 L483.75 254.75 L482.5 255 L480 252.5 L477 247.5 L477 247 L476 247.5 L476 248.5 L475 249.5 L475.5 250 L476.75 250.25 L476.625 252 L475.5 256 L475.625 260 L476 261.5 L475.5 262 L474.5 261 L473.5 262 L472.5 262 L470 264.5 L469.5 271 L467 281.5 L465 283.5 L464.5 285 L461.5 292 L460.5 294 L460.5 298 L460 299.5 L458.5 301 L457.25 301.25 L456.5 305 L455.375 308 L455 309.5 L453.5 311 L453 310.5 L453 309 L452 309.5 L451.5 311 L449 315.5 L448 316.5 L451 319.5 L450.625 321 L451.125 330.75 L453.5 331 L456.5 328 L458 327.5 L463 324.5 L465 323.625 L467.5 323 L469.5 321 L471 320.625 L477.75 320.75 L478 319.5 L478.5 319 L479.5 320 L480.75 319.75 L481.25 317.25 L483 317.5 L484.75 318.25 L485 319.5 L484 320.5 L485.5 322 L488.5 321 L489 321.5 L486.5 324 L485 323.5 L483.25 323.25 L480.5 334 L478.5 347 L476.5 354 L475.375 357 L474 359.5 L472 362.5 L471 364.5 L461.5 374 L460.5 374 L457.5 377 L455 377.625 L453 378.375 L449 379.5 L443.5 380 L442.5 379 L441.5 380 L433 380.5 L427.5 379 L422 373.5 L422 358.5 L423.5 357 L424 357.5 L424 372.5 L429.5 378 L433 378.5 L437 378.5 L441.75 377.875 L442.25 376.25 L443.5 376 L444.5 377 L445.5 376 L447 375.5 L448.75 375.25 L449 376.5 L449.5 377 L450.5 376 L454 375.375 L456.5 374 L460 371.5 L462.5 370 L467 365.5 L468.5 363 L471 359.5 L472.5 357 L474.5 352 L480 324.5 L478.5 323 L471.5 322 L469.5 324 L465.5 325 L463.5 327 L462 327.5 L450.5 335 L441 344.5 L442 345.5 L442.625 348 L445.375 355 L446 357.5 L447 358.5 L446.5 359 L445.5 359 L444 357.5 L443.625 356 L441.625 351 L441 348.5 L439.5 347 L438 348.5 L437.5 350 L434.5 355 L434 356.5 L432 358.5 L433 359.5 L431.5 361 L430 359.5 L430 357.5 L433 354.5 L433.5 353 L435.5 349 L437.5 346 L438.5 343 L433.625 332 L433 329.5 L433.5 329 L436 331.5 L436.375 333 L438.375 338 L439 340.5 L440.5 342 L448.5 334 L449.75 333.75 L449.625 331 L448.5 325 L448 320.5 L447.5 320 L446.5 321 L445.25 321.25 L443 325.5 L441.5 327 L439 328.5 L436.125 329.75 L436 325.5 L435.5 325 L434.5 326 L431.5 326 L429.5 328 L416 327.125 L414 326.625 L411 325.5 L408.125 325.25 L407.875 329.75 L406.125 330.25 L406.75 337 L408 341.5 L407.5 342 L405 339.5 L403 320.5 L399 316.5 L398.5 314 L397.5 311 L397.25 307.25 L398.5 307 L399 306.5 L398 305.5 L397.5 304 L396.625 302 L396 298.5 L395 297.5 L396.5 296 L398 297.5 L398 301 L399 300.5 L397.5 255 L399.125 244.25 L400.5 244 L401 244 L400.5 243 L398 243.625 L396 244.375 L392.5 245 L390.5 243 L389 243.5 L387 244.375 L384 244.375 L382.5 244 L380 241.5 L379.625 240 L378.5 237 L377.625 233 L377 225 L376 225.5 L369.5 276 L369.75 283 L370 284.5 L368.5 286 L368 285.5 L367.625 283 L374 227 L373 227.5 L372.625 229 L360.75 275.75 L359.25 275.75 L359.5 272 L366.5 241 L370.625 229 L371.5 227 L372 225.5 L376.5 221 L377 221.5 L377 223 L378 222.5 L379 217 L379.5 217 L380 216.5 L380 216 M387.5 242 L388 241 L386.5 241 L383 237.5 L382.5 236 L381.625 234 L380.625 230 L380 223.5 L379 223 L379 223.5 L381 239.5 L383.5 242 L387.5 242 M390.5 240 L394 236.5 L393.75 235.25 L390.5 235 L388 232.5 L388 231.5 L387 231 L387 231.5 L388 238.5 L389.5 240 L390.5 240 M395 241 L395 240 L394 240 L394 241 L395 241 M393.5 242 L394 241 L392.5 241 L392 242 L393.5 242 M462 213 L462 207.5 L464 205.5 L460.75 189.25 L459.5 189 L458 190.5 L458.625 200 L461 212.5 L462 213 M459 212 L459 210.5 L458 210 L458 211 L459 212 M401 232 L401 231 L400 231 L400 232 L401 232 M396.5 240 L399 237.5 L400 232.5 L399 232 L399 233.5 L396 236.5 L396 238.5 L395 239.5 L395.5 240 L396.5 240 M471.5 242 L472.5 241 L473.75 240.75 L473.375 237 L465.5 213 L465 208.5 L464 208 L465 225.5 L464 226.5 L465 227.5 L465 235.5 L465.5 236 L466.5 235 L468 236.5 L468.25 237.75 L469.5 238 L471 239.5 L471 241.5 L471.5 242 M460 216 L460 213.5 L459 213 L459 215.5 L460 216 M461 218 L461 216.5 L460 216 L460 217 L461 218 M492.5 219 L494 217.5 L492.5 216 L492 216.5 L492 218.5 L492.5 219 M462 220 L462 219 L461 219 L461 220 L462 220 M460 221 L460 220 L459 220 L459 221 L460 221 M463 234 L462 223.5 L460.5 222 L460 222.5 L460.5 228 L461.625 232.5 L463 234 M468.5 242 L469 241.5 L468.75 240.25 L467.5 240 L467 240.5 L468.5 242 M475 243 L475 242 L474 242 L474 243 L475 243 M478 245 L478 244 L477 244 L477 245 L478 245 M427 275 L427 273.5 L426 273 L426 274 L427 275 M418.75 282.75 L420 278.5 L419 278 L419 278.5 L418 281.5 L417 282.5 L417.5 283 L418.75 282.75 M426.5 288 L427 287.5 L426.875 282.25 L423.5 281 L422.5 280 L421 281.5 L421 283.5 L426.5 288 M418 286 L418 285 L417 285 L417 286 L418 286 M417 288 L417 286.5 L416 286 L416 287 L417 288 M422 325.625 L434.75 323.875 L434.75 321 L432.5 306 L430.5 298 L428.5 293 L428 291.5 L426.5 290 L421 286.5 L419.25 286.25 L413.5 302 L409.5 317 L409.125 322.75 L414 324.5 L418 325.5 L422 325.625 M409 312 L409 311.5 L409.5 309 L415.375 291 L416 288.5 L415.5 288 L414 289.5 L411.5 296 L409.5 303 L408 311.5 L409 312 M431 292 L431 290.5 L430 290 L430 291 L431 292 M434 293 L434 290.5 L433 290 L433 292.5 L434 293 M432 295 L432 294 L431 294 L431 295 L432 295 M407 308 L407 307 L406 307 L406 308 L407 308 M446 309 L446 308 L445 308 L445 309 L446 309 M402.5 317 L403 316.5 L402.5 315 L401.625 313 L401 310.5 L399.5 309 L399 309.5 L400.625 314.5 L402.5 317 M445 311 L445 310 L444 310 L444 311 L445 311 M406 314 L406 311.5 L405 311 L405 313.5 L406 314 M449 312 L449 311 L448 311 L448 312 L449 312 M440 321.5 L442 320.5 L443.5 320 L446 317.5 L446.5 316 L447.5 314 L447.75 312.25 L445 313.5 L442.5 315 L441.5 314 L441 314.5 L440.625 316 L439.375 319 L439 320.5 L438 321.5 L438.5 322 L440 321.5 M408 317 L408 314.5 L407 314 L407 316.5 L408 317 M438.5 327 L441 324.5 L441 323.5 L440.5 323 L439.5 324 L438.25 324.25 L438 326.5 L438.5 327 M482.75 322.75 L483 321.5 L482.5 321 L481 322.5 L481.5 323 L482.75 322.75 "/>
    </g>
  </g>
</svg>
