<?xml version="1.0" encoding="utf-8"?>
<svg xmlns="http://www.w3.org/2000/svg" viewBox="49.5 596.5 176.875 356.5" width="176.875px" height="356.5px">
  <g transform="matrix(1, 0, 0, 1, -1.1368683772161603e-13, 0)">
    <path fill="#000000" fill-rule="evenodd" d="M184 952.25 L177.5 953 L176 951.5 L175.5 950 L157.5 890 L157.125 885.25 L158.875 885.25 L160.5 895 L164.5 909 L165.625 912 L166 913.5 L167.5 915 L169.5 915 L170 915.5 L169 916.5 L169.625 925 L172.5 937 L174.5 943 L175 945.5 L177 947.5 L177 949.5 L178.5 951 L186.5 950 L187 950.5 L185.5 952 L184 952.25 "/>
  </g>
  <g transform="matrix(1, 0, 0, 1, -1.1368683772161603e-13, 0)">
    <path fill="#000000" fill-rule="evenodd" d="M181.75 924.75 L178.5 924 L177 922.5 L177 921.5 L174 918.5 L173.375 916 L157.5 877 L152.5 867 L152 865.5 L150.5 864 L149.5 864 L148 862.5 L148 860.5 L146.5 859 L143.25 858.75 L143.25 857.125 L147.5 857 L152 861.5 L152.5 863 L159.375 876 L175.5 916 L178 920.5 L180.5 923 L181.75 923.25 L181.75 924.75 "/>
  </g>
  <g transform="matrix(1, 0, 0, 1, -1.1368683772161603e-13, 0)">
    <path fill="#000000" fill-rule="evenodd" d="M203.75 777.75 L202.25 777.75 L202.25 776.25 L203.75 776.25 L203.75 777.75 "/>
  </g>
  <g transform="matrix(1, 0, 0, 1, -1.1368683772161603e-13, 0)">
    <path fill="#000000" fill-rule="evenodd" d="M112.5 834 L111 832.5 L109.75 828 L109 823.5 L109.5 823 L111 824.5 L111.5 827 L112.625 830 L113 831.5 L114 832.5 L112.5 834 "/>
  </g>
  <g transform="matrix(1, 0, 0, 1, -1.1368683772161603e-13, 0)">
    <path fill="#000000" fill-rule="evenodd" d="M96 904.5 L90.5 904 L84 897.5 L84 896.5 L82 894.5 L80.75 890 L79.625 882 L80.5 851 L81.5 845 L81 831.5 L82.5 830 L83.75 830.25 L84.25 831.75 L87.75 832.25 L87.75 833.75 L85.125 834.25 L85 838.5 L87 840.5 L88 842.5 L97.5 857 L98.25 858.75 L99.75 858.75 L100.5 857 L101.5 855 L102 853.5 L104.5 851 L105.75 851.25 L104.5 854 L102.625 857 L101.375 860 L101 861.5 L100 862.5 L101 863.5 L103.25 874 L103.25 887 L102.75 889.75 L101.25 889.75 L101.25 874 L99.75 867.25 L98.25 867.25 L96.75 873.75 L95.25 873.75 L95.5 870 L97.625 864 L97.5 862 L94.5 856 L90 849.5 L86 842.5 L84.5 841 L84 841.5 L81.625 860 L81.75 882 L82.625 889 L83.625 892 L84.5 894 L88.25 899.75 L93 902.375 L96 902.375 L97.5 902 L103 896.5 L104.25 893.25 L105.75 893.25 L105.5 895 L104.5 897 L104 898.5 L98.5 904 L96 904.5 M84 834 L84 832.5 L83 832 L83 833 L84 834 "/>
  </g>
  <g transform="matrix(1, 0, 0, 1, -1.1368683772161603e-13, 0)">
    <path fill="#000000" fill-rule="evenodd" d="M118.75 722.75 L117.25 722.75 L117.25 721.25 L118.75 721.25 L118.75 722.75 "/>
  </g>
  <g transform="matrix(1, 0, 0, 1, -1.1368683772161603e-13, 0)">
    <path fill="#000000" fill-rule="evenodd" d="M219 656 L218.25 673 L215.375 683 L214.5 685 L211.5 690 L211 691.5 L209.5 693 L208.25 692.75 L208 691 L208.5 691 L209 690.5 L209 689 L211 687.5 L211.5 686 L215.5 676 L216.25 672 L216 654.5 L216.5 654 L218 655 L218 655.5 L218.5 656 L219 656 "/>
  </g>
  <g transform="matrix(1, 0, 0, 1, -1.1368683772161603e-13, 0)">
    <path fill="#000000" fill-rule="evenodd" d="M101 703 L100 702 L100 701 L101 701.5 L101 703 "/>
  </g>
  <g transform="matrix(1, 0, 0, 1, -1.1368683772161603e-13, 0)">
    <path fill="#000000" fill-rule="evenodd" d="M90.75 696.75 L89.25 696.75 L88.5 695 L83.5 682 L82.5 678 L82 674.5 L83.5 673 L84.75 673.25 L84.25 677 L86.5 685 L90.625 695 L90.75 696.75 "/>
  </g>
  <g transform="matrix(1, 0, 0, 1, -1.1368683772161603e-13, 0)">
    <path fill="#000000" fill-rule="evenodd" d="M146.5 604 L147 603 L145.5 603 L145 604 L146.5 604 M146.75 608.75 L147 606.5 L146.5 606 L145.5 607 L141.5 609 L140 610.5 L140.5 611 L142 610.625 L145 609.375 L146.75 608.75 M140 612 L140 611 L139 611 L139 612 L140 612 M138.5 613 L139 612 L137.5 612 L137 613 L138.5 613 M140.5 710 L141 709.5 L140 708.5 L141 707.5 L142 703.5 L142.5 703 L143.5 704 L144 703.5 L145.625 616 L145.75 612.25 L144 612.5 L140 614.5 L133.5 619 L130 622.5 L126.75 627.75 L124.25 627.75 L124 626.5 L123.5 626 L120 629.5 L118.5 632 L115.5 636 L114 638.5 L112 640.5 L111.375 643 L106.625 655 L105.75 658 L105.875 673 L108 680.5 L109 681 L109 680.5 L110.25 676.25 L114.5 675 L116 676.5 L114.375 685 L114 688.5 L113 689.5 L121 697.5 L121 698.5 L124.5 702 L125.5 702 L126.5 703 L127 702.5 L126.375 687 L125.375 679 L125.75 674 L126.25 672.25 L129 672.625 L130.875 673.25 L134.5 698 L135 707.75 L137 708.5 L139 709.5 L140.5 710 M128 622 L128 621 L127 621 L127 622 L128 622 M158.75 714.75 L159 712.5 L161 710.5 L163 610 L151 610.875 L149.25 611.25 L149 613.5 L150 614.5 L149.5 615 L148.5 615 L147 616.5 L146 712.5 L147.5 714 L158.75 714.75 M125 626 L125 624.5 L124 624 L124 625 L125 626 M119 629 L119 628 L118 628 L118 629 L119 629 M190.75 612.75 L191 611.5 L187.5 608 L184.5 607 L182.5 605 L180 604.375 L175 602.5 L171.5 602 L169.5 600 L168 599.75 L162 599.625 L159.5 600 L159 601 L159.5 601 L161 601.5 L163 602.5 L164.75 603.25 L164.75 604.75 L162.5 605 L160.5 603 L154 603.625 L148.5 605 L148 605.5 L149 606.5 L149.25 607.875 L178 608.75 L182 609.625 L189 612.625 L190.75 612.75 M199.5 615 L200 614.5 L199.5 613 L198.5 611 L198 609.5 L194.5 606 L192.5 606 L189.5 603 L187 602.375 L183 600.75 L178 599.5 L172.5 599 L172 600 L172.5 600 L179 601.625 L183 603.5 L184.5 604 L186.5 606 L188.5 606 L190.5 608 L193.5 608 L199.5 615 M150.5 603 L151 602 L147.5 602 L147 603 L150.5 603 M194 612 L194 611 L193 611 L193 612 L194 612 M192 614 L192 613 L191 613 L191 614 L192 614 M196 614 L196 613 L195 613 L195 614 L196 614 M197 615 L197 614 L196 614 L196 615 L197 615 M198 617 L198 615.5 L197 615 L197 616 L198 617 M207 626 L207 625 L206 625 L206 626 L207 626 M57 660.5 L58.5 660 L60 658.5 L60 657.5 L61 656.5 L60 655.5 L60 654.5 L58.5 653 L54.25 653.125 L53.625 655 L53 658.5 L55.5 661 L57 660.5 M63 676 L63 675 L62 675 L62 676 L63 676 M70 687 L70 685.5 L69 685 L69 686 L70 687 M73 686 L73 685 L72 685 L72 686 L73 686 M73.5 697 L74 696.5 L73 689.5 L70.5 687 L70 687.5 L70.5 691 L71.625 694.5 L73.5 697 M77 699 L77 697.5 L76 697 L76 698 L77 699 M88.75 720.75 L88 718.5 L81.5 707 L80.625 705 L80 702.5 L78 700.5 L78 699.5 L77 699 L77 703.5 L79 705.5 L79 707.5 L78 708.5 L79 709.5 L79.625 712 L80.5 714 L81 715.5 L82.5 717 L83.5 717 L85 718.5 L84 719.5 L85.5 721 L88.75 720.75 M74 702 L74 701 L73 701 L73 702 L74 702 M75 705 L75 703.5 L74 703 L74 704 L75 705 M73 707 L73 705.5 L72 705 L72 706 L73 707 M76 707 L76 705.5 L75 705 L75 706 L76 707 M77 710 L77 709 L76 709 L76 710 L77 710 M112 680 L112 678.5 L111 678 L111 679 L112 680 M111 682 L111 681 L110 681 L110 682 L111 682 M110 684 L110 682.5 L109 682 L109 683 L110 684 M113 685 L113 682.5 L112 682 L112 684.5 L113 685 M112 687 L112 685.5 L111 685 L111 686 L112 687 M109 695 L109 694.5 L109.25 693.25 L110.75 692.75 L110.75 690.25 L109.25 690.25 L108 694.5 L109 695 M103 772.5 L104.5 772 L107 769.5 L107 768.5 L106 767.5 L108 765.5 L108.5 764 L109.5 762 L110 760.5 L109 759.5 L110 758.5 L110.375 757 L112.5 752 L113 750.5 L115 748.5 L115.5 746 L122.625 728 L123 726.5 L125 724.5 L126.875 706.25 L125.5 706 L117 697.5 L116.75 696.25 L115.5 696 L112.5 693 L112 693.5 L101.75 738.75 L100.25 738.75 L100.375 736 L101 731.5 L100 731 L100 731.5 L99.5 735 L98.5 738 L98 740.5 L96.5 742 L96 741.5 L96 740.5 L95 740 L95.5 745 L96.5 749 L99.5 756 L100 757.5 L102.5 760 L103.5 760 L106 762.5 L106 763.5 L105.5 764 L104.5 763 L102.5 763 L100 760.5 L99.75 759.25 L98.25 758.75 L96.625 755 L94.5 749 L94 746.5 L93 746 L94 761.5 L96 763.5 L96 764.5 L97 765 L97 764.5 L97.25 763.25 L98.75 763.25 L99 766.5 L100.5 768 L101.75 768.25 L101.75 769.75 L100.25 770.25 L100 771.5 L101.5 773 L103 772.5 M108 696 L108 695 L107 695 L107 696 L108 696 M105 697 L105 696 L104 696 L104 697 L105 697 M109 700 L109 699 L108 699 L108 700 L109 700 M108 704 L108 701.5 L107 701 L107 703.5 L108 704 M107 708 L107 704.5 L106 704 L106 707.5 L107 708 M106 712 L106 709.5 L105 709 L105 711.5 L106 712 M210 680 L210 677.5 L209 677 L209 679.5 L210 680 M192 679 L192 678 L191 678 L191 679 L192 679 M209 683 L209 680.5 L208 680 L208 682.5 L209 683 M194 697 L193.5 690 L191 681.5 L190 681 L190.5 686 L193 696.5 L194 697 M201 702 L201 701.5 L207.375 686 L208 683.5 L207 683 L207 683.5 L206.5 685 L201.5 695 L200.75 697 L200 701.5 L201 702 M197 700 L197 695.5 L196 695 L196 699.5 L197 700 M198 704 L198 702.5 L197 702 L197 703 L198 704 M196.5 708 L197.5 707 L198.75 706.75 L198.75 705.25 L197.5 705 L196.5 704 L196 704.5 L196 707.5 L196.5 708 M173 713 L173 707.5 L172 707 L172 712.5 L173 713 M191.75 764.75 L193.5 758 L195.5 745 L196.5 727 L197 724.5 L196.5 724 L195.5 725 L195 724.5 L194 710.5 L193.5 710 L190.5 713 L189 713.25 L184 714.75 L180 716.375 L176.25 717.25 L176.5 721 L180.5 741 L187.5 762 L188 763.5 L189.5 765 L191.75 764.75 M218 655 L217.5 652 L214.375 640 L207 630.5 L206 630 L206 635.5 L205 636.5 L206 637.5 L205.75 639.75 L204.25 639.75 L204 637.5 L203 636.5 L204 635.5 L204 627.25 L202.25 626.75 L202 624.5 L196.5 619 L193.5 618 L191.5 616 L189 615.5 L182 612.625 L179 611.625 L166.125 610.125 L164 714.75 L166.5 715 L168 713.5 L168 685.5 L169.5 684 L171 685.5 L170 686.5 L169 699.5 L170 700 L170.25 696.25 L171.75 696.25 L172 698.5 L173 699 L173.125 694.25 L174.75 694.25 L175 695.5 L176 696.5 L175 697.5 L175 710.75 L178 710.375 L180 709.625 L183.5 709 L185.5 707 L191.5 706 L192.5 707 L193 706.5 L192.5 701 L188.5 686 L188.5 677 L187.375 674 L187.25 672.25 L189.75 672.25 L190 675.5 L190.5 676 L191.5 675 L192.5 675 L194 676.5 L194.5 681 L195.75 687 L197.5 692 L198.25 694.75 L199.75 694.75 L200.5 693 L201.5 691 L206.5 679 L207.25 675 L208 662.5 L209.5 661 L211 662.5 L210 663.5 L210 676.5 L211 677 L213 658.25 L211.5 658 L211 657.5 L212.5 656 L215 656.25 L214.375 668 L213.5 673 L209.5 686 L209 689 L208.5 689 L208 689.5 L208 691 L207.25 691.25 L203.375 701 L203 702.5 L201 704.5 L203.375 715 L205 740.5 L207 742.5 L207 743.5 L209.5 746 L214 748.5 L215.75 749.25 L215.75 750.75 L214.5 751 L214 751.5 L215 752.5 L215 754.5 L217 756.5 L217 757.5 L222.5 763 L223.75 763.25 L226.375 772 L226.375 781 L225.375 785 L221.5 797 L220.5 799 L220 800.5 L218.5 802 L217.5 802 L216 803.5 L213 808.5 L210 811.5 L212 830.5 L213 831.5 L212.5 832 L211.5 832 L210 830.5 L208 812.5 L207.5 812 L205 814.5 L205 818.5 L207 820.5 L207.5 830 L205.75 837.75 L204.125 837.75 L203 816.5 L202.5 816 L197.5 821 L194.5 822 L192 824.5 L192.5 825 L193.75 825.25 L193.5 827 L193.5 829 L194 830.5 L195.5 832 L196 831.5 L196.125 827.25 L197.875 827.25 L198 831.5 L201 834.5 L201.5 836 L203.5 840 L204 841.5 L207 844.5 L207 846.5 L206.5 847 L203 843.5 L202.5 842 L201.5 840 L201 838.5 L199.5 837 L198.5 838 L197.5 838 L194 834.5 L193.5 833 L190.5 827 L189.75 825.25 L188 825.375 L184 826.5 L180.5 827 L179.5 828 L178.5 827 L177.5 828 L174.5 828 L173.5 827 L171.5 829 L170.5 828 L170 828.5 L169.5 832 L167.75 837.75 L166.25 837.75 L166 836.5 L166 836 L165 836.5 L164.5 838 L162 842.5 L161.25 844.75 L162.75 845.25 L162.75 846.75 L158.25 848.25 L157.5 850 L157.25 851.75 L158.75 852.25 L160 854.5 L167 864.5 L178.5 884 L181 887.5 L182.375 890 L185.375 897 L187.5 905 L189 931 L190 930.5 L190.375 929 L192.5 924 L201.5 906 L202 904.5 L203.5 903 L205 902.5 L206.75 902.25 L208.375 907 L209.25 911 L209.25 926 L208.25 931 L205.375 939 L201.5 947 L201 948.5 L199.5 950 L195 949.25 L190.5 948 L190 947.5 L191.5 946 L193 946.375 L196 947.5 L198.5 948 L200 946.5 L200.5 945 L204.5 936 L206.375 930 L207.25 925 L207 907.5 L204.5 905 L203 906.5 L202.5 908 L191.375 932 L191 933.5 L189 935.5 L189 945.75 L187.125 945.75 L186.125 938 L185.5 915 L184.25 907 L183 902.5 L180.5 900 L179.25 899.75 L179.25 898.25 L181 898.5 L182.5 899 L183.5 900 L184 899.5 L183.625 898 L181.5 893 L179 888.5 L170.5 875 L165.5 866 L159 856.5 L158 854.5 L156.5 853 L154.5 854 L151.5 856 L149.25 856.75 L148.75 853.125 L144.25 853.125 L143.75 855 L129.25 855 L129.25 852.25 L136 852.625 L147.75 850.75 L147.625 847 L146.25 838 L146.375 828 L144 818.5 L144 818 L143 818.5 L142.75 819.75 L141.25 819.75 L140.75 818 L140 810.5 L137.5 808 L135.5 808 L134 809.5 L133.375 812 L127.625 827 L124 839.5 L122.5 841 L122 840.5 L122 837 L121 837.5 L118.375 847 L118.25 848.875 L125.5 850 L126 850.5 L124.5 852 L123 851.625 L119.5 851 L119 851 L119.5 852 L125 855.5 L127 856.5 L128.5 857 L130 858.5 L129.5 859 L126 858.375 L121.5 856 L118.5 853 L116.25 853.25 L116 854.5 L114 856.5 L115 861.5 L114.5 862 L112.5 860 L112 860.5 L111.625 862 L110.5 865 L108.75 870.75 L107.25 870.75 L107.375 869 L110.5 859 L110.5 852 L111.5 848 L111.375 845 L109.625 841 L109 837.5 L108 836.5 L109 835.5 L108 834.5 L107 830.5 L107 830 L106 830.5 L105.75 832.75 L104.25 832.75 L104.625 829 L105.25 827.25 L107.75 827.25 L108.625 830 L111.5 837 L112 839.5 L113.5 841 L114 840.5 L114.375 839 L116.625 833 L117 831.5 L118 830.5 L117 829.5 L118.5 828 L119.75 828.25 L120 829.5 L120 830 L121 829.5 L121.5 826 L123 819.5 L125 817.5 L125.5 816 L130.5 806 L131.25 804.25 L134.75 803.75 L135 802.5 L138.5 799 L141.875 799.25 L141.25 804 L141.375 806 L143.25 810.75 L144.75 811.25 L145 814.5 L145.5 815 L146.5 814 L149 814.25 L149.625 831 L151 843 L152 842.5 L152.5 841 L156.5 835 L161.5 826 L162 824.5 L163.5 823 L164.75 823.25 L164 825.5 L157 838.5 L157.5 839 L164 832.5 L168.375 826 L171.625 816 L171.75 814.25 L170.25 813.75 L170.25 812.25 L174.75 810.75 L179.25 794.25 L180.75 793.75 L182.625 783 L183.375 780 L183.25 775 L182.75 773.25 L178.25 773.75 L177.375 771 L173.5 765 L172.625 763 L168.5 747 L168.25 743.25 L169.5 743 L170 742.5 L169 741.5 L167.625 732 L167 718.25 L165.5 718 L163.5 720 L160.25 719.75 L159.75 718.25 L148 716.25 L139 712.625 L136.5 712 L135.5 711 L135 711.5 L131 736.5 L128.5 739 L124.25 738.875 L124 737.5 L124 737 L123 737.5 L122.5 740 L117.5 758 L113.375 768 L112.875 770 L113.5 795 L114.625 803 L115 828.5 L113.5 830 L113 829.5 L111 788 L110 788.5 L109 804.75 L107 804.75 L107.5 795 L110 774.5 L109.5 774 L108.5 775 L107.5 775 L107 774.5 L108 773.5 L108 772.5 L107.5 772 L105.5 774 L104 774.375 L100.5 775 L99 773.5 L98 769.5 L95 766.5 L92.625 762 L91.875 759 L92 736.5 L94 734.5 L94 726.5 L90.5 723 L89.5 723 L88.5 724 L87.5 723 L85 722.375 L83 721.5 L81.5 721 L80 719.5 L79 717.5 L75.5 712 L74.5 710 L74 708.5 L73.5 708 L72.5 709 L71.25 708.75 L68.5 699 L65.5 685 L62.75 677.25 L59.5 677 L57.5 675 L56.5 675 L55 673.5 L54.625 672 L53.5 669 L49.5 650 L49.625 643 L50 640.5 L51.5 639 L54 638.375 L56.5 639 L58.5 640 L59 640.5 L58 641.5 L61.5 645 L62 644.5 L62 643.5 L63.5 642 L64 642.5 L63.375 645 L63.75 648.75 L61.25 648.75 L56 641.5 L54.5 640 L53.5 641 L52.25 641.25 L51.75 643 L51.75 650 L52 651.5 L52.5 652 L53.5 651 L60.5 652 L62 653.5 L62.625 656 L62.5 658 L62 659.5 L59.5 662 L54.25 663.25 L54.5 666 L55.5 669 L56 671.5 L59.5 675 L61.75 674.75 L62 672.5 L60 670.5 L61.25 666.25 L62.75 666.25 L63 668.5 L63.5 669 L64.5 668 L65.875 668.25 L66.125 673.75 L68.5 674 L69 674.5 L68 675.5 L68.625 678 L70.625 683 L71 684.5 L71 685 L72 684.5 L72.875 672 L73.25 670.25 L74.5 670 L76 671.5 L74 673.5 L74 684.5 L75.5 686 L76.75 686.25 L77 687.5 L76 688.5 L77 689.5 L77.75 694 L79 698.5 L81 700.5 L81.5 702 L90.5 719 L91 720.5 L94.5 724 L95 723.5 L95.625 720 L96 718.5 L94.5 717 L93.5 717 L89 712.5 L88.5 711 L80.5 690 L76.25 668 L76.25 666.25 L79 666.25 L79.625 677 L80.5 682 L90 710.5 L94.5 715 L95.75 714.75 L98.25 704.25 L99.75 704.25 L100 706.5 L99 707.5 L99.5 708 L100.5 708 L101 708.5 L100 709.5 L98 726.5 L97 727.5 L98 728.5 L98 730 L99 729.5 L103.5 707 L104 701.5 L103 700.5 L104 699.5 L104 697 L103 697.5 L103 698.5 L102.5 699 L101.5 698 L100.5 699 L98.5 699 L95 695.5 L90.625 687 L86.5 674 L85.625 668 L85 654.25 L87.75 654.25 L87.625 668 L88.5 674 L90.5 681 L92.5 686 L95.5 692 L96 693.5 L98.5 696 L102.5 694 L103.5 695 L107 691.5 L107.5 689 L107.375 685 L104.5 677 L103.75 673 L103.875 657 L104.375 655 L109.5 642 L112 637.5 L114.5 634 L116 631.5 L118 629.5 L116 627.5 L115.5 625 L115.25 622.25 L116.75 622.25 L118.25 626.75 L119.5 627 L121 625.5 L119 623.5 L118 619.5 L118.5 619 L121 621.5 L121 622.5 L122.5 624 L134.5 612 L137.5 610 L141.5 607 L143.5 606 L145 604.5 L144.5 604 L143 604.5 L141 605.5 L139 605.5 L137 605.25 L129 606.75 L127 607.5 L125 608.5 L123.25 608.75 L123 607.5 L124 606.5 L123 605.5 L123.5 605 L140 601.5 L145.5 601 L147.5 599 L150.5 599 L151.5 598 L152.5 599 L164 596.625 L171 596.5 L183 598.5 L188 600.5 L195 604.5 L196.5 605 L201 609.5 L201 611.5 L203 613.5 L203 616 L204 615.5 L203.25 608.25 L204.75 608.25 L208.75 625 L209 627.5 L208 628.5 L215 635.5 L219.375 644 L221.625 652 L221.75 654.75 L219 656 L219 655.5 L218.5 655 L218 655 M105 716 L105 715 L104 715 L104 716 L105 716 M104 720 L104 718.5 L103 718 L103 719 L104 720 M103 725 L103 723.5 L102 723 L102 724 L103 725 M102 731 L102 728.5 L101 728 L101 730.5 L102 731 M97 738 L97 737.5 L97.75 732.25 L96.125 732.25 L96 737.5 L97 738 M121 739 L121 738 L120 738 L120 739 L121 739 M119 747 L119 746 L118 746 L118 747 L119 747 M117 754 L117 753.5 L118 748.5 L117.5 748 L116 749.5 L116 753.5 L117 754 M113.75 762.75 L115.375 758 L116 754.5 L115 754 L115 754.5 L114.625 756 L113.5 759 L113 761.5 L112 762.5 L112.5 763 L113.75 762.75 M113 765 L113 764 L112 764 L112 765 L113 765 M110 771 L110 769.5 L109 769 L109 770 L110 771 M109 772 L109 771 L108 771 L108 772 L109 772 M175 741 L175 735.5 L177 733.5 L174 717.5 L173.5 717 L172.5 718 L171 718.25 L171.625 728 L174 740.5 L175 741 M185.5 769 L187 767.5 L179.625 746 L178.5 741 L178 736.5 L177 736 L177 751.5 L178 752.5 L177 753.5 L178 763.5 L178.5 764 L179.5 763 L180 763.5 L180 764.5 L181.5 766 L182.5 766 L184 767.5 L184.25 768.75 L185.5 769 M172 740 L172 738.5 L171 738 L171 739 L172 740 M173 744 L173 741.5 L172 741 L172 743.5 L173 744 M174 746 L174 744.5 L173 744 L173 745 L174 746 M175 748 L175 747 L174 747 L174 748 L175 748 M212 806.5 L214 802.5 L215.5 801 L216.5 801 L219 798.5 L219.375 797 L220.5 794 L221.5 790 L223.375 785 L224.375 781 L224.375 772 L223.375 768 L221.75 764.25 L220.5 764 L216 759.5 L211 750.5 L207.5 747 L204.125 747.25 L204 752.5 L212 760.5 L212.375 762 L213.625 765 L214 766.5 L216 768.5 L216.25 783 L215.375 787 L212.75 791.75 L211.25 791.75 L211.5 790 L212 788.5 L214 786.5 L214 769.5 L212 767.5 L210.75 763.25 L209.25 762.75 L204 755.5 L203 755 L203 755.5 L202.375 760 L199.75 767.75 L198.25 768.25 L198 769.5 L196.5 771 L189.5 772 L189 773 L190.5 773 L192 774.5 L192 775.5 L193.5 777 L194.5 777 L201 783.5 L201.5 785 L203.375 789 L208.375 803 L209 808.5 L209.5 809 L212 806.5 M173 749 L173 748 L172 748 L172 749 L173 749 M176 762 L175 751.5 L173.5 750 L173 750.5 L173.5 756 L174.625 760.5 L176 762 M182 770 L182 768.5 L181 768 L181 769 L182 770 M187.5 771 L188 770 L186.5 770 L186 771 L187.5 771 M187 774 L187 773 L186 773 L186 774 L187 774 M206.875 810.75 L206.25 803 L205.5 800 L201.625 790 L201 787.5 L198.5 785 L197.5 785 L193 780.5 L191 776.5 L189.5 775 L188 776.5 L188.5 777 L189.75 777.25 L189.625 779 L188.5 783 L188 786.5 L189.5 788 L191.5 788 L193 789.5 L197.5 796 L198 797.5 L200 799.5 L201 803.5 L202 804 L202 803.5 L201.375 799 L198.5 791 L198.25 788.25 L199.75 788.25 L200.625 791 L202.375 795 L204.5 804 L205.125 810.75 L206.875 810.75 M140 802 L140 801 L139 801 L139 802 L140 802 M123 837 L123 836.5 L124.5 830 L132.375 809 L133 806.5 L132 806 L132 806.5 L129.375 813 L129 814.5 L127 816.5 L126.375 819 L124.5 824 L122.5 832 L122 836.5 L123 837 M147 820 L147 818.5 L146 818 L146 819 L147 820 M116.75 846.75 L120 831.5 L119 831 L119 831.5 L115.625 842 L115.125 846.75 L116.75 846.75 M192.75 821.75 L193.25 820.25 L196.5 819 L202 813.5 L201.5 810 L198.5 802 L198 800.5 L197 800 L197 800.5 L197.625 803 L197.75 804.75 L196.25 804.75 L192.625 795 L192 792.5 L191 792 L191 795.5 L190.5 796 L189 794.5 L189 793.5 L186.5 791 L186 791.5 L185.375 801 L187.5 813 L190.25 821.75 L192.75 821.75 M197 800 L197 798.5 L196 798 L196 799 L197 800 M178.5 816 L179.5 815 L182.5 814 L185 811.5 L185 810.5 L183 808.5 L182 804.5 L181 804 L180.25 810.75 L181.75 811.25 L181.75 812.75 L179.5 813 L178 815 L178.5 816 M203 806 L203 804.5 L202 804 L202 805 L203 806 M179.5 826 L180.5 825 L186.5 824 L188 822.5 L187.5 821 L186.625 819 L186 815.5 L184.5 814 L182.5 816 L179.5 817 L177 819.5 L177 821.5 L173 825.5 L173.5 826 L175.5 826 L176.5 825 L177.5 826 L178.5 825 L179.5 826 M173 822 L173 821 L172 821 L172 822 L173 822 M206 828 L206 826.5 L205 826 L205 827 L206 828 M197 834 L197 832.5 L196 832 L196 833 L197 834 M167 835 L167 834 L166 834 L166 835 L167 835 M198 835 L198 834 L197 834 L197 835 L198 835 M199 836 L199 835 L198 835 L198 836 L199 836 M162 839 L162 838 L161 838 L161 839 L162 839 M153 848.625 L155.5 848 L159 844.5 L159.5 843 L160.5 841 L161 839.5 L160.5 839 L158.5 841 L157.25 840.75 L157 839.5 L156.5 839 L155 840.5 L154.5 842 L152.5 846 L152 847.5 L151 848.5 L151.5 849 L153 848.625 M112.5 855 L114 853.5 L114.5 852 L114.5 850 L114 848.5 L113 848 L113 848.5 L112 854.5 L112.5 855 M151.5 854 L154 851.5 L153.5 851 L151.25 851.25 L151 853.5 L151.5 854 "/>
  </g>
  <g transform="matrix(1, 0, 0, 1, -1.1368683772161603e-13, 0)">
    <path fill="#000000" fill-rule="evenodd" d="M88.5 648 L88 647.5 L88 644.5 L90 642.5 L90.25 631 L90 629.5 L88.5 628 L83.5 628 L82 629.5 L81 636.5 L82 637.5 L80.5 639 L79 637.5 L78.375 632 L77.375 629 L75.5 625 L75 623.5 L70.5 619 L69 620.5 L69.75 629 L71.5 635 L72 638.5 L73 639.5 L72.5 640 L71.5 640 L70.5 639 L69.5 640 L68.5 639 L67.5 640 L66 639.75 L66.625 627 L67.75 620 L68.25 618.25 L71.5 617 L75 620.5 L78.375 626 L79 628.5 L79.5 629 L80.5 628 L81.5 628 L83.5 626 L89.5 626 L92 628.5 L92.25 640 L91.375 643 L90.5 645 L90 646.5 L88.5 648 "/>
  </g>
  <path style="stroke: rgb(0, 0, 0); fill: rgb(255, 107, 0);" d="M 197.958 814.001 C 197.958 818.114 198.015 829.905 195.061 818.118 C 194.815 817.138 194.609 816.149 194.396 815.161 C 193.598 811.452 193.932 812.872 193.242 809.216 C 192.747 806.595 185.579 786.428 194.81 788.205 C 196.191 788.471 198.868 796.584 199.235 797.539 C 202.128 805.081 205.704 816.787 205.704 824.874 C 205.704 828.721 206.51 835.309 200.239 833.247 C 186.04 828.579 187.954 805.749 187.954 794.504 C 187.954 792.067 189.724 780.79 192.324 779.24 C 196.074 777.006 203.175 794.459 203.507 797.221 C 204.057 801.802 204.291 806.246 204.291 810.863" transform="matrix(1, 0, 0, 1, -1.1368683772161603e-13, 0)"/>
</svg>
