<svg xmlns="http://www.w3.org/2000/svg" viewBox="36.7321 87.8487 192.75 356.5" width="192.75px" height="356.5px">
  <g transform="matrix(1, 0, 0, 1, -80.8929214477539, 9.34872817993164)">
    <g>
      <path fill="#000000" fill-rule="evenodd" d="M153.5 386 L150 385.375 L148.5 385 L144 380.5 L142.75 375 L141 348.5 L143.5 346 L145.75 346.25 L145.75 347.75 L144.5 348 L143 349.5 L144.875 375 L146 379.5 L150.5 384 L152.5 384 L154 385.5 L153.5 386 "></path>
    </g>
    <g>
      <path fill="#000000" fill-rule="evenodd" d="M154.5 392 L151.25 390.75 L151 388.5 L151.5 388 L152.5 389 L153.5 389 L154.5 390 L155.5 389 L156.5 389 L159 386.5 L152 379.5 L149.625 375 L148.625 372 L147.75 366 L148.5 332 L149.5 326 L149.25 319 L148 314.5 L150.5 312 L151.5 312 L152 312.5 L150 314.5 L150 317 L151 316.5 L151 315.5 L152.5 314 L155.75 314.25 L155.75 315.75 L153.125 316.25 L153 320.5 L155 322.5 L161 332.5 L165.5 339 L166.25 340.75 L167.75 340.75 L169 336.5 L171 334.5 L171.25 333.25 L173.75 333.25 L173.75 334.75 L172.25 335.25 L171.5 337 L168.375 344 L168.375 346 L169.5 349 L171.375 357 L171 371.5 L169 373.5 L168.5 375 L165 381.5 L164.25 383.75 L165.5 384 L170 379.5 L171 376.5 L173.5 374 L174 374.5 L173.375 377 L172.5 379 L172 380.5 L167.5 385 L166 385.375 L163 386.625 L157 390.5 L155.5 391 L154.5 392 M160.5 384 L163 381.5 L163.5 380 L167.375 372 L168 369.5 L170 367.5 L169.375 357 L167.75 349.25 L166.25 349.25 L165.75 351 L164.875 355.75 L163.125 355.75 L163.625 351 L164.625 348 L165.5 346 L165.5 344 L163.5 340 L154.5 326 L154 324.5 L152.5 323 L152 323.5 L150.5 332 L149.75 366 L150.75 372 L151.5 374 L152.5 376 L156 381.5 L157.5 383 L160.5 384 "></path>
    </g>
    <g>
      <path fill="#000000" fill-rule="evenodd" d="M180.5 316 L178.625 313.5 L177.625 310 L177 305.5 L177.5 305 L179 306.5 L179.625 310 L180.375 312 L181 315.5 L180.5 316 "></path>
    </g>
    <g>
      <path fill="#000000" fill-rule="evenodd" d="M186.75 204.75 L184.5 205 L184 204.5 L185.5 203 L186.75 203.25 L186.75 204.75 "></path>
    </g>
    <g>
      <path fill="#000000" fill-rule="evenodd" d="M169 185 L168 184 L168 183 L169 183.5 L169 185 "></path>
    </g>
    <g>
      <path fill="#000000" fill-rule="evenodd" d="M158.5 178 L157.5 178 L156 176.5 L155.5 175 L153.625 171 L150.5 160 L150 156.5 L151.5 155 L152.5 155 L153 155.5 L152 156.5 L152.5 160 L154.5 167 L157.625 175 L158 176.5 L159 177.5 L158.5 178 "></path>
    </g>
    <g>
      <path fill="#000000" fill-rule="evenodd" d="M129.75 158.75 L125.5 158 L122 154.5 L117.625 134 L117.875 123 L118.25 121.25 L123.5 120 L125.5 122 L126.5 122 L127 122.5 L126 123.5 L128.5 126 L129.5 126 L131.5 124 L132 124.5 L131 129.5 L132 130.5 L131.5 131 L129.25 130.75 L124 123.5 L122.5 122 L121.5 123 L119 123.25 L119 132.5 L120.5 134 L121.5 133 L127 133.75 L128.75 134.25 L129.25 136 L130 141.5 L127.5 144 L122.25 145.25 L122.5 148 L123.5 151 L124 153.5 L127.5 157 L129.75 157.25 L129.75 158.75 M125 142.5 L126.5 142 L128 140.5 L128 136.5 L126.5 135 L122.5 135 L121 136.5 L121.125 141.75 L125 142.5 "></path>
    </g>
    <g>
      <path fill="#000000" fill-rule="evenodd" d="M156.5 130 L155 128.5 L156 127.5 L158.5 119 L158.375 114 L158 111.5 L156.5 110 L151.5 110 L149 112.5 L149 118.5 L150 119.5 L148.5 121 L147 119.5 L146.375 115 L145.5 112 L144.375 109 L142 104.5 L138.5 101 L137 102.5 L137.75 111 L139.375 117 L139.875 121.75 L137.5 122 L136.5 121 L135.5 122 L134 121.75 L135 101.5 L137.5 99 L139.5 99 L143 102.5 L146.5 109 L147 110.5 L147.5 111 L150.5 108 L155.5 108 L156.5 107 L159 109.5 L160.375 114 L160 124.5 L158 126.5 L158 128.5 L156.5 130 "></path>
    </g>
    <g>
      <path fill="#000000" fill-rule="evenodd" d="M287 138 L286.25 154 L285.5 158 L282 168.5 L280 170.5 L277.75 174.75 L276.25 174.75 L276.5 173 L280.5 166 L282.5 161 L284.25 153 L284.25 139 L285 136 L285 136.5 L285.5 137 L286 137 L286 137.5 L286.5 138 L287 138 "></path>
    </g>
    <g>
      <path fill="#000000" fill-rule="evenodd" d="M252 434.25 L245.5 435 L243 432.5 L243 430.5 L241 428.5 L240.5 426 L232.5 397 L230.625 392 L225.5 373 L225.125 367.25 L226.875 367.25 L227.5 373 L234.25 396.75 L235.5 397 L236.5 396 L238 397.5 L236 399.5 L237 400.5 L237.5 407 L239.5 416 L243.625 428 L244.5 430 L245 431.5 L246.5 433 L254.5 432 L255 432.5 L253.5 434 L252 434.25 "></path>
    </g>
    <g>
      <path fill="#000000" fill-rule="evenodd" d="M249.5 407 L246.5 406 L244 403.5 L241.625 399 L239.5 394 L225.5 359 L220.5 349 L220 347.5 L218.5 346 L217.5 346 L216 344.5 L214.75 341.25 L211.25 340.75 L211.25 339.25 L213.5 339 L214.5 338 L219 342.5 L225.5 354 L242.5 396 L244.5 400 L245 401.5 L250 406.5 L249.5 407 "></path>
    </g>
    <g>
      <g>
        <path fill="#000000" fill-rule="evenodd" d="M208.5 192 L209 191.5 L208 190.5 L209 189.5 L209 186.5 L210.5 185 L211.5 186 L212 185.5 L213.625 97 L213.75 94.25 L212 94.375 L209.5 95 L207.5 97 L204.5 98 L196 106.5 L196 107.5 L193.5 110 L192.25 109.75 L192.5 108 L193 106.5 L192.5 106 L191 107.5 L189 110.5 L185.5 115 L179.5 124 L173.75 139 L172.25 147 L173 155.5 L175 157.5 L175 160.5 L176.5 162 L177 161.5 L177 159.5 L179.5 157 L182.75 157.25 L183 158.5 L184 159.5 L183 160.5 L182 170.5 L181 171.5 L189 179.5 L189 180.5 L192.5 184 L193.5 184 L194.5 185 L195 184.5 L194.375 170 L193.5 163 L193.75 156 L194.25 154.25 L197.5 154 L199 155.5 L203.125 189.75 L204.5 190 L206.5 192 L208.5 192 M197 103 L197 102 L196 102 L196 103 L197 103 M196 104 L196 103 L195 103 L195 104 L196 104 M195 105 L195 104 L194 104 L194 105 L195 105 M194 106 L194 105 L193 105 L193 106 L194 106 M141.5 179 L142 178.5 L141 171.5 L137.5 168 L137 168.5 L139.5 176.5 L141.5 179 M180 161 L180 160 L179 160 L179 161 L180 161 M179 163 L179 162 L178 162 L178 163 L179 163 M178 166 L178 164.5 L177 164 L177 165 L178 166 M181 165 L181 164 L180 164 L180 165 L181 165 M180 169 L180 166.5 L179 166 L179 168.5 L180 169 M176.5 176 L179 173.5 L179 172.5 L177.5 171 L177 171.5 L176.375 174.5 L176.5 176 M171 254.5 L172.5 254 L175 251.5 L174 250.5 L177.5 244 L177.5 240 L182.5 230 L190.375 210 L191.25 207.25 L192.875 206.75 L194.875 188.25 L193.5 188 L185 179.5 L184.75 178.25 L183.5 178 L180.5 175 L180 175.5 L169.75 220.75 L168.25 220.75 L169 213.5 L168 213 L168 213.5 L166 222.5 L164.5 224 L164 223.5 L164 222.5 L163 222 L163.625 228 L165.5 234 L166 236.5 L168 238.5 L168 239.5 L170.5 242 L171.5 242 L174 244.5 L174 245.5 L173.5 246 L172.5 245 L169.5 244 L168 242.5 L167.75 241.25 L166.25 240.75 L164.625 237 L162.5 231 L162 228.5 L161 228 L162 243.5 L164 245.5 L164 246.5 L165 247 L165 246.5 L165.25 245.25 L166.75 245.25 L167 248.5 L168.5 250 L169.75 250.25 L169.75 251.75 L168.25 252.25 L168 253.5 L169.5 255 L171 254.5 M176 178 L176 176.5 L175 176 L175 177 L176 178 M156.5 203 L157 202.5 L156 201.5 L155.5 200 L145.5 181 L145 179.5 L144 179 L144 179.5 L145 185.5 L147 187.5 L147 189.5 L146 190.5 L147 191.5 L148 196.5 L150.5 199 L151.5 199 L153 200.5 L152 201.5 L153.5 203 L156.5 203 M172 181 L172 179.5 L171 179 L171 180 L172 181 M177 181 L177 180 L176 180 L176 181 L177 181 M142 185 L142 183.5 L141 183 L141 184 L142 185 M176 185 L176 183.5 L175 183 L175 184 L176 185 M140 186 L140 185 L139 185 L139 186 L140 186 M143 187 L143 185.5 L142 185 L142 186 L143 187 M175 189 L175 186.5 L174 186 L174 188.5 L175 189 M144 190 L144 187.5 L143 187 L143 189.5 L144 190 M141 189 L141 188 L140 188 L140 189 L141 189 M174 194 L174 190.5 L173 190 L173 193.5 L174 194 M145 192 L145 191 L144 191 L144 192 L145 192 M172 202 L172 200.5 L171 200 L171 201 L172 202 M171 206 L171 204.5 L170 204 L170 205 L171 206 M170 212 L170 209.5 L169 209 L169 211.5 L170 212 M165 219 L165 216.5 L166 215.5 L165 214.5 L165 213.5 L164 213 L164 218.5 L165 219 M188 223 L188 222 L187 222 L187 223 L188 223 M187 229 L187 228 L186 228 L186 229 L187 229 M185 235 L185 234.5 L186 229.5 L185 229 L185 229.5 L184.625 231 L184 234.5 L185 235 M182 244 L182 243.5 L182.375 242 L183.5 239 L184 235.5 L183 235 L183 235.5 L182.5 238 L181.5 241 L181 243.5 L182 244 M181 245 L181 244 L180 244 L180 245 L181 245 M181 247 L181 246 L180 246 L180 247 L181 247 M178 252 L178 251 L177 251 L177 252 L178 252 M177 254 L177 253 L176 253 L176 254 L177 254 M176 255 L176 254 L175 254 L175 255 L176 255 M201 290 L201 288.5 L200 288 L200 289 L201 290 M192.75 311.75 L199.375 293 L200 290.5 L199 290 L199 290.5 L198.5 292 L195.5 298 L192.625 305 L191.5 309 L191.25 311.75 L192.75 311.75 M214.5 315 L215 314.5 L214.5 310 L212.5 303 L212 300.5 L211 300 L211 300.5 L210.75 301.75 L209.5 302 L208 300.5 L208 291.25 L203.5 290 L202 291.5 L201.625 293 L197.625 303 L197 305.5 L197.5 306 L200.5 303 L202.5 303 L205.5 306 L208.5 306 L211 308.5 L212.5 312.5 L214.5 315 M197 308 L197 306.5 L196 306 L196 307 L197 308 M196 310 L196 309 L195 309 L195 310 L196 310 M188 315 L188 313.5 L187 313 L187 314 L188 315 M187 316 L187 315 L186 315 L186 316 L187 316 M191 319 L191 315.5 L190 315 L190 318.5 L191 319 M184 326 L184 323.5 L183 323 L183 325.5 L184 326 M183 327 L183 326 L182 326 L182 327 L183 327 M181 337 L181 336.5 L182 330.5 L181 330 L181 330.5 L180 336.5 L181 337 M239 81 L239 80 L238 80 L238 81 L239 81 M258.5 95 L259 94.5 L258 93.5 L258 92.5 L255.5 90 L252.5 89 L250.5 87 L248 86.375 L243 84.5 L239.5 84 L237.5 82 L236 81.75 L230 81.625 L227.5 82 L227 83 L227.5 83 L229 83.5 L231 84.5 L232.75 85.25 L232.75 86.75 L230.5 87 L228.5 85 L222 85.625 L219 86.5 L215.5 87 L215 88 L216.5 88 L217 88.5 L216 89.5 L216 90.5 L216.5 91 L217.5 90 L220.75 89.75 L221.25 88.25 L223 88.25 L232 89.75 L236 89.25 L246 90.625 L250 91.625 L257 94.625 L258.5 95 M267.5 97 L268 96.5 L267.5 95 L266.5 93 L266 91.5 L262.5 88 L260.5 88 L258.5 86 L257 85.5 L253 83.5 L251 82.75 L246 81.5 L240.5 81 L240 82 L240.5 82 L247 83.625 L249 84.375 L251.5 85 L254.5 88 L256.5 88 L258.5 90 L261.5 90 L263 92 L267.5 97 M215 85.625 L218.5 85 L219 84 L214.5 84 L213 85.5 L213.5 86 L215 85.625 M212.5 87 L213 86 L211.5 86 L211 87 L212.5 87 M215 89 L215 88 L214 88 L214 89 L215 89 M210 92.625 L212.5 92 L214 90.5 L213.75 89.25 L212 89.5 L210.5 90 L208 92.5 L208.5 93 L210 92.625 M226.75 196.75 L227 194.5 L229 192.5 L229.125 104 L225.5 95 L225 93.5 L223.5 92 L222 92.5 L220 92.5 L218.5 92 L217 93.5 L216.75 96.75 L215.125 97.25 L213.75 193 L214 194.5 L215.5 196 L226.75 196.75 M230.5 101 L231 100.5 L231 92.125 L226.5 92 L226 92.5 L228 94.5 L228.375 96 L229 99.5 L230.5 101 M266.5 177 L268 175.5 L268.5 174 L269.5 172 L269.5 170 L270 167.5 L273.5 161 L274.25 159 L275.25 153 L275.25 136 L274.375 132 L270.5 124 L261 109.5 L260.25 107.25 L261.5 107 L263 108.5 L263.5 110 L267 115.5 L268 116 L268.125 111.25 L269.875 111.25 L270 115.5 L270.5 116 L272 114.5 L272 110.5 L270 108.5 L270 106.5 L264.5 101 L261.5 100 L259.5 98 L257 97.375 L247 93.5 L244.5 93 L243.5 92 L242.5 93 L234.25 92.125 L233.75 96 L233.75 109 L235.5 116 L238.5 135 L237 180.5 L238 181 L238.25 178.25 L239.75 178.25 L240 181.5 L241 182 L241.125 176.25 L242.75 176.25 L243 177.5 L244 178.5 L243 179.5 L243 185.5 L242 186.5 L243 187.5 L243.125 192.75 L245 192.625 L253 189.625 L260.875 187.75 L260.375 183 L257.5 173 L256.625 169 L256.5 159 L255.375 156 L255.25 154.25 L257.5 154 L258 154.5 L257 155.5 L258.5 157 L260.5 157 L262 158.5 L262.5 164 L263.625 169 L265.375 174 L266 176.5 L266.5 177 M208 94 L208 93 L207 93 L207 94 L208 94 M262 94 L262 93 L261 93 L261 94 L262 94 M206 95 L206 94 L205 94 L205 95 L206 95 M260 96 L260 95 L259 95 L259 96 L260 96 M264 96 L264 95 L263 95 L263 96 L264 96 M265 97 L265 96 L264 96 L264 97 L265 97 M266 99 L266 97.5 L265 97 L265 98 L266 99 M233 182 L233 181.5 L234.375 171 L236.5 136 L233 112.5 L232 112 L232 181.5 L233 182 M260 161 L260 160 L259 160 L259 161 L260 161 M262 179 L262 178.5 L260 165.5 L258.5 164 L258 164.5 L258.5 169 L260.5 176 L261 178.5 L262 179 M265 181 L265 177.5 L264 177 L264 180.5 L265 181 M235 196.75 L235 182.5 L234 182 L234 182.5 L233.375 187 L232.625 190 L232.125 196.75 L235 196.75 M266 185 L266 183.5 L265 183 L265 184 L266 185 M267 187.5 L266.5 187 L265.25 186.75 L265 185.5 L264 185 L264 189.5 L264.5 190 L267 187.5 M241 195 L241 188.5 L240 188 L240 194.5 L241 195 M258.5 247 L260 245.5 L261.375 240 L265 206.5 L264.5 206 L263.5 207 L263 206.5 L262 191.5 L261 191 L261 191.5 L260.75 192.75 L259.5 193 L256.5 196 L251 196.75 L247 198.375 L244.25 199.25 L244.5 203 L248.5 224 L254.5 242 L255 244.5 L257.5 247 L258.5 247 M243 223 L243.125 216.25 L244.75 215.75 L244.75 214 L243.5 209 L241.75 199.25 L240.5 199 L239 200.5 L239.625 211 L242 222.5 L243 223 M253.5 251 L255 249.5 L249.5 234 L246.5 224 L246 219.5 L245 219 L244.375 225 L246.125 244.75 L247.75 245.25 L248 246.5 L249.5 248 L250.5 248 L252 249.5 L252.25 250.75 L253.5 251 M240 224 L240 221.5 L239 221 L239 223.5 L240 224 M241 226 L241 224.5 L240 224 L240 225 L241 226 M242 228 L242 226.5 L241 226 L241 227 L242 228 M243 230 L243 229 L242 229 L242 230 L243 230 M244 244 L243 233.5 L241 231.5 L241 230.5 L240 230 L240 230.5 L242.625 242.5 L244 244 M249.5 251 L250 250 L248.5 250 L248 251 L249.5 251 M255 253 L255 252 L254 252 L254 253 L255 253 M255 256 L255 255 L254 255 L254 256 L255 256 M257.75 258.75 L257.75 257.25 L256.25 257.25 L256.25 258.75 L257.75 258.75 M208 285 L208 283.5 L207 283 L207 284 L208 285 M215 303 L215 300.5 L214 300 L214 302.5 L215 303 M242 301 L242 300 L241 300 L241 301 L242 301 M243 305 L243 304 L242 304 L242 305 L243 305 M230 321 L230 320 L229 320 L229 321 L230 321 M225 322 L225 321 L224 321 L224 322 L225 322 M221 330.625 L223.5 330 L226 327.5 L228.5 323 L229 321.5 L228.5 321 L227.5 322 L224.5 323 L223.5 322 L222 323.5 L221.625 325 L220.375 328 L220 329.5 L219 330.5 L219.5 331 L221 330.625 M219.5 336 L222 333.5 L222 332.5 L221.5 332 L220.5 333 L219.25 333.25 L219 335.5 L219.5 336 M269 117 L269 116 L268 116 L268 117 L269 117 M286 137 L286 136.5 L285.5 136 L285 136 L284.5 131 L283.375 126 L282.375 123 L281.5 121 L275 112.5 L275 112 L274 112.5 L273.75 123 L279.25 137.75 L281.5 138 L283 139.5 L282.375 150 L281.5 155 L278.5 165 L271.5 182 L269.625 186 L269.625 189 L270.25 191 L272.75 232 L273.25 233.75 L279.75 238.25 L284.5 245 L287.375 250 L290.5 258 L292.375 262 L293.375 265 L294 269.5 L297 272.5 L297.5 274 L299.5 278 L300.25 280 L301.125 287.75 L303.5 288 L308 292.5 L308.5 294 L309.375 296 L310.375 299 L310.25 305 L309 308.5 L306.5 311 L304.25 311.25 L302.75 314.75 L299 316.25 L290.25 317 L288.75 320.75 L284 322.5 L281 322.625 L272.5 321 L267 315.5 L268 308.5 L275.5 301 L277 300.625 L280 299.375 L281.5 299 L283 300.5 L281.5 302 L277.25 303.25 L277.5 305 L278.25 307 L279.125 311.75 L280.75 311.75 L282 305.5 L283.5 304 L284.75 304.25 L284.5 306 L283.625 308 L282 314.5 L280.5 316 L278.25 315.75 L276 306.5 L274.5 305 L273 306.5 L270.75 311 L270 315.5 L273.5 319 L285.5 320 L288 317.5 L288 316.5 L286.5 315 L285.5 315 L284 313.5 L284.25 311.125 L288.75 311.125 L290.25 314.875 L298 314.25 L301.75 312.75 L301.75 311.25 L297.5 310 L295 307.5 L296.5 306 L297.5 306 L298.5 305 L299.5 306 L302.75 307.25 L303.25 308.75 L306.75 308.75 L308.375 304 L308.375 299 L307 294.5 L302.5 290 L301.5 290 L300.5 289 L299.5 290 L295.5 290 L294 288.5 L294 287.5 L295.5 286 L298.875 285.75 L298.25 281 L297.5 279 L295.5 275 L295 273.5 L292.5 271 L291.5 271 L290 272.5 L290 274.5 L288.5 276 L287.25 275.75 L287 273.5 L289 271.5 L289 270.5 L290.5 269 L292.5 269 L293 268.5 L292 267.5 L291.625 266 L290.5 263 L290 260.5 L288 258.5 L287.5 256 L285.5 251 L283.5 247 L280 241.5 L276.5 238 L275.5 238 L271.5 234 L271 234.5 L270.375 241 L269 246.5 L268 247.5 L270 249.5 L270.5 251 L279.5 266 L282.5 274 L286.625 292 L286.75 293.75 L285.25 293.75 L283.625 289 L280.5 274 L278.5 269 L268.5 252 L267.75 250.25 L266.25 250.25 L266 251.5 L264.5 253 L258.5 254 L257.5 253 L257 253.5 L257.25 254.75 L258.75 255.25 L259 256.5 L261.5 259 L262.5 259 L265 261.5 L265.625 264 L265.75 265.75 L264.5 266 L261 262.5 L261 261.5 L258.5 259 L258 259.5 L256.625 264 L256 268.5 L257.5 270 L259.5 270 L261 271.5 L261 274.5 L260.5 275 L259.5 274 L258.5 274 L258 274.5 L259 275.5 L259 277.5 L258.5 278 L257 276.5 L257 275.5 L254.5 273 L254 273.5 L253.875 291.75 L252.5 292 L251 290.5 L250 285.5 L250 285 L249 285.5 L248 291.5 L247 292.5 L247.5 293 L249.5 293 L250 293.5 L248.5 295 L247.5 295 L246 296.5 L246.5 297 L250.5 296 L251 296.5 L248.5 299 L247.5 299 L245 301.5 L244 304.5 L242.5 306 L241.25 306.25 L241.25 307.75 L242.5 308 L243 308 L242.5 309 L238.25 310.25 L236 318.5 L234.5 320 L234 319.5 L234 318 L233 318.5 L229.5 325 L229.25 326.75 L230.75 327.25 L230.75 328.75 L226.25 330.25 L225.5 332 L227 335.5 L234.5 346 L237 350.5 L239 352.5 L239.625 355 L251.5 375 L253.5 380 L255.625 388 L257 413 L258 412.5 L258.375 411 L260.5 406 L269.5 388 L270 386.5 L272.5 384 L274.75 384.25 L276.25 389 L277.375 395 L277.375 407 L275.5 415 L271.5 425 L267.75 431.875 L263 431.25 L258.5 430 L258 429.5 L259.5 428 L261 428.375 L264 429.5 L266.75 429.75 L267.5 428 L268.5 426 L269 424.5 L271 422.5 L271.5 420 L274.375 412 L275.375 407 L275 389.5 L272.5 387 L271 388.5 L270.5 390 L258.5 415 L257.875 417 L257 427.75 L255.125 427.75 L255 422.5 L253 420.5 L253.5 420 L255 419.75 L252.25 390 L251 384.5 L248.5 382 L247.25 381.75 L247.25 380.25 L249 380.5 L250.5 381 L251.5 382 L252 381.5 L251.5 380 L248.5 373 L239.5 359 L233.5 348 L224.75 335.25 L223 335.5 L220 337.5 L217.125 338.75 L217 334.5 L216.5 334 L215.5 335 L212.25 335.25 L211.75 337 L197.25 337 L197.25 334.25 L203 334.625 L215.75 332.875 L215.75 330 L214 317.5 L211 314.5 L210 310.5 L207.5 308 L204.5 308 L201.5 305 L199 307.5 L198 310.5 L196.5 312 L195.5 312 L194 313.5 L193.5 316 L192.5 319 L192 321.5 L190.5 323 L190 322.5 L190 319.5 L189.5 319 L188 320.5 L187.5 324 L186.25 329 L186.25 330.875 L193.5 332 L194 332.5 L192.5 334 L191.5 333 L187 333 L187.5 334 L193 337.5 L195 338.5 L196.5 339 L198 340.5 L197.5 341 L194 340.375 L191.5 339 L188 336.5 L185.5 335 L184.5 334 L184 334.5 L184 336.5 L182.5 338 L181.5 338 L181 338.5 L182 339.5 L183 343.5 L182.5 344 L180.5 342 L179 343.5 L178.5 347 L176.75 352.75 L175.25 352.75 L175.5 350 L177.625 343 L178.375 341 L178.5 333 L179 329.5 L180 328.5 L179 327.5 L178.375 325 L176.375 320 L176 318.5 L177 317.5 L176 316.5 L175 312.5 L175 312 L174 312.5 L173.75 314.75 L172.125 314.75 L172 310.5 L173.5 309 L175.75 309.25 L180 321.5 L181.5 323 L182 322.5 L182.5 320 L184.5 314 L185 311.5 L186.5 310 L187.5 310 L188.5 311 L189 310.5 L189.5 307 L190.5 304 L191 301.5 L193 299.5 L193.5 298 L197.625 289 L198 287.5 L199.5 286 L202.75 285.75 L203 284.5 L206.5 281 L208.5 281 L210 282.5 L209.5 285 L209.625 289 L211.25 292.75 L212.75 293.25 L213 296.5 L213.5 297 L214.5 296 L217 296.25 L217.625 314 L219 324.5 L219 325 L220 324.5 L220.5 323 L224.5 317 L230 306.5 L231.5 305 L232.75 305.25 L232 307.5 L225.5 319 L225 320.5 L225.5 321 L231 315.5 L231 314.5 L236 309.5 L236.625 307 L238.5 302 L239.625 298 L239.75 296.25 L238.25 295.75 L238.25 294.25 L240.5 294 L243 291.5 L243.375 290 L244.5 287 L247 276.5 L249 274.5 L249.5 270 L251.5 261 L251.375 257 L250.75 255.25 L246.25 255.75 L245.5 254 L241.5 247 L240.625 245 L236.5 229 L236.25 225.25 L237.5 225 L238 224.5 L237 223.5 L235.75 215 L235 200.25 L233.5 200 L231.5 202 L228.5 202 L226.5 200 L217 198.25 L214 197.5 L209 195.5 L205 193.5 L203.5 193 L202 194.5 L200.5 209 L199.375 215 L197.75 219.75 L196 220.375 L192.5 221 L191.5 220 L191 220.5 L190.625 222 L189.5 225 L184.5 242 L182.5 247 L181.5 249 L180.875 251 L181.5 277 L182.75 286 L183 310.5 L181.5 312 L181 311.5 L179 269 L178 269.5 L177 286.75 L175 286.75 L175.5 276 L178 256.5 L177.5 256 L176.5 257 L175.25 256.75 L175 255.5 L174.5 255 L173.5 256 L172 256.375 L168.5 257 L167 255.5 L166.5 254 L164 249.5 L162 246.5 L160.625 244 L159.875 241 L159.875 221 L161.375 215 L162 208.5 L158.5 205 L153 204.25 L149.5 203 L148 201.5 L144.5 196 L142.5 192 L142 190.5 L141.5 190 L140.5 191 L139.5 191 L138 189.5 L133.5 168 L131.625 162 L130 153.5 L129.5 153 L128.5 154 L128 153.5 L128 149.5 L129.5 148 L130.75 148.25 L131.25 149.75 L133.875 150.25 L134.125 155.75 L135.75 156.25 L136.5 160 L139 166.5 L139 167 L140 166.5 L140.875 154 L141.25 152.25 L142.75 152.25 L142 168.5 L142.5 169 L143.5 168 L144.75 168.25 L144.5 173 L146.625 179 L149.375 184 L150 186.5 L152 188.5 L152.5 190 L158.5 201 L159 202.5 L162.5 206 L163 205.5 L163 201.5 L164 200.5 L162.5 199 L161.5 199 L156 193.5 L155.625 192 L146.5 165 L144.25 150 L144.25 147.25 L145.75 147.25 L148.5 165 L151.5 175 L156.625 189 L157.5 191 L158 192.5 L162.5 197 L163.75 196.75 L166.25 186.25 L167.75 186.25 L167.25 190 L167.5 197 L166.5 203 L165.25 208 L165.5 210 L166 211.5 L166 212 L167 211.5 L171.5 188 L171.25 183 L170.75 181.125 L166.5 181 L163 177.5 L157.625 167 L156.5 164 L154.5 156 L153 143.5 L152 142.5 L153 141.5 L153.125 136.25 L155.75 136.25 L155 141.5 L154 142.5 L155 143.5 L156.5 156 L159.5 166 L161.5 171 L164 175.5 L166.5 178 L167.75 177.75 L168.25 176.125 L172.5 176 L174 174.5 L174.5 173 L175.375 171 L175.5 168 L172.5 160 L170.25 149 L170.25 147 L172.625 136 L176.5 126 L180 119.5 L182 116.5 L183 114.5 L186 111.5 L184 109.5 L183.625 108 L183.25 104.25 L184.75 104.25 L186.25 108.75 L187.5 109 L189 107.5 L187 105.5 L186 103.5 L185.25 101.25 L186.5 101 L189 103.5 L189.25 104.75 L191 104.5 L192.75 103.75 L193 102.5 L194.5 101 L206.5 91 L209.5 89 L211 87.5 L210.5 87 L208.5 87 L207.5 88 L206.5 87 L197 88.75 L195 89.5 L193 90.5 L191.25 90.75 L191 89.5 L192 88.5 L191 87.5 L191.5 87 L201 84.625 L213.5 83 L215.5 81 L218.5 81 L219.5 80 L220.5 81 L231 78.75 L239 78.5 L251 80.5 L256 82.5 L265.75 88.25 L266.25 89.75 L267.5 90 L269 91.5 L269.625 94 L270.5 96 L271 97.5 L271 98 L272 97.5 L271.125 90.25 L272.75 90.25 L275.25 100 L276 108.5 L277 109.5 L276 110.5 L283 117.5 L287.375 126 L290 135.5 L287 138 L287 137.5 L286.5 137 L286 137 M280 140 L280 139 L279 139 L279 140 L280 140 M279 158 L281 140.5 L280 140 L278 157.5 L279 158 M278 161 L278 158.5 L277 158 L277 160.5 L278 161 M277 164 L277 162.5 L276 162 L276 163 L277 164 M276 167 L276 166 L275 166 L275 167 L276 167 M272 174 L272 173 L271 173 L271 174 L272 174 M269 184 L269 183.5 L269.375 182 L270.5 179 L271 175.5 L270 175 L270 175.5 L268.75 179 L268 183.5 L269 184 M299 308 L299 307 L298 307 L298 308 L299 308 M301 309 L301 308 L300 308 L300 309 L301 309 "></path>
      </g>
    </g>
  </g>
</svg>
