<?xml version="1.0" encoding="utf-8"?>
<svg xmlns="http://www.w3.org/2000/svg" viewBox="-231 590.5 191.125 378.5" width="191.125px" height="378.5px">
  <g transform="matrix(1, 0, 0, 1, -1.1368683772161603e-13, 0)">
    <g>
      <path fill="#000000" fill-rule="evenodd" d="M-225.5 969 L-229.5 969 L-231 967.5 L-230.5 964 L-229.5 960 L-226.625 953 L-226 950.5 L-224 948.5 L-221 943.5 L-216.5 939 L-212.5 938 L-211.5 937 L-209 939.5 L-209.25 940.75 L-214.5 940 L-220 945.5 L-223.5 951 L-227.5 961 L-228.625 965 L-228.75 966.75 L-226 966.375 L-219 963.375 L-216.5 962 L-201 950.5 L-198.5 949 L-197 947.5 L-195 944.5 L-187 934.5 L-184.5 930 L-188.625 921 L-189 919.5 L-191 917.5 L-192.5 906 L-192.5 900 L-190.375 887 L-189.375 884 L-188.5 882 L-182.5 872 L-169 854.5 L-167.5 852 L-167 850.5 L-162.5 846 L-161.25 846.25 L-161 847.5 L-160 848.5 L-161.5 850 L-162.5 849 L-165 851.5 L-166 853.5 L-181 873.5 L-184.5 879 L-188.5 888 L-190.5 900 L-190.5 906 L-189.25 914 L-183 929.5 L-182.5 930 L-179.5 927 L-178.25 927.25 L-183.5 934 L-190.5 942 L-196.25 949.75 L-211 960.5 L-213.5 962 L-216.5 965 L-219 965.625 L-221 966.375 L-223.5 967 L-225.5 969 "></path>
    </g>
    <g>
      <path fill="#000000" fill-rule="evenodd" d="M-204.5 941 L-207.375 937.5 L-208.25 933 L-208.375 914 L-207.5 907 L-205.625 900 L-192.5 867 L-185.5 852 L-173.5 834 L-172.5 832 L-172 830.5 L-170.5 829 L-168.5 829 L-168 829.5 L-170 831.5 L-170.5 833 L-171.5 835 L-172 836.5 L-174 838.5 L-173.5 839 L-172.25 839.25 L-172 841.5 L-174 843.5 L-174.5 845 L-190.5 872 L-193.5 879 L-196.5 884 L-197.375 886 L-198.375 889 L-200 897.5 L-198 899.5 L-198 900.5 L-197 901.5 L-197.5 902 L-198.5 902 L-201 899.5 L-201.25 898.25 L-202.75 898.25 L-204.5 903 L-206.375 914 L-206.25 932 L-205.375 936 L-204.625 938 L-204 940.5 L-204.5 941 M-174 841 L-174 839.5 L-175 839 L-175 840 L-174 841 M-183.5 855 L-182 853.5 L-175 841.5 L-175.5 841 L-178 843.5 L-179 845.5 L-182.5 851 L-183.5 853.5 L-183.5 855 M-184 857 L-184 855.5 L-185 855 L-185 856 L-184 857 M-185 859 L-185 857.5 L-186 857 L-186 858 L-185 859 M-186 860 L-186 859 L-187 859 L-187 860 L-186 860 M-187 862 L-187 861 L-188 861 L-188 862 L-187 862 M-188 864 L-188 863 L-189 863 L-189 864 L-188 864 M-189 866 L-189 865 L-190 865 L-190 866 L-189 866 "></path>
    </g>
    <g>
      <path fill="#000000" fill-rule="evenodd" d="M-156.25 717.75 L-157.75 717.75 L-157.75 716.25 L-156.25 716.25 L-156.25 717.75 "></path>
    </g>
    <g>
      <path fill="#000000" fill-rule="evenodd" d="M-216.25 668.75 L-217.5 669 L-221 665.5 L-221.5 664 L-222.375 662 L-223.375 659 L-224 652.5 L-223.5 652 L-222 653.5 L-221 661.5 L-219 663.5 L-217.5 666 L-216.25 668.75 "></path>
    </g>
    <g>
      <path fill="#000000" fill-rule="evenodd" d="M-124 903.5 L-128 903.5 L-133.5 902 L-140 895.5 L-140.25 885 L-139 880.5 L-138.5 880 L-137 881.5 L-138 882.5 L-138.25 893 L-138 894.5 L-131.5 901 L-128 901.5 L-124 901.5 L-120.5 901 L-118.5 899 L-117.5 900 L-116.5 899 L-115 898.625 L-108 898.5 L-105.5 898 L-102.5 895 L-101.5 895 L-92 885.5 L-91.5 884 L-88.5 879 L-86.5 874 L-85.5 870 L-82.375 852 L-81.375 849 L-81.25 847.25 L-89.5 845 L-91.5 847 L-93 847.375 L-98 849.5 L-106.5 855 L-108.75 856.25 L-109.25 857.75 L-114.5 861 L-120 866.5 L-119.5 869 L-115.625 879 L-115 882.5 L-115.5 883 L-117 881.5 L-117.375 880 L-120.625 872 L-121 870.5 L-121.5 870 L-124 872.5 L-124.5 874 L-127 878.5 L-130 881.5 L-129 882.5 L-129.25 883.75 L-130.5 884 L-132 882.5 L-130.75 879.25 L-129.25 878.75 L-128.5 877 L-124.5 870 L-123.625 868 L-123.625 865 L-127.25 855.25 L-128.75 854.75 L-129 853.5 L-127.5 852 L-126 853.5 L-125.5 855 L-121.75 864.75 L-120.5 865 L-112 856.5 L-113.125 843.25 L-114.5 843 L-118 846.5 L-118 847.5 L-123.5 853 L-124.5 853 L-126 851.5 L-126.25 849.125 L-130.75 849.125 L-131.25 851 L-145 850.125 L-151 848.375 L-152.75 848.25 L-154 852.5 L-156 854.5 L-155 855.5 L-155 861.5 L-153 863.5 L-153.25 864.75 L-154.5 865 L-156 863.5 L-157 855.5 L-158 854.5 L-157 853.5 L-157.75 849 L-157.5 847 L-159 843.5 L-161.5 840 L-163.375 836 L-164.625 832 L-164.75 830.25 L-163.25 829.75 L-163.5 828 L-165.5 823 L-165.75 819.25 L-164.25 819.25 L-163 824.5 L-163 825 L-162 824.5 L-163 768.5 L-161 766.5 L-161.5 766 L-163 766.375 L-166 767.5 L-169 767.375 L-170.5 767 L-171.5 766 L-172.5 767 L-174 767.375 L-177.5 768 L-182 763.5 L-183.25 758 L-183.25 744 L-182.5 741 L-179.625 733 L-179 728.5 L-181.5 726 L-183 725.5 L-187.5 723 L-190.5 721 L-192.5 720 L-198 714.5 L-198.5 713 L-201.375 706 L-202.5 702 L-203 697.5 L-205 695.5 L-206.25 689 L-208 653.25 L-206.125 653.25 L-202.875 686.75 L-200.25 687.25 L-200.5 693 L-197.5 703 L-197.25 705.75 L-198.75 706.25 L-198.5 708 L-196.5 712 L-196 713.5 L-190.5 719 L-189 719.5 L-183 723.375 L-180.5 724 L-178.5 726 L-178 725.5 L-178.5 724 L-178.75 722 L-176.375 711 L-175.375 708 L-175.25 706.25 L-176.5 706 L-178 704.5 L-180 700.5 L-182 698.5 L-182.625 696 L-184.5 691 L-185.625 687 L-193.5 669 L-196.25 657.25 L-197.75 656.75 L-197 648.5 L-194.5 646 L-193.5 646 L-191 643.5 L-189.75 638 L-190 624.5 L-190.5 624 L-193 626.5 L-193.25 627.75 L-194.5 628 L-197 630.5 L-197 631.5 L-199 633.5 L-198 634.5 L-198 644.5 L-199.5 646 L-201 644.5 L-201.25 643 L-201 632.5 L-202.5 631 L-203.5 631 L-205 632.5 L-206.25 636 L-207.125 642.75 L-208.75 642.75 L-209 639.5 L-212.5 636 L-213.5 636 L-215.5 634 L-219 637.5 L-219.25 639 L-219.25 646 L-217.5 651 L-217 653.5 L-215 655.5 L-213 659.5 L-214.5 661 L-215 660.5 L-215.5 659 L-218.375 654 L-221.25 646 L-221.25 638 L-221 636.5 L-216.5 632 L-214.5 632 L-211.5 635 L-210 635.5 L-208.25 635.75 L-206.375 631 L-206 629.5 L-204.5 628 L-201.5 629 L-199.5 631 L-198 629.5 L-198 628.5 L-195.5 626 L-194.25 625.75 L-194 624.5 L-191.5 622 L-190.5 622 L-188 624.5 L-186.375 636 L-186.625 640 L-187 641.5 L-189 643.5 L-190 647.5 L-191.5 649 L-193.5 649 L-194 649.5 L-192 651.5 L-191.5 653 L-189.625 657 L-188.625 661 L-188 670.75 L-186.125 671.25 L-185.5 677 L-183.375 686 L-182 688.5 L-177 696.5 L-176 698.5 L-173.5 701 L-173 700.5 L-172.5 698 L-167 682.5 L-166 681.5 L-168 679.5 L-168.625 677 L-169.375 675 L-171.25 667 L-171.25 652 L-170.375 649 L-165.5 637 L-163.5 633 L-159 626.5 L-158 624.5 L-157 623.5 L-158 622.5 L-158.5 621 L-159.375 619 L-159.75 616.25 L-158.25 616.25 L-157 620.5 L-155.5 622 L-154 620.5 L-155 617.5 L-157 615.5 L-157 613.5 L-156.5 613 L-154 615.5 L-154 616.5 L-152.5 618 L-145.5 611 L-135 602.5 L-132.5 601 L-131 599.5 L-131.5 599 L-133.5 599 L-134.5 600 L-135.5 599 L-145.5 600 L-147.5 602 L-149 602.5 L-150.75 602.75 L-150.75 599.25 L-141 596.5 L-128.5 595 L-126.5 593 L-123.5 593 L-122.5 592 L-121.5 593 L-111 590.75 L-103 590.5 L-88.5 593 L-86.5 595 L-84.5 595 L-82.5 597 L-81 597.5 L-76.25 600.25 L-75.75 601.75 L-74.5 602 L-73 603.5 L-72.375 606 L-71.5 608 L-71 609.5 L-71 610 L-70 609.5 L-70.75 602.25 L-69.25 602.25 L-66.75 612 L-66 620.5 L-65 621.5 L-66 622.5 L-62 626.5 L-61.75 627.75 L-60.5 628 L-59 629.5 L-59 630.5 L-57 632.5 L-57 634.5 L-55 636.5 L-50.5 653 L-50 657.5 L-51 658.5 L-50 659.5 L-53.5 671 L-56.625 679 L-61 685.5 L-62 687.5 L-66 691.5 L-66 693.5 L-72 699.5 L-69 735.5 L-67 737.5 L-61 745.5 L-55.5 754 L-45.5 766 L-39.875 777 L-40.75 801 L-43 809.5 L-47.5 814 L-50.5 814 L-52.5 816 L-55 816.5 L-63 819.25 L-67.75 820.125 L-68.125 839.75 L-69.75 839.75 L-70 837 L-71 837.5 L-71.25 838.75 L-74.5 840 L-77 842.5 L-77 843.5 L-75.5 845 L-74.5 844 L-73.25 844.25 L-73.25 845.75 L-76.5 847 L-78.5 845 L-81 845 L-80.5 846 L-79.5 846 L-78 847.5 L-78.5 849 L-79.375 851 L-81.375 859 L-83.5 872 L-84.5 876 L-85.625 879 L-92 889.5 L-98.5 896 L-104 899.5 L-108 901.375 L-112 902.5 L-117.5 903 L-118.5 902 L-119.5 903 L-124 903.5 M-83.5 607 L-83 606.5 L-84 605.5 L-84 604.5 L-86.5 602 L-88.5 602 L-91.5 599 L-94 598.375 L-99 596.5 L-102.5 596 L-104.5 594 L-106 593.75 L-113 593.75 L-114.5 594 L-115 595 L-114.5 595 L-111.5 596 L-109 598.5 L-109.5 599 L-111.5 599 L-113.5 597 L-120 597.625 L-123 598.5 L-126.5 599 L-127 599.5 L-126 600.5 L-126 602.5 L-125.5 603 L-124.5 602 L-97 602.75 L-93 603.5 L-85 606.625 L-83.5 607 M-124.5 597 L-124 596 L-127.5 596 L-128 597 L-124.5 597 M-129.5 599 L-128 597.5 L-128.5 597 L-129.5 597 L-131 598.5 L-130.5 599 L-129.5 599 M-132 604.625 L-129.5 604 L-128 602.5 L-128 600.5 L-128.5 600 L-130.5 602 L-131.5 602 L-134 604.5 L-133.5 605 L-132 604.625 M-115.25 709.75 L-113.875 705 L-111.125 604 L-123.5 604 L-125 605.5 L-125.25 608.75 L-126.75 609.25 L-127.375 613 L-128.375 692 L-129.875 703 L-129.625 705 L-128.75 707.75 L-127 708.375 L-123.5 709 L-122.5 708 L-121.5 709 L-115.25 709.75 M-134.5 606 L-134 605 L-135.5 605 L-136 606 L-134.5 606 M-136 607 L-136 606 L-137 606 L-137 607 L-136 607 M-134.25 704.75 L-133 699.5 L-131 697.5 L-129 606.5 L-129.5 606 L-130.5 607 L-132.5 607 L-134.5 609 L-136 609.5 L-141.75 613.25 L-147 620.5 L-148.5 622 L-149.75 621.75 L-150 619.5 L-150.5 619 L-153 621.5 L-162.5 635 L-164.375 639 L-168.375 650 L-169.25 653 L-169.125 667 L-167 674.5 L-166 675 L-166 674.5 L-165 671.5 L-163.5 670 L-159.25 670.125 L-160.875 685.75 L-159.25 686.25 L-159 687.5 L-157.5 689 L-156.25 689.25 L-156 690.5 L-148.5 698 L-147.125 697.75 L-149.75 671 L-149.5 669 L-148.75 667.25 L-147.5 667 L-146.5 666 L-145.5 667 L-144.25 667.25 L-140.625 690 L-140 702.75 L-137.5 703 L-135.5 705 L-134.25 704.75 M-147 617 L-147 616 L-148 616 L-148 617 L-147 617 M-108.5 710 L-107 708.5 L-103.75 691.25 L-102.5 691 L-101.5 692 L-101 691.5 L-101 685.5 L-99.5 684 L-98.125 684.25 L-98 690.5 L-100 692.5 L-98.75 705.75 L-97 705.5 L-95 704.625 L-89 702.625 L-85.5 702 L-82 698.5 L-81.75 697.25 L-80.125 696.75 L-81.5 684 L-86 668.5 L-88 666.5 L-88 663.5 L-86.5 662 L-83.25 662.25 L-75.5 686 L-75 688.5 L-74 689 L-74 687.5 L-72.5 686 L-71.25 685.75 L-70 681.5 L-67 678.5 L-65 674.5 L-63 672.5 L-62.375 670 L-57.5 657 L-56 651.5 L-57 650.5 L-56 649.5 L-57.5 643 L-59 634.5 L-61 632.5 L-67 624.5 L-68 624 L-68 624.5 L-68.5 628 L-68.375 632 L-68 633.5 L-69.5 635 L-70 634.5 L-70.5 632 L-70 622.5 L-72 620.5 L-72 618.5 L-77.5 613 L-80.5 612 L-82.5 610 L-85 609.5 L-92 606.625 L-96 605.625 L-107.75 604.125 L-109.375 616 L-110.75 709.75 L-108.5 710 M-148 618 L-148 617 L-149 617 L-149 618 L-148 618 M-149 619 L-149 618 L-150 618 L-150 619 L-149 619 M-74.5 609 L-74 608.5 L-74.5 607 L-77 602.5 L-78.5 601 L-80 600.5 L-87 596.5 L-92 594.5 L-96 593.5 L-101.5 593 L-102 594 L-101.5 594 L-99 594.5 L-91 597.625 L-86 600.5 L-84 601.375 L-80.5 602 L-79 604 L-74.5 609 M-80 606 L-80 605 L-81 605 L-81 606 L-80 606 M-82 608 L-82 607 L-83 607 L-83 608 L-82 608 M-76 611 L-76 610 L-77 610 L-77 611 L-76 611 M-194 654 L-194 652.5 L-195 652 L-195 653 L-194 654 M-190 671 L-190.625 662 L-191.625 658 L-192.5 656 L-193 654.5 L-194 654 L-193.5 660 L-191 670.5 L-190 671 M-187 679 L-187 677.5 L-188 677 L-188 678 L-187 679 M-204 689 L-204 687.5 L-205 687 L-205 688 L-204 689 M-203 692 L-203 691 L-204 691 L-204 692 L-203 692 M-181 694 L-181 693 L-182 693 L-182 694 L-181 694 M-180 696 L-180 695 L-181 695 L-181 696 L-180 696 M-179 698 L-179 696.5 L-180 696 L-180 697 L-179 698 M-177.5 701 L-177 700.5 L-177 699.5 L-178.5 698 L-179 699 L-177.5 701 M-200 702 L-200 700.5 L-201 700 L-201 701 L-200 702 M-175.5 704 L-175 703.5 L-175 702.5 L-176.5 701 L-177 702 L-175.5 704 M-199 705 L-199 703.5 L-200 703 L-200 704 L-199 705 M-163 675 L-163 673.5 L-164 673 L-164 674 L-163 675 M-164 677 L-164 676 L-165 676 L-165 677 L-164 677 M-165 678 L-165 677 L-166 677 L-166 678 L-165 678 M-162 680 L-162 677.5 L-163 677 L-163 679.5 L-162 680 M-163 681 L-163 680 L-164 680 L-164 681 L-163 681 M-166.5 689 L-165.5 688 L-164.25 687.75 L-164 684.5 L-164.5 684 L-166 685.5 L-166.5 687.5 L-166.5 689 M-165.25 756.75 L-163 752.5 L-160.5 750 L-159.25 749.75 L-157.5 745 L-150.5 722 L-148.5 710 L-148 701.5 L-151.5 698 L-152.5 698 L-156 694.5 L-156 693.5 L-161.5 688 L-162.75 688.25 L-169.5 716 L-173.5 739 L-173.25 749 L-172 753.5 L-169.5 756 L-165.25 756.75 M-167 691 L-167 690 L-168 690 L-168 691 L-167 691 M-168 694 L-168 692.5 L-169 692 L-169 693 L-168 694 M-166 695 L-166 694 L-167 694 L-167 695 L-166 695 M-169 696 L-169 695 L-170 695 L-170 696 L-169 696 M-167 699 L-167 697.5 L-168 697 L-168 698 L-167 699 M-170 699 L-170 698 L-171 698 L-171 699 L-170 699 M-169.5 708 L-169 707.5 L-168 699.5 L-169 699 L-169 699.5 L-169.5 702 L-170.625 705.5 L-169.5 708 M-123 840 L-123 839.5 L-122.5 838 L-118.5 832 L-113 821.5 L-109.5 818 L-109 818.5 L-109.5 820 L-116.5 832 L-117 833.5 L-116.5 834 L-109 826.5 L-109 825.5 L-106 822.5 L-105.375 820 L-104.625 818 L-103.5 814 L-103 810.5 L-105 808.5 L-104.5 808 L-100.5 807 L-99 805.5 L-95.375 792 L-93.75 788 L-90.5 774 L-90.625 770 L-91.25 768.25 L-93 768.375 L-95.5 769 L-97 767.5 L-97 765.5 L-100 762.5 L-100.5 761 L-101.375 759 L-105.5 743 L-106 739.5 L-107 738.5 L-106.5 738 L-105.25 737.75 L-105.375 735 L-106.375 729 L-107 713.25 L-109 713.5 L-111 714.5 L-113 714.5 L-115 713.5 L-117 712.75 L-128 710.5 L-137 706.625 L-139.875 706.25 L-145.5 738 L-153.5 758 L-157.5 764 L-158.375 766 L-159.375 770 L-160 824.75 L-161.75 825.25 L-161.375 828 L-157.5 836 L-157 837.5 L-156 838 L-156 837.5 L-152.5 820 L-144.5 802 L-144 800.5 L-142.5 799 L-141.5 799 L-140.5 800 L-139 798.5 L-139 797.5 L-136.5 795 L-135.5 795 L-134.5 794 L-133 795.5 L-133 799.5 L-134 800.5 L-133 801.5 L-132 805.5 L-130.5 807 L-129.25 807.25 L-129 809.5 L-128.5 810 L-127.5 809 L-126 810.5 L-124 839.5 L-123 840 M-173 726 L-172.5 721 L-171.5 716 L-171 711.5 L-170 710.5 L-171.5 709 L-172 709.5 L-174 725.5 L-173 726 M-101.125 707.75 L-101.125 703.25 L-102.875 703.25 L-102.875 707.75 L-101.125 707.75 M-83.5 761 L-82 759.5 L-78.625 739 L-78 704.5 L-78.5 704 L-80.5 706 L-81.5 705 L-82.5 706 L-84 706.5 L-86 707.5 L-87.5 708 L-88.5 709 L-89.5 708 L-91.5 710 L-93 710.5 L-95 711.375 L-97.875 712.25 L-97.5 717 L-93.375 738 L-87.625 755 L-87 757.5 L-83.5 761 M-178 728 L-178 727 L-179 727 L-179 728 L-178 728 M-174 730 L-174 727.5 L-175 727 L-175 729.5 L-174 730 M-177 757 L-176 734.25 L-177.75 734.25 L-178.25 738 L-178 756.5 L-177 757 M-174.5 765 L-174 764 L-175.5 764 L-177 762.5 L-179.375 758 L-180.25 755 L-181 744.5 L-182 744 L-181.25 758 L-180 762.5 L-177.5 765 L-174.5 765 M-170.5 763 L-169 761.5 L-169 760.5 L-167 758.5 L-167.5 758 L-170.5 758 L-174 754.5 L-174 753.5 L-175 753 L-175 753.5 L-174.5 757 L-172.75 762.75 L-170.5 763 M-176 759 L-176 757.5 L-177 757 L-177 758 L-176 759 M-160 754 L-160 753 L-161 753 L-161 754 L-160 754 M-165.5 763 L-164.5 762 L-163.25 761.75 L-161.375 757 L-161 755.5 L-161.5 755 L-164 757.5 L-164 758.5 L-166 760.5 L-166 762.5 L-165.5 763 M-167 764 L-167 763 L-168 763 L-168 764 L-167 764 M-168 765 L-168 764 L-169 764 L-169 765 L-168 765 M-160 766 L-160 765 L-161 765 L-161 766 L-160 766 M-99.5 735 L-99 734.5 L-98.875 729.25 L-97.5 729 L-97 728.5 L-98 727.5 L-100.125 712.25 L-101.5 712 L-103 713.5 L-102.25 726 L-101 733.5 L-99.5 735 M-88.5 764 L-87 762.5 L-87.5 761 L-88.375 759 L-94.5 742 L-95.5 738 L-96 733.5 L-97 733 L-97 733.5 L-97.25 735 L-95.75 757.75 L-94.25 758.25 L-94 759.5 L-89.5 764 L-88.5 764 M-102 737 L-102 734.5 L-103 734 L-103 736.5 L-102 737 M-101 740 L-101 737.5 L-102 737 L-102 739.5 L-101 740 M-45 809.5 L-44.75 808 L-42.875 801 L-41.75 778 L-42.5 776 L-47.5 767 L-57 755.5 L-62 747.5 L-68 739.5 L-69.5 738 L-70 738.5 L-70 747.5 L-67 750.5 L-66 752.5 L-62 758.5 L-60.625 761 L-60 763.5 L-57 766.5 L-56.5 768 L-56.375 770 L-57.5 774 L-59.375 786 L-60 798.5 L-62 800.5 L-63 808.5 L-63.5 809 L-65 807.5 L-65.25 804.25 L-67 804.5 L-73 807.375 L-76.5 808 L-77.5 809 L-78.5 808 L-87.75 809.125 L-88 811.5 L-86 813.5 L-86 814.5 L-84.5 816 L-79.5 816 L-78.5 815 L-78 815.5 L-78.25 817.75 L-81.5 818 L-82 819 L-70 818.375 L-64 817.375 L-47.5 811.375 L-45 809.5 M-100 742 L-100 740.5 L-101 740 L-101 741 L-100 742 M-98 758 L-99 746.5 L-101.5 744 L-102 744.5 L-99.375 756.5 L-98 758 M-63.25 799.75 L-59 770.5 L-58 769.5 L-59 768.5 L-61.375 764 L-62 761.5 L-64 759.5 L-65 757.5 L-67 754.5 L-68 752.5 L-70.5 750 L-71 750.5 L-71.5 754 L-72.5 758 L-73.625 761 L-74 762.5 L-78.5 767 L-83.5 768 L-84 768.5 L-81 771.5 L-70.5 785 L-68.5 788 L-67.625 790 L-65.5 796 L-64.75 799.75 L-63.25 799.75 M-92.5 764 L-92 763 L-93.5 763 L-94 764 L-92.5 764 M-86 766 L-86 765 L-87 765 L-87 766 L-86 766 M-84 768 L-84 767 L-85 767 L-85 768 L-84 768 M-74 805.375 L-70 803.625 L-67.5 803 L-66 801.5 L-66.375 800 L-70.5 789 L-72 786.5 L-79.5 777 L-82 773.5 L-85.5 770 L-86 770.5 L-85.75 772.75 L-84.5 773 L-84 773.5 L-85 774.5 L-86 780.5 L-87 781.5 L-85 783.5 L-84.625 785 L-83.5 788 L-83.25 790.75 L-84.75 790.75 L-86 786.5 L-87.5 785 L-88 785.5 L-90 801.5 L-87.5 804 L-86 804.375 L-82.5 805 L-81.5 806 L-80 804.5 L-80.5 803 L-82.5 799 L-82.75 797.25 L-81.5 797 L-80 798.5 L-79 801.5 L-77 803.5 L-76.75 805.75 L-74 805.375 M-136 800 L-136 799 L-137 799 L-137 800 L-136 800 M-152 834 L-152 833.5 L-150.5 827 L-141.5 803 L-141 801.5 L-141.5 801 L-143 802.5 L-143.375 804 L-149.375 817 L-152.5 829 L-153 833.5 L-152 834 M-139 848.625 L-127.125 846.875 L-130 814.5 L-130.5 814 L-132.5 816 L-134 814.5 L-135 805.5 L-136.5 804 L-138.5 804 L-139.5 803 L-140 803.5 L-140.625 806 L-146.5 821 L-150.5 834 L-152.625 843 L-152.75 845.75 L-143 848.5 L-139 848.625 M-127 818 L-127 814.5 L-128 814 L-128 817.5 L-127 818 M-162 832 L-162 830.5 L-163 830 L-163 831 L-162 832 M-157.5 842 L-157 841.5 L-159.375 837 L-160.625 834 L-161 832.5 L-162 832 L-162 832.5 L-161.375 836 L-160.5 838.5 L-157.5 842 M-111 833 L-111 832 L-112 832 L-112 833 L-111 833 M-112 834 L-112 833 L-113 833 L-113 834 L-112 834 M-109.5 855 L-107.5 853 L-105.5 852 L-102.5 850 L-94 845.5 L-92.5 845 L-90.5 843 L-84.5 844 L-82.5 842 L-81.5 843 L-80.5 843 L-80 842.5 L-81 841.5 L-81.5 840 L-83.5 836 L-86.25 829 L-87 824.5 L-88 823.5 L-86.5 822 L-85.5 822 L-85 821 L-97.75 820.25 L-98.25 821.75 L-99.75 821.75 L-100 820.5 L-101 820 L-101 820.5 L-102.25 823.75 L-103.75 824.25 L-106 832.5 L-107.5 834 L-108 833.5 L-108 831.5 L-109 831 L-109 831.5 L-109.5 833 L-113 839.5 L-114 840.5 L-113.5 841 L-111.5 841 L-110 842.5 L-110.25 844 L-110 854.5 L-109.5 855 M-117 835 L-117 834 L-118 834 L-118 835 L-117 835 M-121 844.5 L-119 843.5 L-117.25 842.75 L-113.5 836 L-113 834.5 L-113.5 834 L-116.5 837 L-117.75 836.75 L-118 835.5 L-119 835 L-119 835.5 L-119.5 837 L-122.5 843 L-122.75 844.75 L-121 844.5 M-153 838 L-153 835.5 L-154 835 L-154 837.5 L-153 838 M-91.25 805.75 L-92 799.5 L-93 799 L-93 799.5 L-93.5 802 L-93.75 805.75 L-91.25 805.75 M-86.5 807 L-86 806 L-87.5 806 L-88.5 805 L-89 805.5 L-88.75 806.75 L-86.5 807 M-83.25 819.75 L-83.25 818.25 L-85.5 818 L-87 816.5 L-89.375 812 L-90 809.5 L-91.5 808 L-94.5 808 L-96 809.5 L-96.5 813 L-97.625 816 L-97.75 817.875 L-83.25 819.75 M-101.5 810 L-101 809 L-102.5 809 L-103 810 L-101.5 810 M-100 814 L-100 813 L-101 813 L-101 814 L-100 814 M-101 817 L-101 816 L-102 816 L-102 817 L-101 817 M-78.5 841 L-77 839.5 L-76.75 837.25 L-74.25 836.75 L-73.75 834.25 L-71.5 834 L-70.5 835 L-70 834.5 L-69.75 833 L-69.75 824 L-70 822.5 L-71.5 821 L-83 821.875 L-84.875 822.25 L-84.25 829 L-80 839 L-78.5 841 M-120 847 L-120 846 L-121 846 L-121 847 L-120 847 M-155 848 L-155 847 L-156 847 L-156 848 L-155 848 M-123.5 850 L-121 847.5 L-121.5 847 L-123.75 847.25 L-124 849.5 L-123.5 850 M-112 900 L-112 899 L-113 899 L-113 900 L-112 900 "></path>
    </g>
    <path style="stroke: rgb(0, 0, 0); fill: rgb(255, 107, 0);" d="M -77.958 809.691 C -77.958 813.804 -77.901 825.595 -80.855 813.808 C -81.101 812.828 -81.307 811.839 -81.52 810.851 C -82.318 807.142 -81.984 808.562 -82.674 804.906 C -83.169 802.285 -90.337 782.118 -81.106 783.895 C -79.725 784.161 -77.048 792.274 -76.681 793.229 C -73.788 800.771 -70.212 812.477 -70.212 820.564 C -70.212 824.411 -69.406 830.999 -75.677 828.937 C -89.876 824.269 -87.962 801.439 -87.962 790.194 C -87.962 787.757 -86.192 776.48 -83.592 774.93 C -79.842 772.696 -72.741 790.149 -72.409 792.911 C -71.859 797.492 -71.625 801.936 -71.625 806.553"></path>
  </g>
</svg>
